<?xml version="1.0" encoding="utf-8"?>
<!-- Generator: Adobe Illustrator 16.0.0, SVG Export Plug-In . SVG Version: 6.00 Build 0)  -->
<!DOCTYPE svg PUBLIC "-//W3C//DTD SVG 1.1//EN" "http://www.w3.org/Graphics/SVG/1.1/DTD/svg11.dtd">
<svg version="1.1" id="Layer_1" xmlns="http://www.w3.org/2000/svg" xmlns:xlink="http://www.w3.org/1999/xlink" x="0px" y="0px"
	 width="600px" height="600px" viewBox="0 0 600 600" enable-background="new 0 0 600 600" xml:space="preserve">
<g>
	<g>
		<path fill-rule="evenodd" clip-rule="evenodd" fill="#010101" d="M1,282c0-1.333,0-2.667,0-4
			c1.136-13.552,2.383-27.061,5.305-40.411C16.907,189.144,38,145.888,69.725,107.793c27.698-33.259,61.125-59.235,100.001-78.13
			C199.012,15.43,229.84,6.128,262.215,2.206C267.118,1.611,272.129,2.132,277,1c1.333,0,2.667,0,4,0
			c0.639,0.685,1.485,0.46,2.268,0.512c0.61,0,1.219,0,1.829,0C286.074,1.391,287.151,1.846,288,1c8.667,0,17.333,0,26,0
			c0.85,0.846,1.93,0.39,2.906,0.512c0.609-0.001,1.22,0,1.828,0C319.517,1.46,320.361,1.686,321,1c0.667,0,1.333,0,2,0
			c10.689,1.236,21.465,1.38,32.106,3.395c51.649,9.776,97.836,31.13,138.346,64.667c34.41,28.487,61.047,63.074,80.209,103.348
			c13.624,28.636,22.385,58.786,26.187,90.302c0.611,5.06,0.174,10.234,1.152,15.289c0,1,0,2,0,3
			c-0.654,0.598-0.473,1.396-0.512,2.142c0,0.574,0,1.148,0,1.722c0.037,0.744-0.141,1.54,0.512,2.136c0,9.333,0,18.667,0,28
			c-0.654,0.599-0.473,1.396-0.512,2.142c0,0.574,0,1.148,0,1.723c0.037,0.743-0.141,1.539,0.512,2.136c0,1.333,0,2.667,0,4
			c-1.177,12.88-2.369,25.73-5.104,38.432c-10.547,48.997-31.759,92.73-63.949,131.151c-27.903,33.303-61.44,59.374-100.579,78.176
			c-29.047,13.953-59.546,23.177-91.583,27.035c-5.561,0.67-11.228,0.246-16.785,1.206c-0.667,0-1.333,0-2,0
			c-0.64-0.686-1.484-0.46-2.268-0.513c-0.609,0.001-1.22,0.001-1.829,0c-0.977,0.121-2.055-0.333-2.903,0.513
			c-8.667,0-17.333,0-26,0c-0.85-0.847-1.93-0.39-2.907-0.512c-0.609,0-1.219,0-1.828,0c-0.782,0.052-1.626-0.174-2.266,0.512
			c-1.333,0-2.667,0-4,0c-10.002-1.407-20.124-1.511-30.107-3.398c-51.655-9.764-97.842-31.12-138.343-64.664
			c-34.4-28.491-61.062-63.055-80.207-103.349c-13.61-28.646-22.381-58.786-26.19-90.3C1.541,334.229,1.978,329.055,1,324
			c0-1.667,0-3.333,0-5c0.614-0.554,0.487-1.297,0.512-2.001C1.488,316.295,1.613,315.554,1,315c0-9.667,0-19.333,0-29
			c0.614-0.553,0.487-1.296,0.512-2C1.488,283.295,1.613,282.553,1,282z"/>
		<path fill-rule="evenodd" clip-rule="evenodd" fill="#FFFFFF" d="M277,1c-2.448,2.145-5.602,1.444-8.368,1.742
			c-51.342,5.54-98.254,23.016-140.227,52.988C65.256,100.824,24.975,161.354,7.883,237.178c-2.889,12.82-4.726,25.786-5.874,38.862
			C1.939,276.835,2.097,277.737,1,278C1,185.75,1,93.5,1,1C93,1,185,1,277,1z"/>
		<path fill-rule="evenodd" clip-rule="evenodd" fill="#FFFFFF" d="M601,278c-2.019-2.845-1.407-6.271-1.732-9.374
			c-3.274-31.248-11.001-61.359-24.289-89.775C533.389,89.903,464.955,33.101,369.643,8.975
			c-14.834-3.755-29.936-5.983-45.212-6.978C323.725,1.951,323.148,1.805,323,1c92.583,0,185.167,0,278,0
			C601,93.333,601,185.667,601,278z"/>
		<path fill-rule="evenodd" clip-rule="evenodd" fill="#FFFFFF" d="M323,601c3.392-1.94,7.262-1.399,10.871-1.783
			c29.895-3.18,58.748-10.474,86.102-22.837c88.44-39.974,145.612-106.956,171.604-200.449c4.362-15.691,6.687-31.809,8.367-48.006
			c0.105-1.013-0.599-2.431,1.057-2.925c0,91.917,0,183.834,0,276C508.334,601,415.667,601,323,601z"/>
		<path fill-rule="evenodd" clip-rule="evenodd" fill="#FFFFFF" d="M1,324c2.01,2.857,1.4,6.29,1.739,9.405
			c5.574,51.335,23.063,98.23,53.008,140.227c43.973,61.67,102.934,101.503,176.608,119.438c13.903,3.385,28.022,5.354,42.219,6.894
			c0.893,0.097,2.074-0.371,2.426,1.036c-91.917,0-183.834,0-276,0C1,508.667,1,416.333,1,324z"/>
		<path fill-rule="evenodd" clip-rule="evenodd" fill="#5D5D5D" d="M317.062,1.878C315.932,1.967,314.723,2.333,314,1c1,0,2,0,3,0
			c0.319,0.173,0.435,0.361,0.347,0.564C317.257,1.773,317.162,1.878,317.062,1.878z"/>
		<path fill-rule="evenodd" clip-rule="evenodd" fill="#5D5D5D" d="M288,1c-0.731,1.333-1.935,0.974-3.071,0.857
			c-0.283-0.215-0.367-0.414-0.251-0.596C284.787,1.087,284.894,1,285,1C286,1,287,1,288,1z"/>
		<path fill-rule="evenodd" clip-rule="evenodd" fill="#5C5C5C" d="M284.938,600.118c1.129-0.083,2.339-0.446,3.062,0.882
			c-1,0-2,0-3,0c-0.32-0.175-0.436-0.363-0.348-0.566C284.744,600.223,284.838,600.118,284.938,600.118z"/>
		<path fill-rule="evenodd" clip-rule="evenodd" fill="#5C5C5C" d="M314,601c0.731-1.328,1.936-0.973,3.07-0.861
			c0.284,0.216,0.367,0.415,0.253,0.599c-0.11,0.175-0.218,0.263-0.323,0.263C316,601,315,601,314,601z"/>
		<path fill-rule="evenodd" clip-rule="evenodd" fill="#7F7E7F" d="M285,1c0.001,0.288-0.022,0.574-0.071,0.857
			c-0.659-0.004-1.319-0.009-1.978-0.014c-0.298-0.206-0.39-0.399-0.277-0.581C282.784,1.088,282.892,1,283,1
			C283.667,1,284.333,1,285,1z"/>
		<path fill-rule="evenodd" clip-rule="evenodd" fill="#9C9C9C" d="M601,321c-1.267-0.223-0.953-1.129-0.842-1.947
			c0.25-0.51,0.53-0.527,0.842-0.053C601,319.667,601,320.333,601,321z"/>
		<path fill-rule="evenodd" clip-rule="evenodd" fill="#7C7C7D" d="M601,319c-0.279,0.037-0.561,0.055-0.842,0.053
			c0.001-0.662,0.002-1.323,0.003-1.984c0.238-0.527,0.519-0.551,0.839-0.068C601,317.667,601,318.333,601,319z"/>
		<path fill-rule="evenodd" clip-rule="evenodd" fill="#7C7C7D" d="M1.84,317.066c0.104,0.811,0.318,1.67-0.84,1.934
			c0-0.667,0-1.333,0-2C1.318,316.532,1.6,316.53,1.84,317.066z"/>
		<path fill-rule="evenodd" clip-rule="evenodd" fill="#606161" d="M601,287c-1.009-0.393-1.013-1.194-0.838-2.067
			c0.312-0.38,0.592-0.377,0.838,0.067C601,285.667,601,286.333,601,287z"/>
		<path fill-rule="evenodd" clip-rule="evenodd" fill="#9E9E9E" d="M283,1c0.005,0.283-0.012,0.564-0.049,0.844
			C282.128,1.962,281.216,2.286,281,1C281.667,1,282.333,1,283,1z"/>
		<path fill-rule="evenodd" clip-rule="evenodd" fill="#9E9E9E" d="M321,1c-0.221,1.272-1.132,0.952-1.95,0.845
			c-0.368-0.167-0.498-0.348-0.391-0.542C318.77,1.101,318.883,1,319,1C319.667,1,320.333,1,321,1z"/>
		<path fill-rule="evenodd" clip-rule="evenodd" fill="#7F7E7F" d="M319,1c-0.006,0.283,0.011,0.565,0.049,0.845
			c-0.662,0.011-1.325,0.023-1.987,0.034C317.011,1.587,316.99,1.295,317,1C317.667,1,318.333,1,319,1z"/>
		<path fill-rule="evenodd" clip-rule="evenodd" fill="#606161" d="M601,317c-0.279,0.028-0.559,0.052-0.839,0.068
			c-0.182-0.877-0.171-1.675,0.839-2.068C601,315.667,601,316.333,601,317z"/>
		<path fill-rule="evenodd" clip-rule="evenodd" fill="#686868" d="M1.868,283.935c0.181,0.886,0.191,1.7-0.868,2.065
			c0-0.667,0-1.333,0-2C1.258,283.559,1.547,283.537,1.868,283.935z"/>
		<path fill-rule="evenodd" clip-rule="evenodd" fill="#616161" d="M1.84,317.066C1.56,317.051,1.279,317.028,1,317
			c0-0.667,0-1.333,0-2C2.005,315.394,2.024,316.188,1.84,317.066z"/>
		<path fill-rule="evenodd" clip-rule="evenodd" fill="#7C7C7D" d="M601,285c-0.279-0.029-0.559-0.051-0.838-0.067
			c-0.002-0.662-0.004-1.323-0.006-1.985c0.308-0.409,0.589-0.392,0.844,0.052C601,283.667,601,284.333,601,285z"/>
		<path fill-rule="evenodd" clip-rule="evenodd" fill="#9D9D9D" d="M281,601c0.222-1.27,1.132-0.952,1.951-0.846
			c0.368,0.167,0.498,0.348,0.39,0.543C283.23,600.898,283.117,601,283,601C282.333,601,281.667,601,281,601z"/>
		<path fill-rule="evenodd" clip-rule="evenodd" fill="#7E7E7E" d="M283,601c0.006-0.283-0.01-0.565-0.049-0.846
			c0.663-0.013,1.326-0.026,1.988-0.038c0.052,0.294,0.072,0.588,0.061,0.884C284.333,601,283.667,601,283,601z"/>
		<path fill-rule="evenodd" clip-rule="evenodd" fill="#8D8D8D" d="M1.868,283.935C1.58,283.971,1.291,283.993,1,284
			c0-0.667,0-1.333,0-2C2.25,282.214,1.957,283.12,1.868,283.935z"/>
		<path fill-rule="evenodd" clip-rule="evenodd" fill="#9D9C9C" d="M601,283c-0.281-0.019-0.563-0.036-0.844-0.052
			c-0.117-0.822-0.439-1.732,0.844-1.948C601,281.667,601,282.333,601,283z"/>
		<path fill-rule="evenodd" clip-rule="evenodd" fill="#7E7E7E" d="M317,601c-0.004-0.289,0.02-0.576,0.07-0.861
			c0.659,0.006,1.319,0.011,1.979,0.017c0.299,0.206,0.391,0.399,0.277,0.581C319.217,600.912,319.108,601,319,601
			C318.333,601,317.667,601,317,601z"/>
		<path fill-rule="evenodd" clip-rule="evenodd" fill="#9D9D9D" d="M319,601c-0.005-0.283,0.011-0.564,0.049-0.845
			c0.823-0.118,1.734-0.438,1.951,0.845C320.333,601,319.667,601,319,601z"/>
		<path fill-rule="evenodd" clip-rule="evenodd" fill="#FFFFFF" d="M300.752,526C176.481,525.927,75.88,425.047,76,300.625
			C76.12,176.379,177.063,75.83,301.504,76C425.729,76.169,526.188,177.133,526,301.627
			C525.813,425.606,424.955,526.073,300.752,526z"/>
		<path fill-rule="evenodd" clip-rule="evenodd" fill="#FEFEFE" d="M111.873,453.052c-10.818,8.899-21.335,17.552-32.111,26.416
			c-2.316-2.41-3.816-5.133-5.742-8.021c5.637-4.591,11.257-9.167,16.877-13.744c-0.103-0.244-0.205-0.488-0.307-0.733
			c-7.217,1.903-14.434,3.807-21.756,5.737c-1.797-0.971-2.432-2.95-3.769-4.768c4.392-6.014,8.813-12.066,13.234-18.12
			c-0.252-0.235-0.504-0.471-0.756-0.705c-5.958,3.383-11.915,6.766-18.015,10.229c-2.764-1.84-3.671-5.012-6.137-7.811
			c12.217-6.856,24.145-13.55,36.293-20.368c2.6,2.229,4.002,5.467,6.239,8.395c-4.558,6.643-9.133,13.311-14.069,20.503
			c6.526-1.488,12.475-2.832,18.417-4.201c5.907-1.362,5.908-1.376,9.14,3.413C110.149,450.363,110.849,451.477,111.873,453.052z"/>
		<path fill-rule="evenodd" clip-rule="evenodd" fill="#FEFEFE" d="M244.831,578.923c-2.657,0.473-4.417-0.84-6.404-1.012
			c-2.5-0.216-3.63-1.77-4.325-4.056c-2.407-7.918-4.944-15.795-7.707-24.562c-3.157,8.01-4.251,15.854-6.89,23.447
			c-3.148-0.834-6.116-1.62-9.419-2.495c3.621-13.513,7.159-26.716,10.648-39.734c0.71-0.159,1.025-0.311,1.326-0.286
			c6.692,0.544,9.674,4.38,11.159,10.814c1.47,6.37,3.478,12.721,6.321,19.207c2.155-7.99,4.176-15.482,6.233-23.106
			c3.404-0.224,6.186,1.25,9.611,2.189C251.834,552.648,248.351,565.717,244.831,578.923z"/>
		<path fill-rule="evenodd" clip-rule="evenodd" fill="#FEFEFE" d="M511.521,420.442c1.884-3.043,3.442-5.56,5.176-8.36
			c11.859,7.264,23.563,14.431,35.326,21.636c-0.307,0.742-0.491,1.178-0.667,1.616c-2.158,5.373-5.709,7.703-11.864,7.092
			c-6.745-0.669-13.607-0.152-20.419-0.152c-0.11,0.447-0.221,0.895-0.33,1.342c6.494,4.025,12.988,8.051,19.723,12.225
			c-1.209,3.099-3.153,5.519-4.943,8.548c-11.897-7.288-23.593-14.451-35.248-21.591c0.137-0.507,0.195-0.802,0.294-1.081
			c2.16-6.099,6.126-8.529,12.846-7.793c6.5,0.712,13.14,0.154,19.719,0.154c0.107-0.398,0.216-0.798,0.323-1.196
			C524.933,428.811,518.408,424.74,511.521,420.442z"/>
		<path fill-rule="evenodd" clip-rule="evenodd" fill="#FEFEFE" d="M511.599,467.219c-2.558,1.656-3.782,4.59-6.299,6.588
			c-2.115-1.185-3.866-2.819-5.738-4.94c4.15-4.864,8.197-9.607,12.293-14.407c7.849,4.768,12.568,10.976,10.977,20.19
			c-1.375,7.965-6.178,13.639-13.94,16.035c-12.575,3.882-25.611-4.682-28.136-18.103c-2.257-11.994,7.927-23.791,20.27-23.269
			c1.169,2.757,0.871,5.706,1.063,8.542c-0.557,0.207-0.846,0.371-1.152,0.42c-8.139,1.305-11.801,5.558-10.319,12.001
			c1.772,7.707,10.191,12.957,17.06,10.637C513.378,478.987,515.263,472.519,511.599,467.219z"/>
		<path fill-rule="evenodd" clip-rule="evenodd" fill="#FEFEFE" d="M382.891,529.183c6.006-2.274,11.032-5.613,17.097-6.416
			c11.281-1.494,19.722,5.483,22.629,14.573c3.058,9.556-1.309,19.918-10.312,24.49c-3.967,2.015-8.143,3.616-12.742,5.633
			C393.999,554.689,388.545,542.166,382.891,529.183z"/>
		<path fill-rule="evenodd" clip-rule="evenodd" fill="#FEFEFE" d="M157.199,499.917c1.012-1.337,1.867-2.766,3.906-1.168
			c1.811,1.419,3.863,2.528,6.16,3.998c-2.834,4.586-5.597,9.056-8.458,13.686c3.283,2.641,6.833,4.659,10.665,6.895
			c2.886-4.559,5.692-8.992,8.696-13.737c2.785,1.698,5.275,3.217,8.412,5.129c-7.409,11.864-14.716,23.564-22.143,35.457
			c-2.868-1.812-5.499-3.475-8.349-5.274c2.88-4.691,5.604-9.13,8.583-13.983c-3.498-2.234-6.792-4.338-10.399-6.643
			c-3.569,4.136-5.736,9.184-9.195,13.709c-2.66-1.639-5.294-3.261-8.291-5.106c5.731-9.153,11.348-18.064,16.884-27.025
			c0.93-1.505,2.415-2.797,2.314-4.817C155.824,500.05,156.15,499.591,157.199,499.917z"/>
		<path fill-rule="evenodd" clip-rule="evenodd" fill="#FEFEFE" d="M85.249,117.453c5.057,4.49,9.853,8.776,14.682,13.023
			c1.866,1.641,3.709,3.336,5.739,4.755c3.563,2.492,5.558,2.248,8.231-0.664c2.803-3.052,2.898-5.447-0.17-8.699
			c-2.614-2.77-5.549-5.242-8.383-7.799c-3.688-3.329-7.418-6.612-11.44-10.191c2.096-2.389,4.113-4.688,5.932-6.762
			c1.82-0.298,2.415,0.91,3.234,1.634c5.978,5.275,12.008,10.497,17.853,15.917c7.031,6.521,7.2,14.466,0.698,21.995
			c-6.743,7.808-14.708,8.898-22.192,2.613c-6.976-5.858-13.638-12.09-20.725-18.413C80.937,122.339,82.969,120.036,85.249,117.453z
			"/>
		<path fill-rule="evenodd" clip-rule="evenodd" fill="#FEFEFE" d="M199.687,520.678c2.984,1.359,5.513,2.511,8.264,3.764
			c-0.452,14.762-0.902,29.479-1.361,44.462c-3.521-0.605-6.232-2.521-9.378-3.715c0-2.905,0-5.687,0-8.862
			c-4.448-1.992-8.931-4-13.451-6.024c-2.62,1.297-4.012,3.892-6.36,5.792c-3.33-0.487-6.157-2.448-9.971-3.915
			C178.376,541.489,188.898,531.214,199.687,520.678z"/>
		<path fill-rule="evenodd" clip-rule="evenodd" fill="#FEFEFE" d="M316.43,584.092c-3.186,1.128-6.497,0.825-10.229,0.937
			c4.355-14.521,8.602-28.68,12.829-42.774c3.21-0.271,5.989-0.507,9.056-0.766c6.747,13.086,13.476,26.134,20.422,39.606
			c-3.632,1.193-6.925,0.661-9.936,1.082c-0.437-0.387-0.764-0.555-0.91-0.822c-3.839-7.032-3.838-7.052-12.007-6.209
			c-2.132,0.22-4.247,0.593-6.286,0.884C317.681,578.565,318.003,581.643,316.43,584.092z"/>
		<path fill-rule="evenodd" clip-rule="evenodd" fill="#FEFEFE" d="M338.316,62.138c-3.194-0.704-5.896-1.299-9.034-1.991
			c1.744-8.459,3.432-16.64,5.157-25.007c3.282-0.18,6.208,0.081,8.623,2.351c0.69,0.648,1.5,0.706,2.307,0.403
			c5.978-2.24,10.206,0.312,13.742,5.25c2.156-1.397,4.387-2.384,6.937-2.411c6.448-0.066,10.771,4.31,9.938,10.715
			c-0.742,5.717-2.109,11.354-3.245,17.259c-3.175,0.617-5.807-1.112-8.829-1.207c-0.148-4.138,1.135-7.734,1.932-11.403
			c1.198-5.512,0.626-7.546-2.42-8.328c-3.151-0.808-4.343,0.611-5.518,6.379c-0.753,3.698-1.602,7.376-2.425,11.144
			c-3.227-0.03-6.048-0.764-9.041-1.831c0.743-3.632,1.508-7.169,2.179-10.725c0.306-1.625,0.535-3.28,0.605-4.93
			c0.094-2.17-1.219-3.413-3.219-3.774c-2.041-0.369-3.672,0.396-4.181,2.555c-1.026,4.345-1.938,8.716-2.902,13.076
			C338.784,60.293,338.617,60.916,338.316,62.138z"/>
		<path fill-rule="evenodd" clip-rule="evenodd" fill="#FEFEFE" d="M114.298,468.56c-1.967,1.812-3.551,3.269-5.368,4.941
			c3.035,3.347,6.012,6.629,9.123,10.06c-2.053,1.938-4.063,3.834-6.103,5.76c-3.393-3.218-6.511-6.175-9.768-9.264
			c-1.515,1.378-3.22,2.93-5.156,4.691c2.435,3.941,6.387,6.586,9.11,10.358c-1.5,2.581-3.948,3.982-6.009,6.177
			c-5.556-5.894-10.876-11.536-16.5-17.502c10.063-9.502,19.942-18.83,30.271-28.584c5.538,5.786,10.991,11.483,16.605,17.35
			c-2.085,2.143-3.917,4.023-5.845,6.005C120.561,475.771,118.073,471.705,114.298,468.56z"/>
		<path fill-rule="evenodd" clip-rule="evenodd" fill="#FEFEFE" d="M403.067,72.435c-1.307,2.632-1.624,5.353-3.595,7.741
			c-7.149-2.784-14.324-5.577-21.98-8.558c5.045-13.005,9.977-25.718,15.087-38.892c7.546,2.926,14.869,5.767,22.302,8.649
			c-0.791,2.806-1.656,5.256-3.118,7.894c-4.396-0.851-8.326-3.449-12.858-4.475c-1.552,1.925-1.796,4.291-3.028,6.671
			c4.1,1.689,8.126,3.348,12.124,4.995c0.081,3.022-1.771,5.127-2.433,7.861c-4.497-0.646-8.143-3.089-12.461-4.269
			c-1.901,1.663-1.762,4.403-3.198,6.552C393.901,69.285,398.65,69.915,403.067,72.435z"/>
		<path fill-rule="evenodd" clip-rule="evenodd" fill="#FEFEFE" d="M157.199,499.917c-0.405,0.373-0.81,0.746-1.214,1.118
			c-2.697,0.135-4.732,2.219-7.36,2.539c-4.512-8.226-10.159-11.84-16.291-10.448c-4.796,1.088-8.719,5.581-9.25,10.598
			c-0.625,5.885,4.005,11.22,12.974,14.735c-0.02,2.743-1.249,5.308-1.768,8.568c-6.26-0.434-11.065-3.341-15.116-7.587
			c-11.76-12.328-6.402-32.064,9.721-36.051c9.944-2.459,20.907,2.593,26.125,12.071
			C155.815,496.908,156.476,498.43,157.199,499.917z"/>
		<path fill-rule="evenodd" clip-rule="evenodd" fill="#FEFEFE" d="M471.443,78.215c-2.151,2.038-4.948,3.052-7.381,4.622
			c-5.887-7.986-11.899-10.779-17.975-8.489c-4.783,1.803-7.652,6.439-7.304,11.799c0.414,6.356,5,10.513,14.105,12.637
			c0.229,2.922,0.02,5.831-0.995,8.649c-11.126,0.662-21.416-8.136-23.491-20.016c-1.753-10.043,4.6-19.843,14.842-22.892
			C454.55,61.16,466.928,67.124,471.443,78.215z"/>
		<path fill-rule="evenodd" clip-rule="evenodd" fill="#FEFEFE" d="M461.373,486.296c2.373,2.567,0.921,5.72,2.752,8.077
			c-3.58,1.477-7.104,1.592-9.471,4.266c-1.015,1.146-2.171,2.257-1.395,3.917c0.747,1.6,2.271,1.702,3.849,1.621
			c2.853-0.146,5.5-1.177,8.247-1.775c8.08-1.764,13.863,1.436,16.042,8.65c1.173,3.886,0.068,7.22-2.165,10.288
			c-4.929,6.772-11.75,9.882-20.188,10.198c-1.722-2.869-0.508-6.173-1.709-9.091c2.499-0.479,4.762-0.94,7.035-1.338
			c2.23-0.39,3.952-1.602,5.509-3.16c1.168-1.169,1.623-2.535,1.104-4.087c-0.574-1.714-2.012-1.939-3.622-1.96
			c-3.044-0.038-5.871,1.058-8.814,1.533c-6.088,0.983-10.866-0.896-13.332-5.411c-2.46-4.503-1.645-10.743,1.985-14.882
			C450.906,488.917,455.847,487.19,461.373,486.296z"/>
		<path fill-rule="evenodd" clip-rule="evenodd" fill="#FEFEFE" d="M250.1,25.385c-0.693,2.958-1.326,5.66-2.035,8.684
			c-4.74-1.247-9.124-1.058-13.104,1.502c-2.421,1.557-4.242,3.617-5.188,6.462c-1.629,4.893,0.062,10.101,4.435,13.081
			c5.301,3.613,11.877,2.666,18.282-2.737c2.479,1.899,4.262,4.432,6.056,6.937c-6.777,8.405-21.519,10.508-31.15,3.645
			c-8.644-6.159-11.384-17.611-6.25-26.977C226.715,25.821,239.313,21.052,250.1,25.385z"/>
		<path fill-rule="evenodd" clip-rule="evenodd" fill="#FEFEFE" d="M306.603,546.55c-0.994,2.832-2.574,5.155-4.209,7.849
			c-7.205-3.305-14.35-4.575-20.065,2.636c-3.172,4.001-3.057,9.274,0.276,13.38c5.103,6.283,11.646,5.979,18.743,3.24
			c1.206,2.681,2.344,5.211,3.478,7.731c-7.262,6.185-20.83,4.882-28.639-2.72c-7.959-7.749-8.881-19.402-2.166-27.929
			C281.706,540.98,296.333,539.135,306.603,546.55z"/>
		<path fill-rule="evenodd" clip-rule="evenodd" fill="#FEFEFE" d="M435.984,531.765c1.217,2.062,2.451,4.154,3.806,6.45
			c4.076-2.397,7.898-4.645,11.82-6.95c2.238,1.84,2.883,4.708,4.738,6.967c-0.861,0.696-1.438,1.289-2.124,1.698
			c-5.966,3.554-11.951,7.074-18.476,10.926c-7.111-11.909-14.107-23.627-21.38-35.805c6.944-4.148,13.687-8.178,20.682-12.356
			c1.535,2.553,2.87,4.77,4.453,7.401c-4.088,2.536-7.961,4.938-11.999,7.444c1.283,2.195,2.443,4.181,3.78,6.468
			c3.871-2.258,7.619-4.443,11.402-6.65c2.172,1.908,2.796,4.612,4.695,6.829C443.95,527.447,439.559,528.812,435.984,531.765z"/>
		<path fill-rule="evenodd" clip-rule="evenodd" fill="#FEFEFE" d="M273.005,60.75c-3.117,0.811-5.847,1.298-9.24,1.036
			c-1.357-14.13-2.714-28.249-4.085-42.524c2.941-1.383,5.765-1.087,8.703-1.246c2.041,6.001,0.958,12.473,2.747,18.853
			c3.282-2.774,6.795-3.627,10.756-2.92c4.902,0.876,7.582,3.613,8.104,8.591c0.553,5.272,1.084,10.547,1.646,16.017
			c-2.763,2.017-5.899,1.229-9.208,1.305c-0.465-4.453-0.919-8.705-1.349-12.96c-0.36-3.572-2.469-6.195-4.877-5.691
			c-2.593,0.543-4.932,2.903-4.409,6.252C272.456,51.706,272.601,56.03,273.005,60.75z"/>
		<path fill-rule="evenodd" clip-rule="evenodd" fill="#FEFEFE" d="M492.142,113.47c-5.901,6.415-11.604,12.615-17.611,19.143
			c-2.047-2.896-6.321-3.372-6.08-7.834c0.049-0.9-1.323-0.543-2.031-0.748c-5.456-1.573-8.962-5.603-9.364-10.848
			c-0.462-6.013,3.033-11.76,8.701-14.311c5.011-2.254,11.665-1.643,14.489,2.694C483.359,106.352,488.259,108.97,492.142,113.47z"
			/>
		<path fill-rule="evenodd" clip-rule="evenodd" fill="#FEFEFD" d="M190.387,49.33c-3.103,1.631-5.705,2.999-8.56,4.499
			c4.9,9.75,9.696,19.291,14.6,29.047c-2.619,1.97-5.457,3.139-8.656,4.676c-5.014-9.833-9.946-19.503-14.909-29.236
			c-2.911,1.447-5.548,2.758-8.328,4.141c-2.059-2.024-2.764-4.749-4.317-7.601c8.71-4.439,17.204-8.769,25.875-13.188
			C188.267,43.811,189.017,46.481,190.387,49.33z"/>
		<path fill-rule="evenodd" clip-rule="evenodd" fill="#FDFDFD" d="M136.618,119.924c-7.213-0.024-13.438-6.242-13.333-13.317
			c0.122-8.182,8.846-16.498,17.141-16.339c7.281,0.139,13.336,6.253,13.306,13.437
			C153.697,111.887,145.186,119.953,136.618,119.924z"/>
		<path fill-rule="evenodd" clip-rule="evenodd" fill="#FDFDFD" d="M376.06,574.509c-1.329,0.451-2.389,0.919-3.497,1.169
			c-6.593,1.481-13.197,2.912-20.068,4.42c-0.85-3.605-1.669-6.946-2.422-10.303c-2.235-9.973-4.445-19.951-6.667-29.937
			c3.01-1.52,6.002-1.709,9.431-2.55c2.425,10.519,4.855,21.065,7.377,32.006c4.537-0.957,8.844-1.866,13.243-2.794
			C375.547,568.729,374.584,571.895,376.06,574.509z"/>
		<path fill-rule="evenodd" clip-rule="evenodd" fill="#FDFDFD" d="M324.92,54.002c-4.959,6.776-13.337,8.604-20.359,4.663
			c-6.041-3.39-8.714-10.828-6.152-17.114c2.697-6.617,10.561-10.161,17.856-8.045c6.864,1.99,10.198,7.425,9.031,15.098
			c-5.983,0.646-12.029-1.203-18.137-0.385c2.287,5.772,5.401,6.391,11.439,2.282C320.633,51.628,322.761,52.807,324.92,54.002z"/>
		<path fill-rule="evenodd" clip-rule="evenodd" fill="#FDFDFD" d="M167.939,76.379c-0.895,1.921-3.192,2.021-4.287,4.092
			c3.088,4.843,6.272,9.834,9.576,15.015c-1.911,2.434-4.678,3.53-7.537,5.359c-3.383-5.125-6.71-10.167-10.004-15.157
			c-1.362-0.192-2.183,0.819-3.23,1.184c-1.647-1.54-2.568-3.5-3.612-5.237c0.04-1.512,1.753-1.574,2.169-3.054
			c-2.978-4.998-7.167-10.065-4.094-16.677c1.647-3.546,4.773-5.077,10.557-5.799c0.958,2.08,1.031,4.374,1.373,6.439
			c-0.802,1.867-3.333,1.267-3.841,3.64c0.487,2.648,2.552,4.855,4.266,7.548c1.59-0.897,3.098-1.748,4.985-2.812
			C165.496,72.754,166.745,74.607,167.939,76.379z"/>
		<path fill-rule="evenodd" clip-rule="evenodd" fill="#FDFCFC" d="M498.849,503.874c-2.183,2.782-4.555,4.767-7.17,6.733
			c-0.803-0.766-1.54-1.405-2.205-2.112c-8.724-9.284-17.438-18.578-26.141-27.855c2.092-2.675,4.502-4.668,7.13-6.83
			C479.879,483.782,489.195,493.65,498.849,503.874z"/>
		<path fill-rule="evenodd" clip-rule="evenodd" fill="#FCFCFC" d="M259.585,539.116c3.39,1.3,6.485,0.456,9.694,2.176
			c-2.034,13.41-4.083,26.922-6.188,40.795c-3.363-0.524-6.239-0.974-9.712-1.516C255.423,566.912,257.441,553.434,259.585,539.116z
			"/>
		<path fill-rule="evenodd" clip-rule="evenodd" fill="#FCFCFC" d="M479.86,138.413c6.632-5.573,13.111-11.018,19.569-16.445
			c5.504,4.883,5.854,5.489,4.79,8.737c4.968,0.715,8.375,3.336,9.545,8.637c-2.147,1.94-5.254,1.242-7.272,2.504
			c-1.78-0.286-1.465-1.62-1.936-2.409c-2.599-4.354-5.226-4.902-9.291-1.68c-2.993,2.373-5.878,4.882-9.027,7.511
			C483.345,143.724,481.983,140.872,479.86,138.413z"/>
		<path fill-rule="evenodd" clip-rule="evenodd" fill="#6172B6" d="M253.964,460.771c-2.634-0.258-5.085-0.942-6.953-2.984
			c-1.341-1.876-1.402-4.053-1.38-6.217c0.237-23.112-9.682-42.264-24.047-59.295c-13.353-15.831-30.013-27.194-49.958-33.474
			c-6.408-2.018-12.957-2.914-19.604-3.489c-2.449-0.211-5.558,0.364-6.084-3.425c3.042-3.483,6.729-6.03,11.078-7.613
			c25.76,3.206,47.685,14.806,65.924,32.596c16.948,16.53,29.002,36.42,32.743,60.382
			C256.914,445.139,257.448,453.146,253.964,460.771z"/>
		<path fill-rule="evenodd" clip-rule="evenodd" fill="#6476B9" d="M145.938,351.888c1.196,1.622,2.89,2.11,4.801,2.11
			c13.414-0.001,25.679,4.273,37.516,10.111c15.797,7.792,28.62,19.256,39.175,33.116c8.475,11.13,14.542,23.609,17.943,37.331
			c1.908,7.697,1.552,15.457,1.639,23.23c-3.243-2.011-4.188-5.382-5.042-8.742c-0.813-3.199-1.5-6.437-2.11-9.682
			c-0.917-4.882-3.044-9.035-6.939-12.203c-9.794-23.354-25.671-41.261-47.88-53.51c-11.502-6.344-23.809-10.014-36.877-11.178
			c-0.994-0.089-1.992-0.102-2.918-0.538c-0.413-1.866-0.941-3.717-1.207-5.604C143.786,354.548,143.886,352.758,145.938,351.888z"
			/>
		<path fill-rule="evenodd" clip-rule="evenodd" fill="#4757A6" d="M208.995,272.998c-0.095-1.427,0.305-2.738,0.935-3.996
			c2.484-2.062,5.379-1.433,8.136-1.07c26.027,3.431,48.467,14.585,68.143,31.711c23.908,20.812,39.653,46.438,44.687,77.904
			c3.184,19.905,0.578,39.391-7.655,57.959c-0.749,1.689-1.662,3.264-3.235,4.342c-0.895,0.11-1.432-0.48-1.996-1.017
			c-1.403-2.179-0.205-4.19,0.488-6.174c12.059-34.538,6.585-66.782-12.657-97.241c-1.156-1.83-2.298-3.669-4.059-5.002
			c-3.312-4.313-5.517-9.346-9.132-13.51c-4.335-4.992-10.186-7.841-15.307-11.719c-4.863-6.641-11.957-10.387-18.839-14.34
			c-13.904-7.986-28.479-14.141-44.668-15.682C212.032,274.993,210.202,274.623,208.995,272.998z"/>
		<path fill-rule="evenodd" clip-rule="evenodd" fill="#3D4EA1" d="M253.182,256.55c3.775,1.733,7.633,2.878,11.823,1.672
			c35.994,15.65,61.878,41.337,76.399,77.916c4.978,12.539,7.814,25.734,7.942,39.361c0.019,1.986,0.141,4.021-1.275,5.699
			c-1.583,0.961-3.339,0.783-5.07,0.768c-1.296-1.305-1.288-2.983-1.377-4.653c-1.602-30.271-14.182-55.669-34.443-77.671
			c-12.322-13.379-26.504-24.232-43.195-31.589c-14.563-6.42-29.564-11.08-45.759-10.719c-3.062,0.068-6.367,0.919-9.143-1.335
			c-0.3-0.988-0.381-1.985-0.113-2.995c1.457-1.328,3.263-1.478,5.107-1.539c12.662-0.422,25.17,0.301,37.156,4.95
			C251.863,256.658,252.519,256.692,253.182,256.55z"/>
		<path fill-rule="evenodd" clip-rule="evenodd" fill="#5F70B5" d="M253.964,460.771c-0.376-5.26,1.438-10.317,1.125-15.642
			c-0.833-14.183-5.122-27.219-11.996-39.518c-5.029-8.998-11.271-17.135-17.986-24.899c-4.463-5.161-9.978-9.23-15.42-13.261
			c-14.995-11.104-31.572-18.683-50.167-21.42c-1.229-0.181-2.352-0.19-2.504-1.758c2.853-1.702,5.885-2.998,9.048-3.998
			c14.211,2.137,27.104,7.717,39.321,15.06c4.972,2.987,9.305,7.022,14.864,9.043c1.131,0.416,1.948,1.239,2.573,2.208
			c4.066,6.297,9.196,11.516,15.528,15.554c1.115,0.711,2.05,1.652,2.375,3.031c0.703,3.196,2.818,5.623,4.589,8.198
			c7.444,10.825,12.12,22.842,15.316,35.475c2.376,9.392,0.958,18.779-0.524,28.132c-0.239,1.513-0.915,2.837-2.103,3.856
			C256.653,461.058,255.305,461.104,253.964,460.771z"/>
		<path fill-rule="evenodd" clip-rule="evenodd" fill="#3B4B9C" d="M348.071,381.198c0.291-21.337-4.845-41.333-15.025-60.032
			c-5.404-9.926-11.895-19.049-19.637-27.377c-12.847-13.82-27.734-24.656-44.827-32.555c-1.412-0.652-3.355-0.866-3.577-3.012
			c1.993-1.083,3.986-2.166,5.979-3.249c11.159,4.179,21.071,10.553,30.435,17.753c18.686,14.368,33.114,32.264,41.989,54.124
			c6.195,15.259,10.73,31.099,9.956,47.918c-0.099,2.128,0.329,4.377-1.364,6.153C350.69,381.014,349.381,381.105,348.071,381.198z"
			/>
		<path fill-rule="evenodd" clip-rule="evenodd" fill="#181F40" d="M363.968,151.122c2.246,1.242,3.181,3.672,4.885,5.423
			c4.477,4.597,9.656,6.878,16.12,5.681c3.263,3.077,7.359,4.951,10.939,7.583c7.585,5.576,14.471,11.914,20.937,18.905
			c0.287-1.622-0.246-3.378,1.919-3.689c-1.204,10.201,3.726,16.684,12.592,20.782c1.896,6.805,6.581,12.28,8.976,18.869
			c1.132,3.117,2.754,6.058,3.565,9.308c-0.661,2.407-2.379,3.208-4.7,3.091c-2.695,1.158-3.057-1.056-3.756-2.659
			c-4.268-9.791-9.284-19.2-15.448-27.901c-12.119-17.108-27.639-30.278-46.119-40.323c-11.286-6.134-23.419-9.325-35.487-13.007
			c-1.804-0.55-4.592-0.225-4.498-3.432c0.239-2.707,1.743-4.47,4.15-5.56C346.93,145.581,355.355,148.7,363.968,151.122z"/>
		<path fill-rule="evenodd" clip-rule="evenodd" fill="#4152A4" d="M340.309,383.167c-1.08,0.953-2.16,1.906-3.24,2.859
			c-3.835,1.198-3.141-2.017-3.404-3.786c-1.25-8.377-2.098-16.829-4.773-24.924c-5.869-17.765-15.02-33.569-27.505-47.593
			c-14.796-16.619-32.604-28.653-53.075-37.077c-10.925-4.495-22.429-5.933-33.994-7.242c-2.716-0.307-5.711-0.334-4.514-4.537
			c4.412-2.354,9.21-1.562,13.677-0.933c46.65,6.565,80.204,32.009,102.641,72.652c7.863,14.243,12.071,29.881,13.252,46.205
			C339.482,380.321,340.18,381.672,340.309,383.167z"/>
		<path fill-rule="evenodd" clip-rule="evenodd" fill="#1A2144" d="M333.892,149.753c4.495,2.886,9.684,3.966,14.729,5.105
			c8.138,1.838,15.567,5.143,22.999,8.817c9.09,4.494,17.505,9.842,25.325,16.264c10.8,8.869,20.223,18.908,27.483,30.909
			c4.951,8.183,9.81,16.403,13.021,25.475c0.242,0.685,1.118,0.602,1.751,0.751c-2.264,1.326-4.754,0.951-7.192,0.958
			c-1.441-1.214-2.235-2.829-3.027-4.507c-18.663-39.544-49.129-64.679-91.703-74.987c-1.442-0.35-3.01-0.319-4.12-1.54
			C333.049,154.547,332.333,152.035,333.892,149.753z"/>
		<path fill-rule="evenodd" clip-rule="evenodd" fill="#5D6EB4" d="M258.003,460.833c2.3-7.485,1.968-15.32,2.611-22.98
			c0.339-4.04-1.168-8.366-2.329-12.509c-3.605-12.872-9.265-24.69-16.986-35.581c-0.936-1.32-3.528-2.685-0.996-4.868
			c8.088,1.64,16.301,2.447,24.453,3.647c0.439,0.393,0.59,0.88,0.454,1.452c-1.988,2.21-5.178,0.674-7.346,2.117
			c-0.592,2.442,0.858,4.03,1.789,5.718c6.872,12.472,10.736,25.83,11.485,40.017c0.254,4.81-0.667,9.625-1.725,14.344
			c-0.584,2.605-1.209,5.191-1.261,7.876C264.884,461.851,261.4,460.766,258.003,460.833z"/>
		<path fill-rule="evenodd" clip-rule="evenodd" fill="#1C2349" d="M334.188,165.994c-0.333-2.655-0.666-5.311-0.999-7.966
			c27.346,6.219,51.027,19.049,70.502,39.333c9.774,10.181,17.363,21.921,23.586,34.541c1.119,2.269,2.397,4.343,4.022,6.242
			c-1.934,1.175-4.076,0.909-6.182,0.9c-3.138,1.488-4.061-0.837-5.151-2.956c-7.134-13.849-16.02-26.335-27.32-37.208
			c-15.334-14.754-33.302-24.641-53.53-30.726c-1.272-0.382-2.596-0.599-3.8-1.202C334.913,166.667,334.537,166.346,334.188,165.994
			z"/>
		<path fill-rule="evenodd" clip-rule="evenodd" fill="#3F50A2" d="M209.083,255.998c13.64-0.442,27.018,0.559,40.182,4.836
			c16.943,5.504,32.495,13.587,45.875,25.124c13.598,11.724,25.315,25.181,33.746,41.426c7.104,13.688,11.712,27.989,13.959,43.115
			c0.558,3.747,0.13,7.641,0.155,11.467l-0.295,0.231l-0.373-0.041c-2.886,0.312-3.166-1.637-3.315-3.765
			c-1.439-20.494-7.936-39.377-19.133-56.467c-21.232-32.405-50.471-53.378-88.904-60.744c-6.732-1.29-13.528-1.467-20.352-1.04
			c-0.51,0.204-0.995,0.154-1.454-0.148C209.145,258.661,209.114,257.33,209.083,255.998z"/>
		<path fill-rule="evenodd" clip-rule="evenodd" fill="#5262AD" d="M157.854,304.058c-2.345-2.361-3.657-4.966-1.959-8.283
			c1.999-0.083,3.925-0.52,5.848-1.06c20.737-5.82,41.011-4.1,60.792,4.041c5.01,2.062,10.389,3.58,14.385,7.624
			c-0.667,5.604-5.271,6.841-9.474,8.533c-2.94-0.106-5.292-1.785-7.818-2.974c-18.021-8.48-36.708-12.015-56.471-7.697
			C161.378,304.631,159.587,305.113,157.854,304.058z"/>
		<path fill-rule="evenodd" clip-rule="evenodd" fill="#29356D" d="M395.075,285.029c-2.554,1.541-5.121,2.947-8.072,0.895
			c-3.854-4.709-5.298-10.671-8.285-15.858c-16.974-29.47-41.14-50.114-73.575-60.861c-3.427-1.136-7.195-1.577-10.013-4.208
			c-0.041-1.402-0.597-2.858,0.436-4.147c2.14-1.255,4.228-0.319,6.25,0.275c16.528,4.86,31.93,12.016,45.665,22.548
			c1.826,1.4,3.483,3.111,5.866,3.622c3.595,2.359,7.522,4.253,10.559,7.418c1.832,5.033,6.436,7.905,9.538,11.96
			c7.2,9.413,13.821,19.039,17.959,30.218C392.438,279.687,394.246,282.138,395.075,285.029z"/>
		<path fill-rule="evenodd" clip-rule="evenodd" fill="#4D5DAA" d="M184.029,279.893c1.723-0.297,3.269,0.371,4.82,0.93
			c5.702,2.057,11.056,1.487,16.038-2.045c17.683,2.138,34.063,8.058,49.326,17.131c1.911,1.136,4.191,2.451,2.928,5.468
			c-3.341,2.591-7.28,2.575-11.216,2.589c-9.353-5.53-19.373-9.477-29.772-12.541c-17.384-5.121-34.727-5.212-52.075,0.214
			c-2.104,0.658-4.313,2.153-6.562,0.228c1.058-2.62,2.355-5.095,4.307-7.178C168.99,282,176.419,280.53,184.029,279.893z"/>
		<path fill-rule="evenodd" clip-rule="evenodd" fill="#4454A5" d="M209.175,259.993c0.275,0.002,0.551,0.004,0.826,0.005
			c0.251,0.216,0.338,0.436,0.26,0.659c-0.078,0.225-0.158,0.337-0.24,0.337c-0.295,2.516,1.079,2.889,3.273,3.068
			c8.2,0.668,16.377,1.547,24.368,3.704c15.216,4.107,28.908,11.326,41.798,20.22c5.863,4.045,11.426,8.591,16.365,13.602
			c8.105,8.223,15.605,17.068,21.542,27.109c4.567,7.724,8.45,15.762,11.538,24.166c2.677,7.287,4.432,14.833,5.064,22.589
			c0.255,3.129,1.348,6.13,1.206,9.322c-0.041,0.911,1.044,1.142,1.892,1.252c-0.685,1.295-1.188,2.764-2.928,3.042
			c-3.098-0.248-2.917-2.896-3.031-4.775c-1.427-23.462-10.597-43.947-24.256-62.592c-16.778-22.903-38.796-38.944-65.582-48.25
			c-9.041-3.141-18.436-5.132-28.087-5.46c-1.182-0.04-2.334-0.088-3.24-0.992C209.291,264.708,208.975,262.379,209.175,259.993z"/>
		<path fill-rule="evenodd" clip-rule="evenodd" fill="#5060AB" d="M157.516,291.866c5.582-0.734,10.684-3.245,16.293-4.1
			c8.69-1.324,17.184-2.011,26.063-0.999c14.051,1.602,26.941,6.281,39.653,11.965c2.482,1.11,4.362,2.979,6.625,4.333
			c-2.071,3.315-5.058,4.617-8.896,4.05c-7.291-3.496-14.489-7.185-22.245-9.627c-18.297-5.761-36.616-6.671-55.064-0.668
			c-1.257,0.409-3.577,2.554-4.05-1.046C155.761,294.192,156.521,292.98,157.516,291.866z"/>
		<path fill-rule="evenodd" clip-rule="evenodd" fill="#4A5AA8" d="M257.001,300.982c-0.193-3.149-3.07-3.799-5.057-4.909
			c-13.076-7.301-26.875-12.702-41.746-15.095c-1.926-0.31-3.927-0.539-5.311-2.201c1.369-1.926,2.738-3.853,4.107-5.78
			c14.273,1.396,28.054,4.876,40.732,11.54c9.035,4.749,18.509,9.035,25.835,16.539c1.023,1.048,2.387,1.894,2.448,3.606
			c-1.012,0.959-2.234,0.682-3.272,0.289C269.007,302.804,262.603,303.673,257.001,300.982z"/>
		<path fill-rule="evenodd" clip-rule="evenodd" fill="#5A6BB2" d="M268.152,460.065c-1.302-0.172-2.183-0.474-1.619-2.204
			c1.739-5.335,2.387-10.9,3.178-16.426c0.688-4.805-0.547-9.519-1.227-14.188c-1.584-10.874-5.653-20.955-11.095-30.488
			c-0.82-1.436-1.485-2.965-2.135-4.488c-0.174-0.406-0.026-0.95-0.026-1.676c3.241-1.143,6.553-0.326,9.772-0.59
			c1.46,0.696,2.138,2.059,2.813,3.392c7.915,15.618,12.401,31.924,9.85,49.618c-0.145,1.004-0.262,1.975,0.142,2.937
			c-0.62,3.973-1.58,7.85-4.206,11.02C272.221,458.635,270.54,460.045,268.152,460.065z"/>
		<path fill-rule="evenodd" clip-rule="evenodd" fill="#6779BB" d="M145.243,361.935c2.55-1.83,5.068-0.133,7.624-0.036
			c7.719,0.293,14.836,2.773,21.889,5.521c15.347,5.978,28.433,15.35,39.48,27.433c7.73,8.454,13.881,18.072,18.543,28.593
			c0.565,1.274,1.019,2.44,0.139,3.716c-1.973-0.73-3.946-1.462-5.918-2.193c-2.196-1.718-2.986-4.337-4.283-6.639
			c-14.947-26.511-37.242-43.141-66.96-49.826c-3.216-0.724-7.17,1.338-9.589-2.471C145.859,364.666,145.551,363.3,145.243,361.935z
			"/>
		<path fill-rule="evenodd" clip-rule="evenodd" fill="#2B3874" d="M374.977,272.071c-2.868-3.064-5.944-5.843-10.003-7.269
			c-2.305-1.123-3.883-2.998-5.466-4.957c-9.459-11.702-20.255-21.97-33.184-29.775c-3.812-2.301-7.081-5.459-11.31-7.076
			c-5.118-2.141-10.259-4.23-15.347-6.442c-3.242-1.41-5.553-3.534-4.729-7.553c2.118-1.506,4.23-0.38,6.188,0.243
			c16.662,5.305,31.59,13.8,45.187,24.742c10.86,8.74,19.473,19.441,27.163,30.94C374.872,267.015,377.039,269.16,374.977,272.071z"
			/>
		<path fill-rule="evenodd" clip-rule="evenodd" fill="#5D6EB4" d="M220.159,364.67c-0.556,1.141-1.286,1.34-2.365,0.581
			c-2.441-1.718-4.937-3.357-7.39-5.059c-12.509-8.677-26.121-14.867-41.019-18.107c-1.363-0.296-2.604-0.479-3.322-1.809
			c3.259-1.753,5.787-4.3,7.911-7.285c1.405-1.308,3.066-1.139,4.702-0.708c13.612,3.583,26.389,8.985,37.764,17.429
			C218.241,354.557,220.746,359.23,220.159,364.67z"/>
		<path fill-rule="evenodd" clip-rule="evenodd" fill="#4555A5" d="M209.945,267c14.594,0.071,28.336,3.729,41.776,9.255
			c16.513,6.789,30.801,16.851,43.234,29.366c18.376,18.496,30.481,40.665,35.775,66.294c0.719,3.484,1.649,7.081,1.318,10.798
			c-0.207,2.32,0.347,4.583,2.092,6.355c-0.866,3.538-1.229,7.111-0.736,10.742c0.167,11.934-2.981,23.146-7.426,34.072
			c-0.939,2.309-1.991,4.553-3.979,6.19c-0.7,0.235-1.359,0.109-1.995-0.225c2.34-6.697,5.77-12.973,7.216-20.027
			c2.387-11.642,4.321-23.097,3.05-35.245c-1.579-15.076-5.522-29.188-12.322-42.558c-4.962-9.758-11.316-18.594-18.337-27.049
			c-13.532-16.296-30.45-27.889-49.366-36.821c-9.167-4.328-18.953-6.655-28.962-8.274c-3.804-0.616-7.549-0.839-11.352-0.873
			C209.935,268.334,209.94,267.667,209.945,267z"/>
		<path fill-rule="evenodd" clip-rule="evenodd" fill="#1D264D" d="M335.001,166c10.561,1.775,20.174,6.128,29.528,11.072
			c7.305,3.861,14.369,8.119,20.735,13.483c8.51,7.169,16.273,15.009,22.995,23.9c5.409,7.155,9.701,14.959,13.663,22.95
			c0.813,1.64,1.926,1.505,3.195,1.639c-1.512,1.108-3.264,1.013-4.999,1.002c-3.022,1.113-3.615-1.463-4.596-3.176
			c-4.429-7.738-8.901-15.438-14.688-22.28c-2.452-2.899-4.858-5.837-8.265-7.708c-1.758-1.159-2.507-3.068-3.519-4.775
			c-3.361-5.67-9.158-7.997-14.671-10.723c-5.898-6.377-13.764-9.625-21.367-13.2c-4.624-2.174-9.333-4.365-14.345-5.464
			C334.513,171.809,333.666,169.636,335.001,166z"/>
		<path fill-rule="evenodd" clip-rule="evenodd" fill="#2A3770" d="M374.977,272.071c0.247-1.763-0.41-3.302-1.337-4.699
			c-6.246-9.403-12.835-18.641-21.17-26.246c-16.614-15.157-35.356-26.791-57.531-32.127c-0.342-1.354-0.143-2.682,0.191-4.003
			c12.325,2.925,23.987,7.571,35.024,13.746c12.123,6.782,22.609,15.667,31.911,25.902c6.343,6.979,12.11,14.443,16.666,22.767
			c3.256,5.95,6.507,11.897,8.271,18.512c-4.122-1.601-5.741-5.637-8.367-8.679C377.262,275.654,376.187,273.804,374.977,272.071z"
			/>
		<path fill-rule="evenodd" clip-rule="evenodd" fill="#4A59A8" d="M301.956,329.013c4.747,2.79,6.504,7.89,9.049,12.244
			c7.855,13.447,13.386,27.968,14.728,43.447c1.242,14.345,1.054,28.881-3.996,42.805c-1.354,3.734-2.491,7.547-3.729,11.323
			c-1.274-0.264-2.107-1.165-2.954-2.047c-0.955-2.789,0.49-5.212,1.262-7.701c8.29-26.771,4.145-52.181-8.317-76.69
			c-0.98-1.929-2.36-3.607-3.637-5.351C303.637,341.023,300.717,335.294,301.956,329.013z"/>
		<path fill-rule="evenodd" clip-rule="evenodd" fill="#5465AE" d="M157.854,304.058c21.277-6.119,41.646-3.053,61.424,6.053
			c2.988,1.376,5.704,3.37,9.021,4.006c-0.593,3.675-2.437,6.306-6.158,7.377c-5.644-1.534-10.732-4.447-16.166-6.525
			c-12.213-4.672-24.785-6.257-37.749-5.421c-1.806,0.116-3.656,0.571-5.358-0.495C160.902,307.684,159.168,306.081,157.854,304.058
			z"/>
		<path fill-rule="evenodd" clip-rule="evenodd" fill="#5A6BB2" d="M215.917,349.997c-5.83-3.088-11.549-6.41-17.516-9.205
			c-7.779-3.644-15.738-6.915-24.426-7.801c1.164-3.646,1.365-7.302,0.128-10.976c1.219-0.742,2.576-0.59,3.86-0.423
			c14.432,1.874,27.531,7.26,39.674,15.158C217.269,341.194,218.667,345.866,215.917,349.997z"/>
		<path fill-rule="evenodd" clip-rule="evenodd" fill="#4051A3" d="M210.022,260.993c-0.014-0.332-0.021-0.664-0.021-0.996
			c5.098-2.191,10.536-1.398,15.601-0.741c15.174,1.969,29.746,6.305,43.256,13.699c15.69,8.588,29.568,19.337,41.034,33.259
			c10.879,13.21,19.474,27.595,24.604,43.916c2.868,9.127,5.589,18.351,5.489,28.081c-0.02,1.853,0.5,3.262,2.347,3.944
			c-0.452,0.784-1.227,0.921-2.024,1.011c-1.825-0.708-2.241-2.13-2.338-3.965c-0.832-15.747-5.222-30.63-12.261-44.58
			c-8.748-17.337-20.955-32.001-35.925-44.518c-17.575-14.696-37.642-23.629-59.954-28.016
			C223.258,260.795,216.641,261.059,210.022,260.993z"/>
		<path fill-rule="evenodd" clip-rule="evenodd" fill="#5363AD" d="M305.013,429.668c-2.01-1.208-4.019-2.416-6.028-3.624
			c-2.655-3.671-1.484-8.029-1.849-12.015c-0.99-10.813-3.751-21.076-7.888-31.04c-0.443-1.065-0.83-2.157-0.954-3.321
			c1.204-4.29,3.34-7.587,8.37-7.773c1.682,0.946,2.614,2.51,3.316,4.206c5.628,13.598,9.19,27.641,8.366,42.475
			C308.132,422.427,308.185,426.598,305.013,429.668z"/>
		<path fill-rule="evenodd" clip-rule="evenodd" fill="#1B2246" d="M431.3,238.144c-2.103,0.118-3.372-0.844-4.13-2.826
			c-4.066-10.641-10.415-19.974-17.332-28.862c-12.441-15.988-28.295-27.864-46.434-36.666c-7.738-3.755-15.761-6.936-24.231-8.766
			c-2.261-0.488-4.556-0.864-5.983-2.996c-0.011-0.343-0.021-0.687-0.032-1.03c3.037-0.415,5.965,0.367,8.795,1.173
			c17.331,4.935,33.654,12.119,47.846,23.364c13.721,10.872,25.276,23.749,34.074,39.024c3.232,5.612,6.23,11.272,8.136,17.473
			l-0.323,0.251L431.3,238.144z"/>
		<path fill-rule="evenodd" clip-rule="evenodd" fill="#4C5CA9" d="M305.032,346.999c4.779,2.65,5.8,7.8,7.829,12.17
			c4.692,10.107,7.594,20.858,8.846,31.859c0.991,8.704,0.806,17.584-0.953,26.284c-1.344,6.647-3.04,13.205-5.7,19.473
			c-1.274-0.331-2.191-1.174-3.036-2.121c-1.031-1.402-0.532-2.876-0.122-4.297c7.445-25.778,4.006-50.313-8.393-73.831
			c-0.234-0.444-0.381-0.921-0.541-1.397C302.502,352.134,302.487,349.239,305.032,346.999z"/>
		<path fill-rule="evenodd" clip-rule="evenodd" fill="#5667AF" d="M162.869,309.052c8.348-1.646,16.69-1.435,25.088-0.244
			c12.446,1.764,23.831,6.441,34.864,12.184c0.79,3.701-0.866,6.138-4.027,7.803c-2.483,0.262-4.463-1.088-6.525-2.107
			c-13.089-6.474-26.733-10.828-41.489-11.02c-0.675-0.009-1.295-0.253-1.853-0.639
			C166.649,313.298,164.584,311.352,162.869,309.052z"/>
		<path fill-rule="evenodd" clip-rule="evenodd" fill="#5060AC" d="M305.013,429.668c1.392-6.278,2.612-12.605,1.956-19.06
			c-1.389-13.645-4.027-26.961-11.154-38.977c0.434-5.146,1.966-7.089,6.025-7.639c1.94,1.221,2.946,3.155,3.773,5.16
			c7.247,17.574,10.377,35.743,7.537,54.691c-0.484,3.228-0.888,6.612-3.189,9.273C308.074,432.309,306.472,431.091,305.013,429.668
			z"/>
		<path fill-rule="evenodd" clip-rule="evenodd" fill="#697CBC" d="M224.983,424.906c-0.952,0.049-1.903,0.098-2.855,0.146
			c-3.361,1.208-3.932-1.825-4.948-3.58c-5.025-8.679-11.143-16.436-18.362-23.397c-4.458-4.3-9.621-7.584-14.651-11.082
			c-3.212-4.553-8.056-6.046-13.173-7.026c-5.544-2.131-11.248-3.688-17.07-4.85c-2.076-0.414-4.291-0.538-5.969-2.115
			c-0.814-1.216-1.159-2.544-0.963-4.002c2.591-1.808,5.506-1.215,8.179-0.673c27.269,5.53,48.227,20.566,63.889,43.206
			C221.808,415.507,224.797,419.663,224.983,424.906z"/>
		<path fill-rule="evenodd" clip-rule="evenodd" fill="#39499A" d="M352,380.921c0.132-9.442,0.008-18.844-1.954-28.165
			c-4.044-19.209-11.515-36.829-23.349-52.586c-13.705-18.249-30.983-32.057-51.408-42.063c-1.599-0.784-3.535-1.181-4.305-3.133
			c0.433-0.904,1.074-1.61,1.97-2.073c31.982,14.448,55.436,37.681,71.141,68.94c0.839,1.671,0.712,3.595,1.766,5.144
			c-0.436,5.115,1.41,9.276,5.271,12.594c5.233,12.236,5.599,25.149,5.268,38.153c-0.03,1.184-0.51,2.265-1.399,3.111
			C354.001,380.868,353,380.895,352,380.921z"/>
		<path fill-rule="evenodd" clip-rule="evenodd" fill="#5869B1" d="M168.927,315.028c6.959-2.163,13.603,0.271,20.247,1.626
			c8.412,1.717,16.324,4.995,23.977,8.895c1.888,0.962,3.649,2.304,5.886,2.461c1.299,3.245,0.06,5.77-2.267,7.984
			c-2.043,1.359-3.5-0.354-4.958-1.148c-11.114-6.052-22.53-11.124-35.411-11.923c-0.782-0.049-1.533-0.594-2.298-0.907
			C172.771,319.395,170.594,317.4,168.927,315.028z"/>
		<path fill-rule="evenodd" clip-rule="evenodd" fill="#596AB1" d="M277.806,445.951c-1.186-1.042-0.852-2.455-0.783-3.722
			c0.967-17.709-2.909-34.306-11.312-49.889c-0.378-0.702-0.48-1.554-0.71-2.336c0.004-0.266,0.006-0.532,0.007-0.798
			c2.191-2.384,4.902-2.623,7.847-1.91c3.828,2.826,5.052,7.24,6.615,11.346c3.6,9.457,5.668,19.296,6.582,29.375
			C279.921,432.44,279.547,439.51,277.806,445.951z"/>
		<path fill-rule="evenodd" clip-rule="evenodd" fill="#4D5DAA" d="M309.961,433.118c1.238-6.475,2.009-13.013,2.768-19.558
			c0.252-2.167,0.416-4.329,0.208-6.454c-1.096-11.193-2.784-22.253-6.916-32.841c-1.455-3.729-2.911-7.386-5.225-10.662
			c-0.861-3.598-0.108-6.612,3.155-8.718c6.659,10.162,9.691,21.619,12.088,33.343c1.719,8.408,0.991,16.882,0.842,25.305
			c-0.13,7.278-2.458,14.264-4.862,21.131C311.17,434.364,310.385,433.982,309.961,433.118z"/>
		<path fill-rule="evenodd" clip-rule="evenodd" fill="#6C7FBE" d="M184.167,386.993c5.848,0.723,9.636,4.946,13.671,8.468
			c8.688,7.582,15.626,16.657,21.242,26.734c0.708,1.27,1.112,2.887,3.047,2.857c-2.618,1.37-5.235,2.74-7.853,4.11
			c-2.538,0.445-2.866-1.805-3.723-3.214c-5.969-9.815-12.423-19.198-21.919-26.048c-1.346-0.971-2.705-2.093-1.721-4.112
			C186.322,392.756,185.552,389.778,184.167,386.993z"/>
		<path fill-rule="evenodd" clip-rule="evenodd" fill="#5767B0" d="M286.052,428.018c-1.393-0.105-1.988-0.835-2.055-2.251
			c-0.637-13.609-4.857-26.182-11.126-38.153c2.493-3.041,5.58-4.611,9.602-3.889c5.031,6.259,6.19,14.059,8.425,21.418
			c0.813,2.676,1.271,5.463,1.501,8.271c0.373,4.549,0.77,9.093,4.558,12.386C293.131,425.596,289.479,426.252,286.052,428.018z"/>
		<path fill-rule="evenodd" clip-rule="evenodd" fill="#7083C1" d="M186.912,395.789c0.108,1.04,0.537,1.775,1.477,2.414
			c10.871,7.386,18.036,17.885,24.29,29.131c0.409,0.735,0.774,1.471,1.596,1.829c-2.074,2.073-4.586,3.512-7.114,4.93
			c-2.348,0.633-3.379-1.109-4.189-2.649c-4.604-8.754-10.887-16.111-18.305-22.569c-0.883-0.769-1.575-1.698-1.766-2.909
			C184.238,402.572,185.575,399.181,186.912,395.789z"/>
		<path fill-rule="evenodd" clip-rule="evenodd" fill="#7487C3" d="M182.9,405.965c8.644,6.563,15.727,14.465,20.667,24.186
			c0.848,1.668,1.811,3.161,3.594,3.942c-2.639,2.297-5.168,4.789-8.973,4.988c-2.309,1.014-3.488-0.565-4.298-2.179
			c-3.385-6.733-8.148-12.42-13.207-17.906c-1.106-1.2-2.354-2.391-1.855-4.306C179.578,411.498,181,408.62,182.9,405.965z"/>
		<path fill-rule="evenodd" clip-rule="evenodd" fill="#5465AF" d="M296.958,425.799c-1.167-1.503-3.253-0.214-4.789-1.675
			c-0.891-13.953-4.106-27.573-10.271-40.427c1.387-3.001,3.515-4.944,7.021-4.922c7.248,14.927,10.459,30.714,10.067,47.269
			C298.309,425.962,297.633,425.881,296.958,425.799z"/>
		<path fill-rule="evenodd" clip-rule="evenodd" fill="#273368" d="M395.075,285.029c-4.034-2.107-4.384-6.543-5.821-10.042
			c-3.938-9.585-9.383-18.159-15.923-26.073c-2.589-3.134-4.196-7.083-8.025-9.264c-1.521-0.867-2.229-2.839-2.261-4.783
			c2.929-1.623,5.712-0.249,8.529,0.403c12.669,14.053,22.123,30.036,28.585,47.808C398.86,284.759,396.46,283.571,395.075,285.029z
			"/>
		<path fill-rule="evenodd" clip-rule="evenodd" fill="#394999" d="M345.861,326.983c-3.876-4.555-5.941-10.181-8.874-15.283
			c-10.077-17.534-23.807-31.609-39.842-43.663c-6.001-4.511-12.642-7.839-19.332-11.117c-1.936-0.948-3.958-1.813-4.859-4.02
			c0.022-0.53,0.242-0.904,0.8-1.007c2.507-1.027,4.542,0.428,6.59,1.39c8.928,4.194,17.235,9.394,24.886,15.635
			c2.181,1.779,4.305,3.66,6.986,4.701c1.881,3.531,4.561,6.276,8.067,8.208c0.702,2.367,2.709,3.716,4.253,5.418
			c8.335,9.188,14.71,19.703,20.676,30.494c0.897,1.622,1.313,3.407,1.563,5.232C346.472,324.309,346.166,325.646,345.861,326.983z"
			/>
		<path fill-rule="evenodd" clip-rule="evenodd" fill="#212A56" d="M328.748,182.892c2.175-2.453,3.7-5.304,5.056-8.259
			c8.782,3.136,17.421,6.611,25.568,11.183c2.123,1.191,4.584,2.198,5.157,5.048c-1.577,3.853-5.357,4.359-8.61,5.674
			c-5.118-0.479-8.745-4.321-13.382-5.958c-3.387-1.196-6.53-3.052-9.957-4.226C330.859,185.765,329.228,184.927,328.748,182.892z"
			/>
		<path fill-rule="evenodd" clip-rule="evenodd" fill="#242E5F" d="M408.105,265.765c1.451,3.298,0.959,6.805,1.138,10.247
			c0.104,1.999-1.399,2.807-2.544,3.917c-2.68-0.421-3.095-2.786-3.774-4.709c-4.632-13.107-11.023-25.256-19.407-36.355
			c-1.299-1.72-2.66-3.474-2.039-5.89c0.904-1.728,2.203-2.803,4.28-2.577c2.302,0.838,3.731,2.697,5.032,4.592
			c6.545,9.537,12.934,19.167,16.234,30.439c0.187,0.638-0.132-0.148,0.209,0.416C407.422,266.155,407.828,266.059,408.105,265.765z
			"/>
		<path fill-rule="evenodd" clip-rule="evenodd" fill="#1E2750" d="M364.151,191.394c-1.38-2.716-4.123-3.712-6.533-5.074
			c-6.52-3.684-13.533-6.293-20.444-9.103c-1.452-0.59-2.801-0.987-3.37-2.583c0.128-2.88,0.256-5.759,0.385-8.639
			c0.271,0.001,0.542,0.003,0.813,0.006c0.124,1.452-0.309,2.966,0.439,4.335c12.786,3.52,24.635,8.995,35.765,16.13
			c1.802,1.155,2.86,2.619,3.799,4.355C371.484,192.864,367.847,192.672,364.151,191.394z"/>
		<path fill-rule="evenodd" clip-rule="evenodd" fill="#28346B" d="M353.094,227.753c-1.367,1.561-2.434,0.137-3.27-0.546
			c-16.002-13.093-34.322-21.38-54.258-26.357c0.624-1.977-0.152-4.265,1.348-6.046c2.72,1.965,5.792,3.01,9.031,3.833
			c15.736,3.997,30.066,10.988,43.143,20.587C351.246,221.678,352.74,224.448,353.094,227.753z"/>
		<path fill-rule="evenodd" clip-rule="evenodd" fill="#243062" d="M382.011,233.262c1.618,5.18,5.531,8.951,8.438,13.301
			c5.669,8.486,9.614,17.733,13.306,27.13c0.85,2.163,1.593,4.33,2.945,6.236c-0.636,1.728-2.734,0.883-3.67,2.084
			c-2.918,0.275-3.551-2.061-4.176-3.994c-4.377-13.538-11.238-25.726-19.748-37.056c-1.288-1.716-2.534-3.555-1.674-5.934
			C378.581,233.465,379.822,232.13,382.011,233.262z"/>
		<path fill-rule="evenodd" clip-rule="evenodd" fill="#2D3A77" d="M315.015,222.995c1.764-0.204,3.229,0.577,4.694,1.394
			c14.197,7.92,26.476,18.231,37.346,30.238c2.876,3.178,5.292,6.772,7.919,10.176c-2.324-0.272-4.649-0.544-6.974-0.817
			c-3.431-2.458-5.521-6.15-8.34-9.176c-8.087-8.68-17.568-15.627-26.981-22.688C320.831,228.485,318.366,225.369,315.015,222.995z"
			/>
		<path fill-rule="evenodd" clip-rule="evenodd" fill="#384895" d="M346.776,322.971c-3.185-4.971-5.512-10.415-8.84-15.335
			c-5.093-7.529-9.762-15.33-16.396-21.703c-0.976-0.937-3.911-1.836-1.256-4.107c2.229,0.358,4.458,0.717,6.688,1.075
			c7.262,5.753,11.788,13.66,16.453,21.377c2.611,4.32,5.793,8.479,6.563,13.724C348.919,319.658,347.848,321.314,346.776,322.971z"
			/>
		<path fill-rule="evenodd" clip-rule="evenodd" fill="#273268" d="M348.969,219.999c-4.783-0.915-7.873-4.73-11.803-7.085
			c-10.933-6.55-22.724-10.696-34.938-13.868c-2.462-0.639-4.989-1.01-5.314-4.242c-0.161-0.311-0.108-0.58,0.16-0.806
			c1.188-1.156,2.661-1.342,4.158-0.999c17.061,3.907,33.158,10.018,47.21,20.78C349.388,215.786,349.986,217.825,348.969,219.999z"
			/>
		<path fill-rule="evenodd" clip-rule="evenodd" fill="#324085" d="M345.041,278.266c7.252-2.05,8.941-1.401,12.879,5.129
			c2.123,3.521,4.217,7.063,6.209,10.658c3.003,5.417,2.583,7.63-2.057,11.985c-1.936,0.563-2.803-0.862-3.427-2.146
			c-3.78-7.775-8.174-15.181-13.029-22.325C344.958,280.599,344.581,279.479,345.041,278.266z"/>
		<path fill-rule="evenodd" clip-rule="evenodd" fill="#171D3D" d="M418.768,185.024c-1.552,1.478-0.22,3.551-1.087,5.235
			c-1.73-0.004-2.426-1.517-3.376-2.506c-8.5-8.846-17.654-16.864-28.475-22.8c-1.271-0.697-1.699-1.462-0.857-2.728
			c2.008-0.75,4.015-1.5,6.022-2.25c10.647,6.041,19.991,13.662,27.914,23.008C418.862,183.665,418.815,184.345,418.768,185.024z"/>
		<path fill-rule="evenodd" clip-rule="evenodd" fill="#171D3C" d="M443.9,233.983c-3.614-3.008-4.139-7.701-5.987-11.605
			c-2.037-4.3-4.558-8.302-6.693-12.524c-0.774-1.53-2.072-2.754,0.14-4.047c5.321,1.393,9.887,4.24,14.382,7.287
			c1.699,1.152,2.382,2.41,2.309,4.477C447.842,223.36,446.134,228.729,443.9,233.983z"/>
		<path fill-rule="evenodd" clip-rule="evenodd" fill="#697BBC" d="M224.983,424.906c-5.658-13.44-14.664-24.457-25.56-33.841
			c-10.225-8.807-21.798-15.448-34.942-19.171c-5.752-1.629-11.438-3.259-17.49-2.895c-0.472-0.935-0.992-1.856-0.824-2.969
			c3.485,2.178,7.45,0.634,11.197,1.49c14.611,3.341,28.179,9.063,39.616,18.638c12.736,10.661,24.67,22.278,30.02,38.808
			C226.328,424.947,225.655,424.927,224.983,424.906z"/>
		<path fill-rule="evenodd" clip-rule="evenodd" fill="#151A36" d="M396.933,155.822c1.486-1.523,3.182-2.758,5.098-3.688
			c8.525,4.782,16.168,10.693,22.829,17.858c-0.692,2.482-1.854,4.756-3.097,6.996c-2.467,1.789-4.091-0.053-5.534-1.521
			c-5.118-5.2-10.72-9.785-16.66-14.006C397.774,160.187,395.561,158.744,396.933,155.822z"/>
		<path fill-rule="evenodd" clip-rule="evenodd" fill="#151A33" d="M424.859,169.993c-3.329-0.373-4.806-3.424-7.011-5.243
			c-5.205-4.295-11.232-7.565-15.818-12.615c5.747-4.752,7.87-4.777,13.745-0.149c1.815,1.43,3.622,2.872,5.437,4.303
			C427.674,161.389,427.991,162.579,424.859,169.993z"/>
		<path fill-rule="evenodd" clip-rule="evenodd" fill="#263165" d="M378.004,235.095c-0.393,2.643,1.5,4.344,2.832,6.092
			c8.254,10.831,14.656,22.623,18.966,35.54c0.678,2.032,1.019,4.214,3.228,5.287c-0.739,0.939-1.756,1.134-2.87,1.065
			c-2.23-2.272-3.823-4.768-4.38-8.076c-0.496-2.944-2.825-5.194-4.173-7.84c-5.027-9.874-10.362-19.537-18.363-27.41
			c-1.054-1.037-1.328-2.24-1.24-3.617C373.758,234.372,375.688,233.618,378.004,235.095z"/>
		<path fill-rule="evenodd" clip-rule="evenodd" fill="#334289" d="M345.041,278.266c5.372,8.355,11.006,16.557,14.959,25.737
			c0.411,0.955,1.092,1.652,2.072,2.035c-1.012,1.665-2.413,2.937-4.037,3.98c-2.034,1.293-3.317-0.107-4.015-1.556
			c-4.351-9.024-9.899-17.29-15.662-25.435c-0.572-0.808-0.804-1.831-0.334-2.847C340.363,279.543,342.702,278.904,345.041,278.266z
			"/>
		<path fill-rule="evenodd" clip-rule="evenodd" fill="#384795" d="M312.218,273.619c-1.802,1.77-2.866-0.054-4.032-0.906
			c-6.353-4.645-12.438-9.636-19.348-13.527c-4.892-2.755-9.877-5.229-15.083-7.293c0.739-1.858,1.85-3.47,3.239-4.898
			c12.673,4.415,24.056,11.022,34.039,20.013C311.428,269.211,311.823,271.415,312.218,273.619z"/>
		<path fill-rule="evenodd" clip-rule="evenodd" fill="#1E274F" d="M392.883,206.034c3.966,0.749,5.938,4.123,8.221,6.77
			c6.271,7.275,11.174,15.524,15.789,23.931c0.767,1.397,1.054,3.278,3.227,3.312c-2.007,1.053-4.015,2.105-6.022,3.158
			c-1.256-0.278-1.924-1.248-2.463-2.261c-5.199-9.771-11.901-18.522-18.504-27.349
			C392.677,211.087,391.204,208.609,392.883,206.034z"/>
		<path fill-rule="evenodd" clip-rule="evenodd" fill="#253062" d="M302.006,189.246c3.656-0.444,7.283-1.202,10.996-1.06
			c12.263,3.894,24.123,8.711,35.218,15.295c0.709,0.42,1.454,0.771,1.999,1.421c0.504,1.694,0.053,3.153-1.086,4.446
			c-2.181,1.32-4.151,0.433-6.073-0.632c-11.937-6.614-24.472-11.708-37.708-15.09C303.295,193.102,300.223,192.903,302.006,189.246
			z"/>
		<path fill-rule="evenodd" clip-rule="evenodd" fill="#232D5B" d="M408.105,265.765c-0.077,0.801-0.153,1.602-0.23,2.402
			c-5.58-13.618-12.947-26.049-22-37.501c0.455-2.51,1.419-4.555,4.37-4.792c7.58,8.287,13.523,17.602,17.569,28.103
			C407.911,257.907,408.008,261.836,408.105,265.765z"/>
		<path fill-rule="evenodd" clip-rule="evenodd" fill="#374691" d="M311.033,267.007c-1.88,0.167-3.06-1.271-4.287-2.2
			c-8.688-6.57-17.96-12.072-28.114-16.057c-0.809-0.317-1.301-0.976-1.638-1.756c0.636-1.627,1.527-3.078,2.888-4.208
			c5.382,0.289,9.686,3.397,14.073,5.892c6.281,3.572,13.192,6.38,17.877,12.32C312.009,263.06,311.445,265.023,311.033,267.007z"/>
		<path fill-rule="evenodd" clip-rule="evenodd" fill="#3A4A9B" d="M208.952,244.904c-0.079-0.877,0.021-1.675,0.932-2.118
			c9.186-0.735,18.361-1.393,27.583-0.307c2.292,0.27,3.888,1.717,5.891,2.403c1.984,2.122,3.618,4.491,4.984,7.049
			c-0.978,0.815-2.181,0.941-3.312,0.719c-10.507-2.06-21.138-2.107-31.781-2.139C209.629,250.501,207.425,249.039,208.952,244.904z
			"/>
		<path fill-rule="evenodd" clip-rule="evenodd" fill="#303D80" d="M351.105,266.26c-1.345,0.925-2.689,1.851-4.034,2.776
			c-2.247,0.638-3.477-0.992-4.505-2.375c-5.023-6.76-11.784-11.626-18.089-17c-1.148-0.979-3.103-1.567-2.529-3.763
			c0.643-2.38,1.284-4.76,1.926-7.14c8.793,7.176,18.182,13.7,25.105,22.921C350.009,263.05,351.944,264.016,351.105,266.26z"/>
		<path fill-rule="evenodd" clip-rule="evenodd" fill="#161C39" d="M396.933,155.822c0.031,2.292,1.652,3.639,3.27,4.663
			c6.427,4.073,12.081,9.03,17.293,14.525c1.181,1.245,2.411,2.253,4.268,1.978c-0.052,2.426-2.643,3.645-2.854,5.996
			c-1.621-0.805-3.229-1.606-4.455-3.019c-5.975-6.883-13.414-11.994-20.824-17.137c-1.096-0.761-2.104-1.581-2.635-2.853
			C392.974,158.592,394.953,157.207,396.933,155.822z"/>
		<path fill-rule="evenodd" clip-rule="evenodd" fill="#35448E" d="M338.024,280.181c0.785,2.436,2.758,4.081,4.163,6.092
			c4.533,6.49,8.952,13.023,12.12,20.326c0.711,1.639,1.387,3.481,3.728,3.42c-1.261,2.166-3.376,3.423-5.252,4.934
			c-1.969,0.019-2.353-1.619-2.934-2.932c-4.005-9.051-9.552-17.15-15.359-25.094c-1.14-1.558-2.951-2.941-1.627-5.272
			C334.452,280.704,336.274,280.568,338.024,280.181z"/>
		<path fill-rule="evenodd" clip-rule="evenodd" fill="#35448D" d="M311.832,260.998c-4.604-1.813-8.289-5.184-12.486-7.679
			c-6.128-3.644-12.425-6.797-18.855-9.777c-0.263-0.122-0.409-0.499-0.609-0.756c0.621-1.859,1.802-3.349,3.136-4.736
			c8.495,2.437,15.944,7.028,23.438,11.492c2.019,1.203,4.024,2.198,6.356,2.485C312.485,255.018,312.159,258.008,311.832,260.998z"
			/>
		<path fill-rule="evenodd" clip-rule="evenodd" fill="#2E3B7B" d="M322.679,232.122c4.875,1.027,8.322,4.531,12.011,7.382
			c8.369,6.47,15.944,13.838,22.488,22.206c0.541,0.692,0.792,1.43,0.822,2.276c-1.274,0.577-2.551,1.144-4.006,0.978
			c-1.479-0.424-2.738-1.239-3.661-2.434c-6.844-8.861-15.293-15.97-24.342-22.435c-0.81-0.579-1.288-1.508-2.103-2.093
			C323.485,236.042,323.082,234.082,322.679,232.122z"/>
		<path fill-rule="evenodd" clip-rule="evenodd" fill="#242E5F" d="M349.854,204.995c-1.583,0.205-2.963-0.415-4.237-1.202
			c-9.219-5.688-19.026-10.009-29.468-12.91c-1.384-0.385-2.996-0.756-3.146-2.697c2.95-0.51,5.899-1.021,8.85-1.531
			c10.343,1.828,19.37,6.842,28.43,11.768c0.875,0.476,1.54,1.264,1.969,2.204C352.598,202.711,351.649,204.086,349.854,204.995z"/>
		<path fill-rule="evenodd" clip-rule="evenodd" fill="#1F2953" d="M394.113,213.996c5.803,5.26,9.824,11.894,13.991,18.386
			c2.223,3.463,4.009,7.207,5.992,10.823c-1.15,1.26-2.3,2.519-3.45,3.778c-1.697,1.101-2.518-0.283-3.075-1.349
			c-4.215-8.049-9.341-15.495-14.766-22.753c-0.491-0.658-0.72-1.476-0.881-2.296C391.756,218.09,391.905,215.699,394.113,213.996z"
			/>
		<path fill-rule="evenodd" clip-rule="evenodd" fill="#374691" d="M332.863,281.654c0.023,3.067,2.816,4.369,4.294,6.464
			c5.997,8.502,11.361,17.339,15.626,26.834c-0.408,1.495-1.581,2.29-2.794,3.05c-2.949-2.034-3.229-5.65-4.787-8.472
			c-5.233-9.484-11.976-17.878-18.229-26.629C328.936,282.486,330.899,282.07,332.863,281.654z"/>
		<path fill-rule="evenodd" clip-rule="evenodd" fill="#313F84" d="M321.948,245.898c5.976,5.057,12.241,9.773,17.794,15.325
			c2.527,2.528,3.915,6.123,7.329,7.813c-0.973,1.396-2.264,2.395-3.817,3.066c-1.818,0.992-3.203,0.074-4.463-1.092
			c-5.963-5.518-11.271-11.722-17.659-16.801c-1.017-0.808-1.793-1.983-1.261-3.488
			C320.066,248.899,320.799,247.309,321.948,245.898z"/>
		<path fill-rule="evenodd" clip-rule="evenodd" fill="#232D5B" d="M351.887,200.994c-7.939-5.078-16.462-8.914-25.343-12.014
			c-1.638-0.571-3.634-0.54-4.692-2.324c2.299-1.254,4.598-2.509,6.896-3.764c2.76,2.257,6.347,2.651,9.424,4.188
			c5.897,2.944,11.772,5.937,17.656,8.909C356.303,199.066,354.265,200.164,351.887,200.994z"/>
		<path fill-rule="evenodd" clip-rule="evenodd" fill="#212A57" d="M392.873,220.73c5.858,8.126,11.973,16.087,16.161,25.282
			c0.298,0.653,0.931,0.885,1.612,0.971c-1.078,2.277-2.338,4.481-2.832,6.994c-3.234-2.58-3.911-6.732-6.088-9.995
			c-3.634-5.447-6.731-11.246-11.186-16.132c-0.389-0.426-0.369-1.224-0.539-1.849C389.426,223.41,390.25,221.58,392.873,220.73z"/>
		<path fill-rule="evenodd" clip-rule="evenodd" fill="#3C4D9F" d="M208.952,244.904c0.105,1.136,0.209,2.271,0.307,3.331
			c1.771,1.264,3.653,0.785,5.4,0.73c10.362-0.321,20.661,0.166,30.861,2.109c0.96,0.183,1.882,0.567,2.821,0.857
			c1.09,2.088,2.503,3.837,4.84,4.618c-1.55,1.695-3.58,0.68-4.943,0.232c-12.833-4.21-26.046-3.95-39.27-3.779
			C208.394,250.304,207.461,247.606,208.952,244.904z"/>
		<path fill-rule="evenodd" clip-rule="evenodd" fill="#253165" d="M302.006,189.246c-0.301,2.307,1.176,2.513,2.979,2.947
			c12.784,3.079,24.923,7.875,36.548,14.017c2.273,1.201,4.208,3.43,7.215,2.787c1.664,1.953,0.695,3.512-0.747,5.001
			c-4.029-1.146-7.127-4.002-10.688-5.992c-11.302-6.317-23.316-10.604-35.815-13.678c-1.416-0.348-2.946-0.231-4.423-0.329
			C297.185,190.823,299.397,189.83,302.006,189.246z"/>
		<path fill-rule="evenodd" clip-rule="evenodd" fill="#374693" d="M361.986,380.031c-0.551,0.314-1.121,0.366-1.714,0.128
			c-2.309,0.491-2.268-1.472-2.671-2.732c-0.919-2.871-1.339-5.883-1.018-8.866c0.791-7.361-0.671-14.443-2.271-21.532
			c-0.402-1.781-0.86-3.611,0.716-5.136c2.217,0.543,4.194,1.587,6.045,2.895c2.454,2.814,2.445,6.363,2.949,9.772
			c1.101,7.43,0.382,14.85-0.036,22.273C363.905,378.281,363.228,379.324,361.986,380.031z"/>
		<path fill-rule="evenodd" clip-rule="evenodd" fill="#788CC6" d="M178.828,414.69c4.413,5.562,9.701,10.414,13.343,16.608
			c1.005,1.709,2.429,3.186,2.824,5.21c0.349,1.784,1.543,2.442,3.193,2.572c-3.142,1.761-5.416-0.404-7.566-1.978
			c-3.461-2.533-6.719-5.362-9.935-8.211C175.314,424.134,174.99,421.256,178.828,414.69z"/>
		<path fill-rule="evenodd" clip-rule="evenodd" fill="#334289" d="M312.812,252.027c-0.554,0.585-1.106,1.171-1.784,1.888
			c-8.517-5.574-17.285-10.654-26.77-14.394c-0.525-0.207-0.832-0.968-1.24-1.471c1.279-2.388,3.449-3.355,5.979-3.745
			c5.071,2.414,10.169,4.772,15.151,7.367c3.229,1.682,6.487,3.34,8.78,6.328C313.2,249.352,313.106,250.692,312.812,252.027z"/>
		<path fill-rule="evenodd" clip-rule="evenodd" fill="#35448D" d="M361.986,380.031c1.699-3.153,0.503-6.607,0.821-9.896
			c0.82-8.469-0.001-16.976-1.734-25.349c2.105,1.594,5.136,1.114,7.046,3.146c2.548,10.379,1.816,20.76,0.015,31.141
			C366.281,380.654,364.094,380.086,361.986,380.031z"/>
		<path fill-rule="evenodd" clip-rule="evenodd" fill="#334289" d="M368.134,379.073c-1.453-0.845-1.269-2.276-1.052-3.531
			c1.527-8.828,1.312-17.653,0.189-26.497c-0.042-0.329,0.551-0.739,0.848-1.112c4.99,1.881,7.082,4.58,6.886,9.669
			c-0.229,5.942-1.238,11.815-3.045,17.477C371.422,376.762,370.658,378.956,368.134,379.073z"/>
		<path fill-rule="evenodd" clip-rule="evenodd" fill="#4151A3" d="M335.206,404.621c2.552,2.25,3.272,5.493,4.564,8.426
			c-0.972,7.884-4.716,14.808-7.621,22.021c-2.304,2.333-4.749,4.433-8.15,4.961c-1.101-1.338-0.171-2.512,0.366-3.655
			c3.809-8.108,6.324-16.58,7.844-25.419C332.582,408.785,332.262,405.784,335.206,404.621z"/>
		<path fill-rule="evenodd" clip-rule="evenodd" fill="#181E3C" d="M363.968,151.122c-0.859,1.155-2.096,1.074-3.173,0.669
			c-6.359-2.386-12.875-4.203-19.518-5.587c-1.341-0.279-2.599-0.628-3.235-2.011c4.208-2.963,9.152-3.545,14.035-4.143
			c2.838-0.347,5.169,1.104,6.808,3.355C360.695,145.893,362.282,148.542,363.968,151.122z"/>
		<path fill-rule="evenodd" clip-rule="evenodd" fill="#34438A" d="M339.109,275.047c-1.997,1.965-4.367,2.637-7.102,2.042
			c-5.986-3.606-9.985-9.432-15.334-13.758c-1.035-0.837-1.535-2.142-0.761-3.544c-0.266-2.019,0.817-3.466,2.055-4.848
			c4.371,1.534,7.315,4.941,10.313,8.16C331.941,267.031,336.609,270.065,339.109,275.047z"/>
		<path fill-rule="evenodd" clip-rule="evenodd" fill="#384897" d="M355.028,341.893c-0.085,1.676,0.081,3.271,0.751,4.873
			c1.172,2.803,2.039,5.677,1.273,8.824c-0.207,0.85-0.536,2.244,0.511,2.711c2.587,1.153,1.237,2.974,0.981,4.589
			c-0.939,5.914-1.21,11.749,1.728,17.27c-1.673,0.881-3.47,0.795-5.271,0.683c0.377-12.766-0.272-25.422-3.815-37.799
			c-0.308-1.073-0.049-2.307-0.053-3.466C351.836,341.35,354.172,340.376,355.028,341.893z"/>
		<path fill-rule="evenodd" clip-rule="evenodd" fill="#324187" d="M339.109,275.047c-7.493-6.233-13.73-13.789-21.142-20.108
			c0.19-1.607,0.777-3.035,1.903-4.219c1.248,3.159,4.564,4.13,6.719,6.34c4.022,4.128,8.129,8.174,12.217,12.238
			c1.268,1.259,2.365,2.821,4.447,2.804C342.221,273.574,340.762,274.445,339.109,275.047z"/>
		<path fill-rule="evenodd" clip-rule="evenodd" fill="#2F3C7D" d="M323.889,238.002c3.938,0.722,6.458,3.793,9.425,5.984
			c7.969,5.883,14.578,13.203,20.681,20.978c-0.809,0.776-1.792,1.163-2.889,1.296c-6.717-9.145-15.011-16.662-24.173-23.256
			c-1.551-1.116-2.914-2.197-3.059-4.246C323.634,238.501,323.638,238.25,323.889,238.002z"/>
		<path fill-rule="evenodd" clip-rule="evenodd" fill="#384896" d="M243.358,244.883c-8.149-0.507-16.17-2.711-24.501-1.061
			c-2.803,0.555-6.229,1.312-8.973-1.036c1.016-2.203,3.014-2.975,5.155-3.538c1.252,0.674,2.729,0.716,3.845,0.195
			c7.17-3.353,14.129-1.522,21.106,0.593C241.514,241.373,241.643,243.679,243.358,244.883z"/>
		<path fill-rule="evenodd" clip-rule="evenodd" fill="#3D4EA0" d="M332.149,435.068c-0.838-0.455-1.13-1.069-0.68-1.991
			c2.929-6.001,5.426-12.159,6.942-18.691c0.122-0.522,0.891-0.896,1.358-1.339c0.795,1.62,1.626,3.223,2.377,4.862
			c1.941,4.238,1.39,7.959-2.28,11.083C337.371,431.117,335.076,433.492,332.149,435.068z"/>
		<path fill-rule="evenodd" clip-rule="evenodd" fill="#4B5BA8" d="M184.029,279.893c-4.795,2.624-10.255,2.822-15.427,3.937
			c-2.135,0.46-4.297,2.688-6.779,0.858c3.562-8.387,7.694-9.65,16.238-6.673C180.036,278.703,182.414,278.174,184.029,279.893z"/>
		<path fill-rule="evenodd" clip-rule="evenodd" fill="#384793" d="M239.99,240.036c-1.493,1.643-3.609,1.385-5.023,0.623
			c-4.679-2.521-9.05-2.472-13.779-0.087c-1.967,0.992-4.546,1.172-6.148-1.324c3.728-1.405,7.426-2.896,11.19-4.196
			C232.914,232.742,235.95,233.888,239.99,240.036z"/>
		<path fill-rule="evenodd" clip-rule="evenodd" fill="#334286" d="M312.929,248c-7.525-4.286-15.224-8.243-22.991-12.067
			c-0.643-0.317-0.846-0.958-0.94-1.628c7.009,0.531,13.229,3.644,19.595,6.179C311.726,241.732,313.655,244.244,312.929,248z"/>
		<path fill-rule="evenodd" clip-rule="evenodd" fill="#6C7EBE" d="M147.954,373.002c7.146,0.252,13.881,2.269,20.506,4.763
			c1.117,0.42,2.068,1.031,2.533,2.202c-5.627,0.489-11.162-0.658-16.722-1.127C151.071,378.57,148.344,376.802,147.954,373.002z"/>
		<path fill-rule="evenodd" clip-rule="evenodd" fill="#4454A5" d="M335.206,404.621c-1.294,2.687-1.848,5.584-2.361,8.485
			c-1.664,9.398-5.147,18.195-8.846,26.923c-0.659,0.346-1.327,0.307-2,0.044c2.897-8.021,6.812-15.684,8.216-24.23
			c0.663-4.037,1.83-7.989,1.8-12.134c-0.011-1.438-0.363-3.062,1.39-3.898C334.122,401.37,335.6,402.645,335.206,404.621z"/>
		<path fill-rule="evenodd" clip-rule="evenodd" fill="#37458E" d="M315.913,259.788c0.059,1.649,1.17,2.406,2.346,3.418
			c4.941,4.257,9.688,8.739,13.749,13.883c-1.983,0.479-3.574-0.505-4.998-1.586c-3.143-2.386-6.314-4.77-9.195-7.453
			C315.461,265.858,313.781,263.172,315.913,259.788z"/>
		<path fill-rule="evenodd" clip-rule="evenodd" fill="#040404" d="M405.072,555.308c-3.222-7.439-6.284-14.51-9.34-21.563
			c6.592-3.39,12.697-1.398,15.885,4.973C414.961,545.4,412.826,551.238,405.072,555.308z"/>
		<path fill-rule="evenodd" clip-rule="evenodd" fill="#0D0D0D" d="M197.974,535.458c0,4.294,0,7.581,0,11.153
			c-2.756-0.46-4.917-1.916-7.592-3.008C192.467,540.716,194.911,538.338,197.974,535.458z"/>
		<path fill-rule="evenodd" clip-rule="evenodd" fill="#131414" d="M321.59,566.989c1.029-3.848,1.872-6.999,2.843-10.63
			c3.115,2.61,3.51,6.348,5.521,9.468C327.259,566.201,324.857,566.535,321.59,566.989z"/>
		<path fill-rule="evenodd" clip-rule="evenodd" fill="#070807" d="M478.077,112.785c0.039,3.072-2.495,5.943-5.396,6.115
			c-2.96,0.175-6.02-2.952-5.938-6.07c0.078-3.013,2.811-5.811,5.684-5.82C475.438,107,478.037,109.655,478.077,112.785z"/>
		<path fill-rule="evenodd" clip-rule="evenodd" fill="#0B0C0C" d="M132.85,105.225c-0.1-3.14,2.335-5.782,5.446-5.91
			c3.038-0.125,5.731,2.372,5.919,5.486c0.192,3.179-2.59,6.2-5.713,6.202C135.564,111.004,132.949,108.331,132.85,105.225z"/>
		<path fill-rule="evenodd" clip-rule="evenodd" fill="#242525" d="M307.554,42.358c4.018-4.628,6.178-4.438,8.828,0.416
			C313.544,43.21,310.852,43.165,307.554,42.358z"/>
		<path fill-rule="evenodd" clip-rule="evenodd" fill="#FFFFFF" d="M288.917,378.775c-2.34,1.641-4.681,3.281-7.021,4.922
			c-3.009,1.305-6.018,2.61-9.026,3.916c-2.621,0.531-5.242,1.063-7.863,1.594c-6.941,0.478-13.713-0.544-20.419-2.24
			c-1.589-0.401-2.945-1.199-4.285-2.072c-8.485-4.979-15.225-11.695-20.146-20.225c-1.727-4.801-3.389-9.619-4.242-14.673
			c0.222-4.671-0.2-9.382,0.853-14.003c0.755-2.661,1.511-5.322,2.267-7.984c1.261-2.34,2.523-4.679,3.785-7.019
			c1.826-2.292,3.652-4.583,5.479-6.875c2.985-2.333,5.97-4.667,8.955-7c2.965-1.35,5.931-2.7,8.896-4.05
			c3.617-0.695,7.233-1.39,10.851-2.084c7.232-0.068,14.247,1.1,21.008,3.7c11.075,5.066,18.773,13.455,23.946,24.33
			c1.598,5.897,3.003,11.828,3.076,17.986c-0.616,2.594-1.345,5.172-1.082,7.887c-1.052,2.906-2.104,5.813-3.155,8.718
			c-1.661,2.677-3.321,5.353-4.981,8.028C293.516,374.013,291.216,376.394,288.917,378.775z"/>
		<path fill-rule="evenodd" clip-rule="evenodd" fill="#FFFFFF" d="M348,213.998c0.249-1.667,0.498-3.334,0.747-5.001
			c0.368-1.333,0.737-2.667,1.106-4.001c0.023-1.666,1.819-2.432,2.033-4.001c1.247-1.721,3.153-2.922,3.941-5.005
			c2.774-1.532,5.549-3.063,8.323-4.595c3.592-0.673,7.198-1.075,10.853-0.574c8.481,2.108,14.146,7.526,17.879,15.214
			c0.41,2.654,0.82,5.308,1.23,7.961c-0.413,2.245-0.826,4.49-1.24,6.734c-0.957,1.757-1.914,3.515-2.871,5.272
			c-1.375,1.555-2.751,3.109-4.127,4.665c-1.288,0.865-2.576,1.73-3.864,2.595c-1.335,0.611-2.671,1.222-4.007,1.833
			c-2,0.347-4.001,0.693-6.001,1.04c-2.985-0.422-5.972-0.845-8.958-1.267c-3.619-1.948-7.014-4.21-9.951-7.114
			c-2.049-2.227-2.801-5.143-4.125-7.755C347.314,218.213,348.811,215.919,348,213.998z"/>
	</g>
</g>
</svg>
