<?xml version="1.0" encoding="utf-8"?>
<!-- Generator: Adobe Illustrator 16.0.0, SVG Export Plug-In . SVG Version: 6.00 Build 0)  -->
<!DOCTYPE svg PUBLIC "-//W3C//DTD SVG 1.1//EN" "http://www.w3.org/Graphics/SVG/1.1/DTD/svg11.dtd">
<svg version="1.1" id="Layer_1" xmlns="http://www.w3.org/2000/svg" xmlns:xlink="http://www.w3.org/1999/xlink" x="0px" y="0px"
	 width="600px" height="600px" viewBox="0 0 600 600" enable-background="new 0 0 600 600" xml:space="preserve">
<g>
	<g>
		<path fill-rule="evenodd" clip-rule="evenodd" fill="#010101" d="M601,287c0,9.333,0,18.667,0,28
			c-0.654,0.599-0.473,1.396-0.512,2.142c0,0.574,0,1.148,0,1.723c0.037,0.743-0.141,1.539,0.512,2.136c0,1.333,0,2.667,0,4
			c-1.177,12.88-2.369,25.73-5.104,38.432c-10.547,48.997-31.759,92.73-63.949,131.151c-27.902,33.303-61.44,59.374-100.579,78.176
			c-29.047,13.953-59.546,23.177-91.583,27.035c-5.561,0.67-11.228,0.246-16.785,1.206c-0.667,0-1.333,0-2,0
			c-0.64-0.686-1.484-0.46-2.268-0.513c-0.609,0.001-1.22,0.001-1.829,0c-0.977,0.121-2.055-0.333-2.903,0.513
			c-8.667,0-17.333,0-26,0c-0.85-0.847-1.93-0.39-2.907-0.512c-0.609,0-1.219,0-1.828,0c-0.782,0.052-1.626-0.174-2.266,0.512
			c-1.333,0-2.667,0-4,0c-10.002-1.407-20.124-1.511-30.107-3.398c-51.655-9.764-97.842-31.12-138.343-64.664
			c-34.4-28.491-61.062-63.055-80.207-103.349c-13.61-28.646-22.382-58.786-26.19-90.3C1.541,334.229,1.978,329.055,1,324
			c0-1.667,0-3.333,0-5c0.614-0.554,0.487-1.297,0.512-2.001C1.488,316.295,1.613,315.554,1,315c0-9.667,0-19.333,0-29
			c0.614-0.553,0.487-1.296,0.512-2c-0.023-0.705,0.101-1.446-0.512-2c0-1.333,0-2.667,0-4c1.136-13.552,2.383-27.061,5.305-40.411
			C16.907,189.144,38,145.888,69.725,107.793c27.698-33.259,61.125-59.235,100.001-78.13C199.011,15.43,229.84,6.128,262.214,2.206
			C267.118,1.611,272.129,2.132,277,1c1.333,0,2.667,0,4,0c0.639,0.685,1.485,0.46,2.268,0.512c0.61,0,1.219,0,1.829,0
			C286.074,1.391,287.151,1.846,288,1c8.667,0,17.333,0,26,0c0.85,0.846,1.93,0.39,2.906,0.512c0.609-0.001,1.22,0,1.828,0
			C319.517,1.46,320.361,1.686,321,1c0.667,0,1.333,0,2,0c10.689,1.236,21.465,1.38,32.106,3.395
			c51.649,9.776,97.836,31.13,138.346,64.667c34.41,28.487,61.047,63.074,80.209,103.348c13.624,28.635,22.385,58.786,26.187,90.302
			c0.611,5.06,0.174,10.234,1.152,15.289c0,1,0,2,0,3c-0.654,0.598-0.473,1.396-0.512,2.142c0,0.574,0,1.148,0,1.722
			C600.525,285.608,600.348,286.403,601,287z"/>
		<path fill-rule="evenodd" clip-rule="evenodd" fill="#FFFFFF" d="M277,1c-2.448,2.145-5.602,1.444-8.368,1.742
			c-51.342,5.54-98.254,23.016-140.227,52.988C65.256,100.824,24.975,161.354,7.884,237.178c-2.89,12.819-4.727,25.786-5.875,38.862
			C1.939,276.835,2.097,277.737,1,278C1,185.75,1,93.5,1,1C93,1,185,1,277,1z"/>
		<path fill-rule="evenodd" clip-rule="evenodd" fill="#FFFFFF" d="M601,278c-2.019-2.845-1.407-6.271-1.732-9.374
			c-3.274-31.248-11.002-61.359-24.289-89.775C533.389,89.903,464.955,33.101,369.643,8.975
			c-14.834-3.755-29.937-5.983-45.212-6.978C323.725,1.951,323.148,1.805,323,1c92.583,0,185.167,0,278,0
			C601,93.333,601,185.667,601,278z"/>
		<path fill-rule="evenodd" clip-rule="evenodd" fill="#FFFFFF" d="M323,601c3.392-1.94,7.262-1.399,10.871-1.783
			c29.895-3.18,58.748-10.474,86.102-22.837c88.44-39.974,145.612-106.956,171.604-200.449c4.362-15.692,6.687-31.809,8.367-48.007
			c0.104-1.012-0.599-2.43,1.057-2.924c0,91.917,0,183.834,0,276C508.334,601,415.667,601,323,601z"/>
		<path fill-rule="evenodd" clip-rule="evenodd" fill="#FFFFFF" d="M1,324c2.01,2.857,1.4,6.29,1.739,9.405
			c5.574,51.335,23.063,98.23,53.008,140.227c43.973,61.67,102.934,101.503,176.608,119.438c13.903,3.385,28.022,5.354,42.22,6.894
			c0.893,0.097,2.074-0.37,2.425,1.036c-91.917,0-183.834,0-276,0C1,508.667,1,416.333,1,324z"/>
		<path fill-rule="evenodd" clip-rule="evenodd" fill="#5D5D5D" d="M317.062,1.878C315.932,1.967,314.723,2.333,314,1c1,0,2,0,3,0
			c0.319,0.173,0.435,0.361,0.347,0.564C317.257,1.773,317.162,1.878,317.062,1.878z"/>
		<path fill-rule="evenodd" clip-rule="evenodd" fill="#5D5D5D" d="M288,1c-0.722,1.333-1.932,0.967-3.062,0.878
			c-0.292-0.217-0.38-0.419-0.265-0.607C284.784,1.09,284.893,1,285,1C286,1,287,1,288,1z"/>
		<path fill-rule="evenodd" clip-rule="evenodd" fill="#5C5C5C" d="M284.938,600.118c1.129-0.083,2.339-0.446,3.062,0.882
			c-1,0-2,0-3,0c-0.32-0.175-0.436-0.363-0.348-0.566C284.744,600.223,284.838,600.118,284.938,600.118z"/>
		<path fill-rule="evenodd" clip-rule="evenodd" fill="#5C5C5C" d="M314,601c0.731-1.328,1.936-0.973,3.07-0.861
			c0.284,0.216,0.367,0.415,0.253,0.599c-0.11,0.175-0.218,0.263-0.323,0.263C316,601,315,601,314,601z"/>
		<path fill-rule="evenodd" clip-rule="evenodd" fill="#9E9E9E" d="M282.951,1.845C282.132,1.952,281.221,2.272,281,1
			c0.667,0,1.333,0,2,0c0.346,0.208,0.454,0.403,0.324,0.584C283.201,1.757,283.077,1.845,282.951,1.845z"/>
		<path fill-rule="evenodd" clip-rule="evenodd" fill="#8D8D8D" d="M1,282c1.237,0.22,0.946,1.122,0.863,1.932
			C1.615,284.458,1.328,284.481,1,284C1,283.333,1,282.667,1,282z"/>
		<path fill-rule="evenodd" clip-rule="evenodd" fill="#9E9E9E" d="M321,1c-0.221,1.272-1.132,0.952-1.95,0.845
			c-0.368-0.167-0.498-0.347-0.391-0.542C318.77,1.101,318.883,1,319,1C319.667,1,320.333,1,321,1z"/>
		<path fill-rule="evenodd" clip-rule="evenodd" fill="#7F7E7F" d="M319,1c-0.006,0.283,0.011,0.565,0.049,0.845
			c-0.662,0.011-1.325,0.023-1.987,0.034C317.011,1.587,316.99,1.295,317,1C317.667,1,318.333,1,319,1z"/>
		<path fill-rule="evenodd" clip-rule="evenodd" fill="#606161" d="M601,287c-1.009-0.393-1.013-1.194-0.838-2.067
			c0.312-0.38,0.592-0.377,0.838,0.067C601,285.667,601,286.333,601,287z"/>
		<path fill-rule="evenodd" clip-rule="evenodd" fill="#686868" d="M1,284c0.288-0.02,0.575-0.042,0.863-0.068
			C2.053,284.82,2.061,285.633,1,286C1,285.333,1,284.667,1,284z"/>
		<path fill-rule="evenodd" clip-rule="evenodd" fill="#7C7C7D" d="M601,285c-0.279-0.029-0.559-0.051-0.838-0.067
			c-0.002-0.662-0.004-1.323-0.006-1.985c0.308-0.409,0.589-0.392,0.844,0.052C601,283.667,601,284.333,601,285z"/>
		<path fill-rule="evenodd" clip-rule="evenodd" fill="#7F7E7F" d="M282.951,1.845C282.988,1.564,283.005,1.283,283,1
			c0.667,0,1.333,0,2,0c0.01,0.296-0.01,0.589-0.062,0.879C284.275,1.867,283.613,1.855,282.951,1.845z"/>
		<path fill-rule="evenodd" clip-rule="evenodd" fill="#9D9C9C" d="M601,283c-0.281-0.019-0.563-0.036-0.844-0.052
			c-0.117-0.822-0.439-1.732,0.844-1.948C601,281.667,601,282.333,601,283z"/>
		<path fill-rule="evenodd" clip-rule="evenodd" fill="#9C9C9C" d="M601,321c-1.267-0.223-0.953-1.129-0.842-1.947
			c0.25-0.51,0.53-0.527,0.842-0.053C601,319.667,601,320.333,601,321z"/>
		<path fill-rule="evenodd" clip-rule="evenodd" fill="#7C7C7D" d="M601,319c-0.279,0.037-0.561,0.055-0.842,0.053
			c0.001-0.662,0.002-1.323,0.003-1.984c0.238-0.527,0.519-0.551,0.839-0.068C601,317.667,601,318.333,601,319z"/>
		<path fill-rule="evenodd" clip-rule="evenodd" fill="#7C7C7D" d="M1.84,317.066c0.104,0.811,0.318,1.67-0.84,1.934
			c0-0.667,0-1.333,0-2C1.318,316.532,1.6,316.53,1.84,317.066z"/>
		<path fill-rule="evenodd" clip-rule="evenodd" fill="#606161" d="M601,317c-0.279,0.028-0.559,0.052-0.839,0.068
			c-0.182-0.877-0.171-1.675,0.839-2.068C601,315.667,601,316.333,601,317z"/>
		<path fill-rule="evenodd" clip-rule="evenodd" fill="#616161" d="M1.84,317.066C1.56,317.051,1.279,317.028,1,317
			c0-0.667,0-1.333,0-2C2.005,315.394,2.024,316.188,1.84,317.066z"/>
		<path fill-rule="evenodd" clip-rule="evenodd" fill="#9D9D9D" d="M281,601c0.222-1.27,1.132-0.952,1.951-0.846
			c0.368,0.167,0.498,0.348,0.39,0.543C283.23,600.898,283.117,601,283,601C282.333,601,281.667,601,281,601z"/>
		<path fill-rule="evenodd" clip-rule="evenodd" fill="#7E7E7E" d="M283,601c0.006-0.283-0.01-0.565-0.049-0.846
			c0.663-0.013,1.326-0.026,1.988-0.038c0.052,0.294,0.072,0.588,0.061,0.884C284.333,601,283.667,601,283,601z"/>
		<path fill-rule="evenodd" clip-rule="evenodd" fill="#7E7E7E" d="M317,601c-0.004-0.289,0.02-0.576,0.07-0.861
			c0.659,0.006,1.319,0.011,1.979,0.017c0.299,0.206,0.391,0.399,0.277,0.581C319.217,600.912,319.108,601,319,601
			C318.333,601,317.667,601,317,601z"/>
		<path fill-rule="evenodd" clip-rule="evenodd" fill="#9D9D9D" d="M319,601c-0.005-0.283,0.011-0.564,0.049-0.845
			c0.823-0.118,1.734-0.438,1.951,0.845C320.333,601,319.667,601,319,601z"/>
		<path fill-rule="evenodd" clip-rule="evenodd" fill="#FFFFFF" d="M163.916,479.076c-9.747-6.782-18.304-14.924-26.406-23.531
			c-28.159-29.913-47.009-64.864-56.003-104.976c-4.979-22.202-6.564-44.657-4.725-67.425c3.542-43.86,18.384-83.407,45.119-118.238
			c34.434-44.861,79.461-73.775,135.024-84.486c63.963-12.331,123.026,0.527,176.273,38.569c1.022,2.361-1.019,3.225-2.239,4.403
			c-6.174,5.961-12.684,11.552-19.169,17.167c-4.426,4.675-9.862,8.253-14.153,13.076c-4.334,3.016-7.75,7.093-11.882,10.344
			c-4.323,3.26-7.651,7.646-12.126,10.732c-3.711,3.944-8.05,7.195-11.971,10.906c-3.066,3.292-7.054,5.556-9.996,8.985
			c-2.404,2.672-5.518,4.534-8.052,7.059c-2.832,2.895-5.816,5.619-9.028,8.089c-4.376,4.611-9.754,8.132-13.975,12.91
			c-5.428,3.781-9.519,9.104-14.879,12.962c-2.398,2.03-4.361,4.542-6.983,6.325c-2.763,1.874-4.854,4.47-7.229,6.76
			c-3.964,2.941-7.475,6.385-10.94,9.88c-2.975,1.995-5.538,4.456-7.969,7.066c-3.267,3.049-7.039,5.532-9.971,8.955
			c-3.112,2.504-6.295,4.93-8.949,7.95c-2.098,2.255-4.835,3.757-6.981,5.955c-1.421,1.327-2.782,2.714-4.146,4.099
			c-1.52,1.533-3.446,2.565-4.994,4.065c-2.091,1.897-3.986,3.996-6.053,5.92c-1.393,1.138-2.96,2.056-4.197,3.392
			c-1.614,1.555-3.115,3.208-4.61,4.877c-0.678,0.917-1.841,1.462-2.153,3.479c8.102,0.064,16.094,0.458,24.077-0.292
			c2.142-0.201,4.274-0.462,6.423-0.464c16.417-0.021,32.834-0.025,49.251,0.007c2.125,0.005,4.338-0.355,6.292,0.918
			c1.848,3.238-1.045,4.715-2.493,6.73c-2.535,2.045-4.252,4.823-6.373,7.241c-2.145,2.153-4.48,4.136-6.099,6.768
			c-1.187,1.562-2.638,2.877-3.983,4.29c-1.56,1.445-3.021,2.974-4.115,4.82c-1.458,1.899-3.287,3.452-4.875,5.231
			c-1.53,1.575-2.576,3.546-4.138,5.096c-2.059,2.087-4.279,4.027-5.854,6.545c-1.503,1.937-3.347,3.554-5.015,5.336
			c-1.98,1.72-3.185,4.095-5,5.955c-1.389,1.38-2.811,2.729-4.106,4.204c-2.12,2.758-4.344,5.419-6.835,7.843
			c-1.779,1.942-3.143,4.24-5.094,6.04c-2.284,2.046-4.252,4.366-5.994,6.885c-2.231,2.424-4.737,4.582-6.846,7.124
			c-1.754,2.569-3.948,4.754-6.089,6.984c-2.004,2.336-3.745,4.9-6.04,6.984c-2.38,1.964-3.913,4.662-5.961,6.913
			c-1.675,1.685-3.453,3.272-4.947,5.132c-1.5,2.152-3.22,4.115-5.093,5.946c-1.973,1.718-3.178,4.084-4.986,5.94
			c-1.667,1.677-3.433,3.258-4.923,5.105c-1.287,1.767-2.603,3.51-4.174,5.04c-2.723,2.305-4.379,5.545-6.958,7.976
			c-1.842,1.646-3.328,3.597-4.774,5.58c-1.022,1.156-2.17,2.19-3.219,3.323c-0.446,0.499-0.914,0.976-1.376,1.46
			C168.675,473.591,167.105,477.07,163.916,479.076z"/>
		<path fill-rule="evenodd" clip-rule="evenodd" fill="#FFFFFF" d="M437.006,121.838c44.969,34.693,74.096,79.708,84.616,135.485
			c13.353,70.784-3.113,134.735-49.775,189.87c-34.228,40.442-77.926,65.749-130.304,74.98
			c-63.387,11.173-121.351-2.268-173.685-39.797c-0.673-0.483-1.293-1.042-1.938-1.565c-1.193-2.194,0.526-3.325,1.764-4.52
			c1.404-1.356,3.115-2.383,4.355-3.93c3.413-2.977,7.263-5.447,10.292-8.872c2.143-1.567,4.298-3.121,6.078-5.123
			c2.705-2.257,5.591-4.305,7.992-6.914c2.078-1.543,4.247-2.984,5.778-5.146c1.481-1.628,3.621-2.389,5.166-3.935
			c1.479-1.284,2.775-2.771,4.347-3.952c2.257-1.33,3.957-3.307,5.843-5.067c2.521-1.729,4.807-3.729,6.876-5.98
			c2.246-2.067,5.019-3.547,6.806-6.128c2.748-2.238,5.807-4.101,8.174-6.8c2.564-1.741,4.861-3.799,7.028-6.008
			c2.107-1.545,4.266-3.031,5.815-5.204c2.732-2.225,5.776-4.071,8.127-6.756c2.085-1.55,4.268-2.991,5.8-5.166
			c1.479-1.639,3.425-2.676,5.144-4.006c1.547-1.174,2.813-2.651,4.246-3.949c2.096-1.513,4.162-3.062,5.894-5.005
			c2.218-2.051,4.97-3.505,6.738-6.058c1.814-1.865,4.433-2.764,5.952-4.983c1.497-1.635,3.446-2.684,5.172-4.021
			c1.891-1.453,3.423-3.289,5.182-4.883c1.716-1.326,3.567-2.485,5.016-4.139c2.01-2.168,4.629-3.612,6.701-5.7
			c1.12-1.037,2.188-2.13,3.311-3.166c1.657-1.289,3.475-2.396,4.724-4.154c1.47-1.588,3.574-2.327,5.095-3.846
			c1.456-1.268,2.754-2.698,4.173-4.003c1.692-1.298,3.512-2.452,4.789-4.229c2.205-2.006,5.079-3.218,6.795-5.79
			c1.166-1.338,2.838-2.044,4.093-3.277c2.226-1.773,4.275-3.74,6.304-5.733c2.593-1.702,4.773-3.905,7.12-5.906
			c2.296-1.339,4.018-3.344,5.932-5.128c2.984-1.961,5.442-4.523,7.978-6.999c3.716-2.851,7.408-5.727,10.596-9.188
			c2.953-2.948,6.857-4.76,9.542-8.027c3.671-2.558,6.634-5.875,10.587-9.219c-5.731-1.041-10.662-0.485-15.585-0.4
			c-4.663,0.103-9.314,0.176-13.971-0.008c-8.517,0.158-17.032,0.55-25.535-0.263c-2.546-0.97-5.211-0.797-7.856-0.799
			c-9.778-0.006-19.557,0.019-29.336-0.017c-1.81-0.007-3.663,0.157-5.343-0.76c-1.8-1.486-0.911-2.859,0.309-4.062
			c1.847-1.82,3.328-3.937,5.011-5.881c2.235-2.657,4.392-5.396,7.07-7.648c3.618-4.895,8.952-8.291,11.951-13.726
			c2.117-3.495,6.517-4.93,8.052-8.951c3.459-4.837,8.609-8.125,11.944-13.076c3.399-4.857,8.351-8.286,11.92-12.985
			c1.974-3.672,5.961-5.534,8.108-9.051c3.631-4.382,7.88-8.231,11.123-12.947c3.555-2.847,6.271-6.451,9.02-10.027
			c3.91-3.141,6.81-7.192,9.917-11.055c3.926-4.115,7.98-8.115,11.35-12.728c6.137-6.881,11.772-14.177,17.623-21.295
			C434.056,122.958,435.021,121.539,437.006,121.838z"/>
		<path fill-rule="evenodd" clip-rule="evenodd" fill="#FFFFFF" d="M178.807,515.696c0.069-1.145-0.054-2.327,0.774-3.544
			c3.099,1.354,6.208,2.714,9.563,4.18c-1.661,8.933-2.44,17.763-4.301,26.658c6.733-6.101,11.459-14,17.629-20.99
			c2.12,0.89,4.199,1.763,6.601,2.771c-0.723,8.788-2.443,17.33-3.791,27.166c7.248-6.604,11.253-14.658,17.154-20.968
			c10.413,3.006,21.075,4.316,31.435,7.793c-0.459,2.745-0.983,5.438-2.166,8.23c-4.475-1.093-8.768-2.141-13.081-3.193
			c-1.412,2.134-1.671,4.409-2.018,6.895c3.733,2.162,8.235,2.044,12.329,3.76c0.475,2.923-1.069,5.393-1.575,8.352
			c-4.397-1.049-8.537-2.035-12.758-3.042c-1.358,2.288-1.836,4.611-1.905,7.387c4.379,1.159,8.659,2.292,13.202,3.494
			c-0.755,2.847-0.858,5.646-2.454,8.316c-7.357-1.835-14.702-3.667-22.588-5.635c1.685-10.604,5.335-20.672,7.212-31.091
			c-0.321-0.174-0.642-0.347-0.963-0.521c-7.194,8.817-14.388,17.634-21.599,26.471c-3.688-0.61-6.605-2.515-10.078-3.805
			c0.88-7.377,1.739-14.577,2.744-22.992c-5.26,6.412-9.821,11.972-14.49,17.665c-3.458-0.86-6.441-2.578-9.778-3.886
			c0.02-7.805,2.209-15.248,2.272-22.882c0.767-1.437-0.186-2.89,0.028-4.334c0.295-1.235,0.324-2.499,0.403-3.761
			C176.629,521.173,177.249,518.313,178.807,515.696z"/>
		<path fill-rule="evenodd" clip-rule="evenodd" fill="#FEFEFE" d="M178.012,525.046c-0.068,1.042,0.239,2.189-0.828,2.95
			c-1.117-0.055-0.408,1.432-1.313,1.555c-2.462,3.751-5.037,7.386-9.104,9.629c-7.697,4.244-15.304,4.048-22.51-0.922
			c-6.662-4.595-10.084-11.162-8.97-19.266c1.275-9.266,6.367-16.008,15.5-18.915c12.026-3.828,23.882,3.307,26.417,15.608
			C179.083,518.667,176.28,522.053,178.012,525.046z"/>
		<path fill-rule="evenodd" clip-rule="evenodd" fill="#FEFEFE" d="M378.268,558.813c-0.37,12.094-9.679,20.81-21.746,20.459
			c-12.104-0.351-20.509-10.345-20.369-22.641c0.134-11.859,10.005-20.882,21.853-20.554
			C369.593,536.398,378.644,546.554,378.268,558.813z"/>
		<path fill-rule="evenodd" clip-rule="evenodd" fill="#FEFEFE" d="M404.894,520.054c4.831-2.722,9.346-5.462,14.037-7.857
			c5.311-2.711,11.35-1.887,14.808,1.673c4.494,4.628,5.254,9.997,2.252,15.928c-0.293,0.578-0.588,1.156-0.953,1.878
			c6.512,2.546,12.969,5.07,19.763,7.727c-2.794,2.801-6.294,4.086-9.506,5.803c-1.557,0.832-2.781-0.395-4.124-0.875
			c-4.602-1.647-8.812-4.364-14.414-5.535c2.499,4.627,4.653,8.613,6.844,12.669c-2.416,2.271-5.56,2.969-8.348,5.231
			C418.399,544.361,411.816,532.514,404.894,520.054z"/>
		<path fill-rule="evenodd" clip-rule="evenodd" fill="#FEFEFE" d="M256.843,539.293c5.362,0.636,10.11,1.206,14.86,1.76
			c6.487,0.758,10.968,4.538,12.015,10.157c1.101,5.909-1.703,11.146-7.619,14.239c-0.585,0.307-1.157,0.639-1.795,0.991
			c3.841,6.006,7.663,11.981,11.693,18.285c-3.646-0.352-6.771-0.689-9.903-0.941c-2.083-0.167-3.139-1.435-4.114-3.13
			c-2.604-4.524-5.369-8.957-8.571-14.256c-0.737,5.809-1.333,10.502-1.937,15.265c-3.262,0.357-6.045-1.241-9.674-0.5
			C253.197,566.821,254.936,553.13,256.843,539.293z"/>
		<path fill-rule="evenodd" clip-rule="evenodd" fill="#FEFEFE" d="M95.45,106.231c2.239-2.524,4.205-4.741,6.331-7.137
			c1.989,0.811,3.152,2.457,4.571,3.742c5.674,5.141,11.484,10.146,16.937,15.514c5.626,5.539,6.033,11.468,1.713,17.999
			c-1.003,1.517-2.124,3.001-3.409,4.281c-6.803,6.773-13.809,7.033-21.257,0.884c-0.385-0.318-0.752-0.658-1.122-0.995
			c-6.264-5.711-12.527-11.423-18.966-17.294c1.753-2.758,4.126-4.818,6.482-7.437c4.746,4.282,9.416,8.493,14.084,12.706
			c1.606,1.45,3.145,2.984,4.83,4.337c3.983,3.199,6.821,3.218,9.617,0.2c2.958-3.191,2.7-6.148-1.245-9.871
			c-5.327-5.026-10.818-9.878-16.239-14.805C97.165,107.799,96.555,107.24,95.45,106.231z"/>
		<path fill-rule="evenodd" clip-rule="evenodd" fill="#FEFEFE" d="M372.623,532.653c3.363-1.295,6.101-2.35,9.206-3.546
			c2.729,7.028,5.404,13.957,8.114,20.872c0.603,1.539,1.195,3.107,2.021,4.529c2.117,3.648,4.069,4.26,7.809,2.656
			c3.707-1.59,4.878-3.589,3.563-7.431c-2.411-7.037-5.138-13.967-7.732-20.941c-0.51-1.368-1.022-2.736-1.604-4.297
			c3.057-1.207,5.923-2.339,9.182-3.626c3.555,9.375,7.531,18.302,10.268,27.593c2.063,7.004,0.654,12.001-6.812,16.383
			c-2.311,1.356-4.828,2.232-7.394,2.837c-6.995,1.65-13.088-1.081-15.986-7.817C379.474,551.074,376.259,542.039,372.623,532.653z"
			/>
		<path fill-rule="evenodd" clip-rule="evenodd" fill="#FEFEFE" d="M365.259,67.563c0.955-4.233,1.843-7.937,2.607-11.666
			c0.365-1.784,0.731-3.646,0.142-5.432c-0.59-1.788-2.079-2.503-3.879-2.473c-1.957,0.033-3.005,1.238-3.424,3.029
			c-1.126,4.819-2.218,9.646-3.37,14.675c-3.092,0.187-5.847-0.801-9.065-1.767c0.803-3.722,1.612-7.368,2.366-11.025
			c0.267-1.297,0.441-2.617,0.579-3.936c0.27-2.581-0.938-4.193-3.464-4.572c-2.438-0.366-3.727,1.183-4.244,3.298
			c-0.945,3.857-1.719,7.757-2.575,11.637c-0.176,0.793-0.403,1.575-0.617,2.399c-3.241,0.853-5.873-1.05-9.208-1.145
			c1.878-8.69,3.678-17.015,5.547-25.663c3.34,1.146,7.048,0.194,9.492,3.54c7.287-1.792,10.153-0.919,14.936,4.831
			c2.331-0.451,4.316-2.222,6.899-2.236c6.238-0.035,10.848,4.602,9.998,10.858c-0.795,5.864-2.281,11.634-3.488,17.571
			C371.181,69.298,368.353,68.686,365.259,67.563z"/>
		<path fill-rule="evenodd" clip-rule="evenodd" fill="#FEFEFE" d="M474.952,481.604c1.862,1.924,3.449,3.563,5.197,5.369
			c3.129-2.981,6.239-5.945,9.431-8.986c2.436,1.424,3.669,3.888,5.88,5.783c-2.739,3.722-6.289,6.469-9.359,9.887
			c1.744,1.777,3.486,3.552,5.803,5.912c3.09-3.649,5.998-7.085,8.972-10.596c2.927,2.011,4.699,4.13,6.044,5.749
			c-5.391,5.942-10.689,11.783-16.557,18.25c-1.623-1.992-2.685-3.508-3.955-4.822c-8.209-8.498-16.464-16.951-24.162-24.863
			c5.319-5.999,10.478-11.816,15.661-17.664c2.964,1.623,4.344,3.968,6.591,5.71C481.852,475.418,477.947,478.06,474.952,481.604z"
			/>
		<path fill-rule="evenodd" clip-rule="evenodd" fill="#FEFEFE" d="M417.084,42.343c-1.21,2.75-1.716,5.375-3.565,7.865
			c-4.2-1.572-8.453-3.163-12.872-4.817c-0.964,2.483-1.783,4.594-2.701,6.958c4.135,1.692,8.066,3.301,12.143,4.969
			c-0.214,2.858-1.939,4.973-2.455,7.701c-4.792-0.375-8.467-3.322-13.033-4.174c-0.922,2.165-1.811,4.253-2.805,6.59
			c3.996,2.48,8.646,3.303,12.944,5.774c-0.986,2.56-1.956,5.073-3.059,7.935c-7.396-2.943-14.542-5.787-22.377-8.904
			c5.098-12.847,10.153-25.586,15.388-38.777C402.383,36.513,409.687,39.409,417.084,42.343z"/>
		<path fill-rule="evenodd" clip-rule="evenodd" fill="#FEFEFE" d="M454.944,100.432c-0.486,2.941-0.915,5.53-1.334,8.06
			c-10.502,1.01-21.114-7.737-23.33-19.037c-2.13-10.862,4.267-21.101,15.266-23.887c12.449-3.153,24.263,4.083,27.642,13.998
			c-2.127,2.065-4.956,3.027-7.457,4.505c-5.669-7.827-11.49-10.726-17.416-8.769c-4.446,1.468-7.975,6.289-8.032,10.975
			C440.204,92.591,444.03,96.329,454.944,100.432z"/>
		<path fill-rule="evenodd" clip-rule="evenodd" fill="#FEFEFE" d="M102.047,503.659c9.389-10.525,18.449-20.684,27.694-31.049
			c4.806,3.721,9.175,7.532,13.182,11.692c5.257,5.457,5.351,12.09,0.628,17.446c-4.868,5.521-11.812,6.437-17.858,2.206
			c-2.03-1.42-3.828-3.172-6.033-5.024c-3.325,3.671-6.618,7.307-10.137,11.192C107.084,508.015,104.746,505.993,102.047,503.659z"
			/>
		<path fill-rule="evenodd" clip-rule="evenodd" fill="#FEFEFD" d="M308.844,571.717c2.813,1.323,4.857,2.796,7.312,3.353
			c1.63,0.37,3.238,0.444,4.923,0.169c1.831-0.3,3.255-1.106,3.729-2.84c0.529-1.938-0.898-3.066-2.393-3.896
			c-1.15-0.639-2.401-1.098-3.62-1.608c-1.066-0.446-2.15-0.849-3.224-1.277c-7.744-3.092-9.919-8.896-8.785-13.694
			c1.536-6.502,7.097-10.757,14.31-10.656c3.218,0.045,7.152,1.168,11.024,3.191c0.218,2.909-1.987,4.983-2.516,7.499
			c-2.488,0.463-4.121-1.066-6.089-1.333c-1.7-0.23-3.26-0.307-4.882,0.232c-1.402,0.466-2.326,1.424-2.509,2.803
			c-0.173,1.3,0.86,2.071,1.896,2.681c2.009,1.181,4.178,1.973,6.378,2.716c2.518,0.852,4.909,1.963,6.975,3.706
			c6.451,5.445,5.611,15.018-1.713,19.299c-7.068,4.131-16.248,3.533-24.678-1.734C305.491,577.271,307.399,574.801,308.844,571.717
			z"/>
		<path fill-rule="evenodd" clip-rule="evenodd" fill="#FEFEFE" d="M462.629,486.208c1.791,2.364,0.871,5.463,2.259,8.229
			c-7.819,2.195-14.26,5.638-13.928,15.017c0.173,4.893,3.724,8.864,8.773,10.225c5.691,1.533,11.276-1.675,16.476-9.521
			c1.475,0.164,2.676,1.067,3.97,1.729c1.295,0.661,2.561,1.378,3.767,2.031c-3.282,10.899-15.355,18.018-26.385,15.805
			c-11.45-2.297-17.893-11.303-16.738-23.397C441.857,495.481,451.958,486.117,462.629,486.208z"/>
		<path fill-rule="evenodd" clip-rule="evenodd" fill="#FEFEFE" d="M254.657,51.891c2.03,2.349,3.863,4.471,5.644,6.532
			c-5.578,8.293-19.086,10.735-28.773,5.414c-9.595-5.271-13.516-16.511-9.268-26.565c4.674-11.062,17.449-16.525,29.635-12.548
			c0.057,2.966-0.965,5.736-1.723,8.541c-9.736-1.017-15.782,1.554-18.208,7.647c-1.953,4.904-0.346,10.619,4.096,13.69
			C240.531,57.694,247.377,58.322,254.657,51.891z"/>
		<path fill-rule="evenodd" clip-rule="evenodd" fill="#FEFEFD" d="M284.034,59.927c0.328-4.768-0.75-8.969-0.989-13.269
			c-0.2-3.602-1.877-5.619-4.355-5.646c-2.977-0.033-4.948,2.374-4.773,6.246c0.195,4.309,0.645,8.607,1.001,13.123
			c-2.654,1.087-5.523,0.653-9.14,1.71c-1.327-14.627-2.622-28.892-3.92-43.204c2.941-1.418,5.812-0.515,8.756-1.195
			c2.062,6.202,0.755,12.699,2.673,18.947c3.39-2.755,7.016-4.113,11.454-2.716c4.505,1.417,6.772,3.691,7.249,8.33
			c0.557,5.425,1.037,10.857,1.564,16.431C290.691,60.085,287.706,59.86,284.034,59.927z"/>
		<path fill-rule="evenodd" clip-rule="evenodd" fill="#FEFEFE" d="M475.629,134.1c-1.661-3.115-5.861-3.601-5.843-7.708
			c0.004-1.018-1.625-0.805-2.485-1.138c-5.703-2.208-9.254-7.068-8.959-12.444c0.325-5.927,5.125-11.809,10.987-13.465
			c5.294-1.496,11.175,0.777,14.283,5.665c1.325,2.085,1.884,4.48,4.96,5.307c1.821,0.49,3.162,2.765,4.946,4.452
			C487.818,121.493,481.842,127.663,475.629,134.1z"/>
		<path fill-rule="evenodd" clip-rule="evenodd" fill="#FDFDFD" d="M192.338,48.036c-2.484,2.419-5.661,2.795-8.526,4.953
			c4.765,9.615,9.579,19.328,14.523,29.304c-3.014,1.488-5.781,2.855-8.817,4.354c-4.902-9.738-9.721-19.312-14.622-29.049
			c-3.155,0.49-5.367,2.768-8.456,3.542c-2.186-1.769-2.571-4.676-4.424-7.382c8.882-4.404,17.434-8.644,26.142-12.961
			C190.289,42.982,190.796,45.81,192.338,48.036z"/>
		<path fill-rule="evenodd" clip-rule="evenodd" fill="#FEFEFE" d="M155.001,102.285c0.014,8.356-8.093,16.341-16.7,16.448
			c-7.153,0.089-13.313-6.067-13.293-13.283c0.024-8.421,8.192-16.362,16.842-16.373C149.293,89.067,154.989,94.788,155.001,102.285
			z"/>
		<path fill-rule="evenodd" clip-rule="evenodd" fill="#FDFDFD" d="M327.51,48.696c-6.26,0.687-12.147-0.852-18.094-0.62
			c1.059,5.647,4.719,6.533,11.164,2.777c2.176,0.719,4.086,2.008,5.994,3.311c-4.071,6.31-11.826,8.356-18.936,5.046
			c-6.759-3.147-9.834-10.078-7.494-16.89c2.256-6.568,9.732-10.595,16.9-9.103C324.416,34.751,328.107,40.012,327.51,48.696z"/>
		<path fill-rule="evenodd" clip-rule="evenodd" fill="#FDFDFD" d="M165.142,79.122c3.461,5.476,6.631,10.491,9.9,15.661
			c-2.555,1.91-4.971,3.538-7.873,4.945c-3.231-5.031-6.445-10.036-9.458-14.729c-1.715-1.281-2.534,1.09-4.159,0.241
			c-0.939-1.438-2.021-3.094-3.101-4.749c-0.063-1.674,2.147-1.518,2.332-3.031c-8.077-13.519-5.66-21.896,6.804-22.256
			c0.372,2.01,0.754,4.073,1.125,6.078c-4.883,4.07-4.883,4.07,0.458,11.078c1.824-0.038,2.83-2.043,5.008-2.272
			c1.262,1.613,2.565,3.417,3.55,5.612C168.242,76.809,166.806,77.88,165.142,79.122z"/>
		<path fill-rule="evenodd" clip-rule="evenodd" fill="#FDFCFC" d="M501.36,123.096c1.531,3.529,6.322,4.745,4.493,9.505
			c5.109,0.489,8.077,3.463,9.185,8.786c-2.751,0.962-5.363,1.77-8.055,1.754c-1.101-0.661-0.964-1.823-1.491-2.657
			c-2.328-3.683-4.639-4.327-8.227-1.71c-3.457,2.522-6.672,5.375-10.207,8.256c-2.028-2.379-3.927-4.606-6.043-7.088
			C487.792,134.331,494.276,128.962,501.36,123.096z"/>
		<path fill-rule="evenodd" clip-rule="evenodd" fill="#161926" d="M437.006,121.838c-4.672,5.509-9.548,10.862-13.93,16.593
			c-2.152,2.816-4.725,5.198-6.903,7.949c-1.888-2.028-6.118-2.17-5.201-6.458c6.482-5.867,12.969-11.73,19.444-17.605
			c1.077-0.978,2.592-1.603,2.78-3.328C434.466,119.938,435.736,120.888,437.006,121.838z"/>
		<path fill-rule="evenodd" clip-rule="evenodd" fill="#A1BEE3" d="M172.876,472.945c-0.527,1.738-2.1,2.398-3.382,3.404
			c-1.515,1.188-3.374,2.187-3.573,4.461c-0.946-0.256-1.637-0.809-2.005-1.734c1.442-3.742,4.152-6.495,7.083-9.075
			C172.269,470.572,172.501,471.805,172.876,472.945z"/>
		<path fill-rule="evenodd" clip-rule="evenodd" fill="#BABABA" d="M178.012,525.046c-1.979-2.973-0.613-6.233-0.809-9.36
			c0.534,0.004,1.069,0.008,1.604,0.011C179.647,518.907,177.169,521.836,178.012,525.046z"/>
		<path fill-rule="evenodd" clip-rule="evenodd" fill="#444544" d="M175.871,529.551c0.134-0.774-0.462-2.166,1.313-1.555
			c-0.331,1.432,0.201,3.064-1.007,4.289C176.075,531.374,175.973,530.463,175.871,529.551z"/>
		<path fill-rule="evenodd" clip-rule="evenodd" fill="#151A32" d="M385.918,179.997c-2.952,4.976-7.256,8.788-11.15,12.953
			c-5.592-1.011-10.968-2.389-13.823-8.08c3.692-3.992,7.987-7.322,12.036-10.921C377.508,175.503,382.046,177.037,385.918,179.997z
			"/>
		<path fill-rule="evenodd" clip-rule="evenodd" fill="#181E3A" d="M366.733,201.959c-3.431,4.84-8.086,8.559-11.922,13.027
			c-1.725,1.152-2.894,0.717-3.533-1.229c-0.303-2.208,1.494-3.336,2.641-4.826c-0.593-0.193-1.052-0.376-1.507-0.622
			c-2.208-1.52-4.893-1.983-7.143-3.326c-1.423-0.85-3.567-1.492-2.269-3.979c2.322-2.741,5.139-4.935,7.938-7.147
			c4.26,0.856,8.198,2.632,12.156,4.328C364.78,198.907,366.386,199.87,366.733,201.959z"/>
		<path fill-rule="evenodd" clip-rule="evenodd" fill="#4151A3" d="M288.873,372.978c-1.509,2.838-4.318,4.247-6.718,6.105
			c-0.314,0.139-0.71,0.3-0.935,0.135c-6.481-4.757-9.958-11.684-13.407-18.629c1.424-2.82,3.88-4.722,6.091-6.84
			c2.825,3.031,4.805,6.873,8.608,8.965c0.65,0.238,1.257,0.55,1.797,0.986C286.149,366.635,287.866,369.632,288.873,372.978z"/>
		<path fill-rule="evenodd" clip-rule="evenodd" fill="#181D37" d="M366.733,201.959c-2.722-2.461-6.106-3.627-9.482-4.765
			c-2.301-0.775-4.655-1.377-6.313-3.337c2.95-3.424,6.567-6.106,10.006-8.988c3.876,3.944,9.252,5.324,13.823,8.08
			C372.619,196.425,369.285,198.844,366.733,201.959z"/>
		<path fill-rule="evenodd" clip-rule="evenodd" fill="#39478E" d="M307.021,315.929c-0.914-2.334-2.85-1.059-4.289-1.084
			c-27.148-0.479-54.276,0.792-81.417,1.058c-1.597,0.016-3.256,0.377-5.229-0.527c1.861-2.92,4.497-4.582,6.843-6.526
			c8.23,0.398,16.399,0.301,24.514,2.904c5.922,1.899,12.505,0.875,18.807,0.682c3.895-0.23,7.782,0.302,11.675,0.063
			c3.336-0.321,6.67,0.091,10.006-0.003c3.06-0.168,6.12-0.149,9.18-0.006c2.925,0.029,5.883-0.454,8.759,0.326
			C308.118,313.425,308.208,313.822,307.021,315.929z"/>
		<path fill-rule="evenodd" clip-rule="evenodd" fill="#15192F" d="M385.918,179.997c-4.623-1.352-9.441-2.288-12.938-6.049
			c3.814-3.768,7.797-7.345,12.031-10.637c3.213,2.346,7.851,2.583,9.883,6.677C392.568,173.921,389.528,177.214,385.918,179.997z"
			/>
		<path fill-rule="evenodd" clip-rule="evenodd" fill="#36448A" d="M265.989,313.948c-7.093-0.251-14.205,0.699-21.295-0.822
			c-2.253-0.483-3.7-2.4-6.337-2.281c-3.031,0.137-6.066-0.574-9.193,0.071c-2.267,0.469-4.666,0.146-6.235-2.067
			c1.112-1.534,2.442-2.831,4.099-3.774c3.062-0.427,6.237,0.858,9.232-0.624c2.146,0.222,4.333,0.059,6.437,0.677
			c5.964,0.507,11.326,2.921,16.576,5.511c1.66,0.818,3.216,0.141,4.767,0.567C265.297,311.688,266.364,312.308,265.989,313.948z"/>
		<path fill-rule="evenodd" clip-rule="evenodd" fill="#14182B" d="M394.895,169.988c-2.303-2.216-5.808-2.257-8.119-4.517
			c-0.686-0.67-1.748-0.96-1.764-2.161c3.766-3.738,7.54-7.466,11.874-10.565c3.484,1.016,6.597,2.505,7.95,6.237
			C402.047,163.125,398.841,166.891,394.895,169.988z"/>
		<path fill-rule="evenodd" clip-rule="evenodd" fill="#5564AE" d="M261.241,397.09c-2.311,2.876-5.27,4.964-8.373,6.875
			c-4.458-1.8-11.004-10.268-10.952-14.167c1.449-2.15,3.124-4.104,5.074-5.818c4.273,0.465,6.127,4.198,8.862,6.687
			C257.913,392.54,259.776,394.672,261.241,397.09z"/>
		<path fill-rule="evenodd" clip-rule="evenodd" fill="#5161AC" d="M261.241,397.09c-1.204-0.078-2.217-0.454-2.94-1.528
			c-3.061-4.549-7.263-7.991-11.31-11.582c2.032-2.926,4.546-5.427,7.012-7.971c5.302,4.5,9.554,9.845,12.845,15.962
			C265.584,394.34,263.387,395.688,261.241,397.09z"/>
		<path fill-rule="evenodd" clip-rule="evenodd" fill="#141728" d="M404.836,158.982c-2.413-2.381-5.677-3.678-7.95-6.237
			c4.274-4.737,9.349-8.595,14.086-12.823c-0.071,1.679,1.215,2.242,2.409,2.757c1.672,0.722,2.693,1.838,2.792,3.701
			C413.044,151.167,408.844,154.988,404.836,158.982z"/>
		<path fill-rule="evenodd" clip-rule="evenodd" fill="#4656A6" d="M267.813,360.589c5.742,5.419,7.981,13.555,14.342,18.494
			c-1.662,2.141-3.76,3.775-6.038,5.202c-4.863-3.018-12.914-14.252-13.148-18.348C264.278,363.877,265.943,362.14,267.813,360.589z
			"/>
		<path fill-rule="evenodd" clip-rule="evenodd" fill="#2F3B77" d="M307.021,315.929c1.512-1.656,0.17-1.882-1.055-1.928
			c-2.968-0.111-5.941-0.107-8.912-0.149c-0.892-1.706-1.97-3.251-3.371-4.609c-0.977-0.947-1.596-2.142,0.172-3.074
			c1.811-0.671,3.637-0.478,5.473-0.146c3.677,1.056,7.445,0.401,11.164,0.604c3.001,0.164,5.433,1.047,6.298,4.289
			c-1.541,5.691-5.56,9.438-10.082,12.795c-2.147,0.236-3.904-0.05-3.769-2.842C304.301,319.222,305.661,317.575,307.021,315.929z"
			/>
		<path fill-rule="evenodd" clip-rule="evenodd" fill="#5B6CB3" d="M247.271,409.101c-1.992,2.4-4.354,4.37-7,6.011
			c-0.607,0.264-1.395,0.714-1.872,0.296c-3.732-3.27-8.097-6.044-9.37-11.349c1.999-2.71,4.319-5.121,6.82-7.366
			C241.059,399.538,243.546,404.889,247.271,409.101z"/>
		<path fill-rule="evenodd" clip-rule="evenodd" fill="#5868B1" d="M247.271,409.101c-1.005-0.097-1.993-0.27-2.661-1.126
			c-2.928-3.755-5.842-7.521-8.761-11.282c1.685-2.595,3.638-4.954,6.067-6.895c0,2.292,1.917,3.313,3.159,4.79
			c2.615,3.111,5.197,6.25,7.793,9.377C251.633,406.363,249.425,407.703,247.271,409.101z"/>
		<path fill-rule="evenodd" clip-rule="evenodd" fill="#5E6FB5" d="M229.03,404.059c2.549,3.81,6.617,6.282,9.023,10.245
			c0.319,0.524,1.458,0.551,2.218,0.808c-2.325,2.853-5.236,4.991-8.368,6.859c-4.298-1.382-8.981-7.13-8.874-10.892
			C224.693,408.451,226.974,406.351,229.03,404.059z"/>
		<path fill-rule="evenodd" clip-rule="evenodd" fill="#4A5AA8" d="M262.97,365.938c1.395,3.42,3.442,6.363,6.247,8.795
			c3.041,2.637,4.27,6.606,6.901,9.553c-1.145,1.522-2.506,2.797-4.219,3.667c-0.318,0.118-0.708,0.267-0.946,0.108
			c-6.072-4.045-9.975-9.837-13.06-16.282C259.338,369.616,260.871,367.531,262.97,365.938z"/>
		<path fill-rule="evenodd" clip-rule="evenodd" fill="#6374B8" d="M223.029,411.079c1.959,4.443,5.807,7.351,8.874,10.892
			c-1.471,2.89-4.354,4.229-6.724,6.133c-5.304-0.48-9.035-5.111-8.223-10.207C218.822,415.482,220.661,413.045,223.029,411.079z"/>
		<path fill-rule="evenodd" clip-rule="evenodd" fill="#4D5DAA" d="M257.894,371.778c5.147,4.977,7.993,11.945,14.005,16.174
			c-1.173,1.98-3.348,2.703-5.051,4.019c-4.759-4.937-9.164-10.158-12.845-15.962C254.959,374.285,256.386,372.995,257.894,371.778z
			"/>
		<path fill-rule="evenodd" clip-rule="evenodd" fill="#1A203D" d="M343.001,201.005c0.67,3.014,3.589,2.875,5.595,4.044
			c1.543,0.899,4.211,0.208,4.432,3.036c-2.594,4.938-7.69,5.246-12.221,6.616c-1.963-0.372-3.732-1.251-5.416-2.261
			c-1.273-0.764-2.596-1.674-1.413-3.505C336.801,206.082,339.816,203.447,343.001,201.005z"/>
		<path fill-rule="evenodd" clip-rule="evenodd" fill="#1D2342" d="M333.978,208.935c-0.024,1.885,1.46,2.565,2.806,2.822
			c1.712,0.327,2.779,1.567,4.212,2.241c0.159,0.504,0.147,1.099-0.277,1.347c-6.108,3.571-12.681,6.274-18.712,10.004
			c-1.517-0.718-2.693-1.636-2.105-3.588C324.057,216.898,329.296,213.223,333.978,208.935z"/>
		<path fill-rule="evenodd" clip-rule="evenodd" fill="#697BBC" d="M216.957,417.896c1.355,4.519,3.698,8.242,8.223,10.207
			c-1.988,2.475-4.428,4.424-7.095,6.108c-2.927-2.715-6.659-4.813-7.175-9.373C212.705,422.332,214.447,419.78,216.957,417.896z"/>
		<path fill-rule="evenodd" clip-rule="evenodd" fill="#6F81BF" d="M210.91,424.839c1.95,3.462,6.027,5.297,7.175,9.373
			c-1.71,2.021-3.551,3.889-5.958,5.095c-3.09-2.34-6.596-4.404-6.069-9.146C207.302,428.047,208.985,426.333,210.91,424.839z"/>
		<path fill-rule="evenodd" clip-rule="evenodd" fill="#3F4E9E" d="M282.11,363.962c-3.497-2.792-7.645-5.062-8.205-10.213
			c1.118-1.785,2.388-3.437,4.107-4.696c3.116,2.646,6.454,5.083,8.355,8.876C286.178,360.806,284.204,362.427,282.11,363.962z"/>
		<path fill-rule="evenodd" clip-rule="evenodd" fill="#23294C" d="M319.9,221.762c0.756,1.233,1.512,2.467,2.269,3.701
			c-0.146,2.438-1.951,3.884-3.612,5.082c-3.592,2.589-6.989,5.446-10.724,7.846c-1.934-0.342-3.316-1.143-2.86-3.459
			C309.784,230.354,314.62,225.806,319.9,221.762z"/>
		<path fill-rule="evenodd" clip-rule="evenodd" fill="#2B3668" d="M261.901,273.776c2.988-3.382,6.458-6.227,10.006-8.985
			c1.873,0.393,3.745,0.787,5.254,2.1c-1.555,6.025-6.495,8.439-11.508,10.787C263.254,277.482,261.516,276.647,261.901,273.776z"/>
		<path fill-rule="evenodd" clip-rule="evenodd" fill="#28315C" d="M279.68,257.866c3.413-3.73,7.188-7.059,11.215-10.106
			c1.807,0.489,2.941,1.662,3.492,3.431c-2.199,5.276-6.378,8.364-11.513,10.402C280.81,261.208,280.008,259.739,279.68,257.866z"/>
		<path fill-rule="evenodd" clip-rule="evenodd" fill="#3C4B98" d="M285.625,357.989c-2.057-3.389-6.563-4.689-7.613-8.937
			c1.257-2.117,2.956-3.843,4.819-5.421c2.823,2.347,4.685,5.439,6.61,8.491C289.186,354.739,288.653,357.177,285.625,357.989z"/>
		<path fill-rule="evenodd" clip-rule="evenodd" fill="#798BC6" d="M207.954,442.979c-1.005,2.193-3.51,2.497-5.055,4.009
			c-4.035,0.578-6.229-1.339-7.009-5.171c1.718-1.94,2.738-4.48,5.068-5.895C204.93,436.647,206.406,439.849,207.954,442.979z"/>
		<path fill-rule="evenodd" clip-rule="evenodd" fill="#7486C2" d="M207.954,442.979c-3.113-1.578-4.154-5.21-6.996-7.057
			c1.511-2.088,3.157-4.056,5.101-5.761c1.071,3.681,4.743,5.635,6.069,9.146C210.966,440.793,209.659,442.112,207.954,442.979z"/>
		<path fill-rule="evenodd" clip-rule="evenodd" fill="#869CD0" d="M197.235,452.106c-2.232,2.871-5.166,4.93-8.1,6.987
			c-5.01-1.271-5.343-2.372-2.177-7.182c1.363-1.588,2.726-3.177,4.089-4.765C193.519,448.29,195.652,449.854,197.235,452.106z"/>
		<path fill-rule="evenodd" clip-rule="evenodd" fill="#7E92CA" d="M197.235,452.106c-2.794-0.74-4.944-2.284-6.188-4.959
			c1.232-2.124,2.926-3.829,4.843-5.331c1.842,2.394,4.098,4.227,7.009,5.171C201.711,449.469,199.423,450.731,197.235,452.106z"/>
		<path fill-rule="evenodd" clip-rule="evenodd" fill="#3B4993" d="M288.949,351.987c-3.094-2.013-5.068-4.847-6.119-8.355
			c1.078-1.836,2.387-3.467,4.133-4.716c3.353,1.329,3.91,4.805,5.665,7.366C292.511,348.898,292.383,351.512,288.949,351.987z"/>
		<path fill-rule="evenodd" clip-rule="evenodd" fill="#39478D" d="M292.047,346.002c-3.243-1.252-3-5.003-5.083-7.086
			c0.916-1.629,2.196-2.931,3.657-4.07c2.997-0.856,4.739,1.119,6.569,2.905C297.147,341.54,296.214,344.78,292.047,346.002z"/>
		<path fill-rule="evenodd" clip-rule="evenodd" fill="#2E396F" d="M261.901,273.776c0.849,1.705,1.922,3.127,4.053,3.216
			c-0.24,4.279-3.301,5.918-6.74,7.216c-2.343-0.141-5.336,1.42-6.292-2.38C255.602,278.794,258.656,276.178,261.901,273.776z"/>
		<path fill-rule="evenodd" clip-rule="evenodd" fill="#97B3DD" d="M172.876,472.945c-1.305-0.548-1.892-1.554-1.877-2.944
			c0.114-0.539,0.431-0.884,0.972-1.014c1.125-0.851,2.596-1.383,2.828-3.06c1.367-2.309,2.834-4.532,5.168-6.01
			c1.67,0.946,2.722,2.368,3.232,4.206C180.389,467.803,176.561,470.291,172.876,472.945z"/>
		<path fill-rule="evenodd" clip-rule="evenodd" fill="#374487" d="M296.973,337.992c-2.513-0.251-4.016-2.54-6.352-3.146
			c1.246-3.021,3.945-4.762,6.131-6.954c2.584-0.532,3.454,1.475,4.591,3.093C301.034,334.034,300.696,337.07,296.973,337.992z"/>
		<path fill-rule="evenodd" clip-rule="evenodd" fill="#2A3462" d="M279.68,257.866c1.609,0.688,1.802,2.988,3.749,3.292
			c-0.874,3.417-3.002,5.424-6.552,5.837c-1.997,0.032-4.089,0.282-4.97-2.204C274.156,262.098,276.78,259.827,279.68,257.866z"/>
		<path fill-rule="evenodd" clip-rule="evenodd" fill="#303C75" d="M252.922,281.828c2.037,2.23,4.686,0.734,7.021,1.153
			c-0.595,4.948-5.056,5.624-8.367,7.582c-2.1-0.388-4.913,0.724-5.61-2.641C247.601,285.109,250.625,283.883,252.922,281.828z"/>
		<path fill-rule="evenodd" clip-rule="evenodd" fill="#90A8D7" d="M183.199,464.124c-1.722-0.907-3.154-2.036-3.232-4.206
			c2.278-2.714,3.94-5.966,6.991-8.006c0.166,1.437-0.791,2.399-1.575,3.404c0.861,1.765,2.159,2.917,3.751,3.777
			C187.685,461.395,185.379,462.686,183.199,464.124z"/>
		<path fill-rule="evenodd" clip-rule="evenodd" fill="#354180" d="M300.927,330.999c-2.219,0.076-2.217-2.832-4.175-3.107
			c1.806-2.567,3.729-5.032,6.188-7.023c0.698,1.91,2.228,2.255,4.008,2.128C307.334,327.464,304.336,329.386,300.927,330.999z"/>
		<path fill-rule="evenodd" clip-rule="evenodd" fill="#364386" d="M236.288,305.092c-3.093,3.135-6.176,1.344-9.26-0.018
			c0.922-1.414,2.211-2.403,3.685-3.179c2.643-1.313,5.219-3.505,8.184-0.626C239.844,303.78,238.529,304.752,236.288,305.092z"/>
		<path fill-rule="evenodd" clip-rule="evenodd" fill="#272F57" d="M293.825,250.988c-1.285-0.796-2.364-1.779-2.93-3.228
			c2.006-2.579,4.474-4.648,7.157-6.479c1.591,0.27,2.722,1.112,3.297,2.648C300.498,248.042,297.053,249.4,293.825,250.988z"/>
		<path fill-rule="evenodd" clip-rule="evenodd" fill="#262D52" d="M300.967,243.991c-1.279-0.572-2.161-1.573-2.915-2.711
			c2.307-2.116,4.613-4.233,6.92-6.35c0.553,1.352,1.615,2.241,2.766,3.05C307.8,242.597,303.897,242.746,300.967,243.991z"/>
		<path fill-rule="evenodd" clip-rule="evenodd" fill="#333E79" d="M245.966,287.922c1.513,2.018,4.306,0.373,5.93,2.072
			c0.418,3.375-2.265,3.954-4.471,4.976c-2.57,0.196-5.372,0.775-5.527-3.2C242.979,290.197,244.438,289.024,245.966,287.922z"/>
		<path fill-rule="evenodd" clip-rule="evenodd" fill="#364383" d="M238.882,301.996c-2.698-2.084-5.444-0.275-8.169-0.101
			c1.806-2.278,4.037-4.106,6.273-5.929c2.292-0.162,4.389,0.315,6.155,1.883C243.296,300.849,241.482,301.826,238.882,301.996z"/>
		<path fill-rule="evenodd" clip-rule="evenodd" fill="#35407E" d="M243.417,298.159c-2.305-0.257-4.609-0.52-6.432-2.192
			c1.431-1.641,3.105-2.996,4.913-4.196c1.117,2.955,3.678,2.09,5.864,2.218C248.182,297.326,245.669,297.606,243.417,298.159z"/>
		<path fill-rule="evenodd" clip-rule="evenodd" fill="#A1BEE3" d="M174.798,465.928c0.412,1.984,0.134,2.286-2.828,3.06
			C172.639,467.714,173.562,466.676,174.798,465.928z"/>
		<path fill-rule="evenodd" clip-rule="evenodd" fill="#1C2244" d="M397.096,280.215c-2.429,3.385-6.274,5.07-9.293,7.747
			c-4.042-1.114-4.038-4.97-5.374-7.918c0.116-1.748,2.048-2.479,2.545-4.115c-2.167-1.283-4.867-0.08-6.629-1.983
			c-1.304-1.87-1.987-3.775-0.342-5.813c5.002-0.258,10.001-0.254,14.999,0.094C395.198,271.938,396.844,275.838,397.096,280.215z"
			/>
		<path fill-rule="evenodd" clip-rule="evenodd" fill="#1E254A" d="M378.003,268.132c-0.385,2.045,0.665,3.841,1.001,5.76
			c-1.019,1.325-2.519,1.609-4.011,1.622c-6.959,0.06-13.928,0.59-20.868-0.339c-3.255-1.332-5.597-4.058-8.646-5.734
			c-0.693-0.381-1.095-1.275,0.05-1.869c2.293,0.016,4.603-0.362,6.868,0.294C360.938,267.451,369.47,267.854,378.003,268.132z"/>
		<path fill-rule="evenodd" clip-rule="evenodd" fill="#2C3561" d="M352.397,267.866c-2.393,0.11-4.784,0.221-7.177,0.331
			c-2.395,1.986-5.289,0.887-7.938,1.294c-8.386-0.16-16.805,0.729-25.155-0.72c-0.644-0.178-0.316,1.104-0.215,0.445
			c0.033-0.217,0.112-0.27,0.244-0.26c2.821,0.212,3.455,1.851,2.828,4.32c-4.176,2.162-8.666,0.721-12.991,1.142
			c-1.96-0.088-4.336,0.25-5.206-1.96c-0.863-2.194,1.097-3.634,2.421-5.063c1.346-1.452,2.691-2.955,4.643-3.648
			c2.067-0.175,3.332,1.429,4.948,2.263c1.271,2.003,3.313,1.15,4.981,1.164c11.578,0.1,23.161-0.27,34.736,0.252
			C349.817,267.484,351.176,267.101,352.397,267.866z"/>
		<path fill-rule="evenodd" clip-rule="evenodd" fill="#1E2549" d="M382.99,279.961c2.39,2.194,2.274,5.896,4.813,8
			c-2.865,3.907-7.012,6.366-10.64,9.411c-3.22-2.128-3.868-5.452-4.167-8.942C375.009,284.059,378.319,281.207,382.99,279.961z"/>
		<path fill-rule="evenodd" clip-rule="evenodd" fill="#1F2442" d="M397.096,280.215c-2.371-3.653-3.925-7.584-4.094-11.989
			c5.563-0.203,11.121-0.316,17.983,0.563C405.688,272.954,401.798,277.035,397.096,280.215z"/>
		<path fill-rule="evenodd" clip-rule="evenodd" fill="#212950" d="M373.949,287.849c0.077,3.51,2.239,6.316,3.214,9.524
			c-2.375,2.552-4.898,4.93-7.897,6.752c-4.474-1.334-3.388-5.397-4.199-8.534C366.435,291.19,369.58,288.816,373.949,287.849z"/>
		<path fill-rule="evenodd" clip-rule="evenodd" fill="#242D58" d="M363.158,309.451c-1.896,2.519-4.77,3.906-6.996,6.041
			c-2.732-2.424-3.22-5.835-4.017-9.113c1.149-3.906,4.045-5.782,7.783-6.675C363.034,302.277,363.742,305.65,363.158,309.451z"/>
		<path fill-rule="evenodd" clip-rule="evenodd" fill="#27305E" d="M352.944,305.838c1.185,3.181,2.71,6.248,3.218,9.654
			c-1.817,2.227-4.18,3.801-6.498,5.428c-2.222-2.67-3.872-5.61-4.31-9.13C346.811,308.437,349.272,306.364,352.944,305.838z"/>
		<path fill-rule="evenodd" clip-rule="evenodd" fill="#242B4F" d="M334.955,236.99c-3.078,5.514-8.188,9.252-12.191,13.958
			c-2.2,0.175-3.072-1.118-3.372-3.047c3.618-5.485,7.36-10.862,13.265-14.224C334.263,234.196,334.461,235.695,334.955,236.99z"/>
		<path fill-rule="evenodd" clip-rule="evenodd" fill="#3C4B96" d="M299.812,363.936c-1.17,1.964-3.345,2.678-5.012,4.024
			c-4.118-0.604-5.742-3.829-7.396-7.028c1.248-3.591,3.968-5.408,7.517-6.227C297.674,357.184,299.624,360.094,299.812,363.936z"/>
		<path fill-rule="evenodd" clip-rule="evenodd" fill="#37458A" d="M310.108,355.047c-1.062,1.999-3.281,2.641-4.805,4.098
			c-5.006-0.317-5.381-4.226-6.109-7.866c1.358-2.975,3.408-5.102,6.832-5.532C308.562,348.328,310.046,351.376,310.108,355.047z"/>
		<path fill-rule="evenodd" clip-rule="evenodd" fill="#2A3568" d="M345.857,323.994c-1.551,2.904-4.45,4.229-6.992,5.974
			c-2.049-2.776-4.241-5.484-4.439-9.163c1.485-2.568,3.35-4.654,6.504-5.091C343.47,317.937,344.289,321.188,345.857,323.994z"/>
		<path fill-rule="evenodd" clip-rule="evenodd" fill="#232C55" d="M363.158,309.451c-1.063-3.188-2.128-6.374-3.191-9.561
			c0.33-3.63,2.916-4.634,5.952-5.114c1.18,3.093,0.793,6.748,3.347,9.348C367.525,306.239,365.501,308.028,363.158,309.451z"/>
		<path fill-rule="evenodd" clip-rule="evenodd" fill="#3E4D9C" d="M287.947,360.848c2.278,2.377,4.111,5.182,6.853,7.112
			c-1.17,2.623-3.865,3.446-5.927,5.018c-2.822-2.23-4.034-5.358-4.856-8.704C284.419,362.09,285.52,360.707,287.947,360.848z"/>
		<path fill-rule="evenodd" clip-rule="evenodd" fill="#2C376C" d="M335.042,321.19c1.402,2.87,3.14,5.595,3.823,8.777
			c-0.596,2.37-3.204,2.582-4.502,4.199c-4.411-0.842-4.479-4.577-5.244-7.856C330.125,323.488,331.273,320.822,335.042,321.19z"/>
		<path fill-rule="evenodd" clip-rule="evenodd" fill="#344183" d="M310.108,355.047c-1.788-2.759-3.102-5.737-4.097-8.862
			c0.659-2.65,2.229-4.275,5.049-4.5c2.771,1.825,3.486,5.35,6.051,7.353C315.106,351.425,312.66,353.297,310.108,355.047z"/>
		<path fill-rule="evenodd" clip-rule="evenodd" fill="#333F7E" d="M317.111,349.037c-1.898,0.23-3.071-0.619-3.808-2.355
			c-0.704-1.658-1.572-3.247-2.368-4.866c0.627-3.702,2.658-5.484,6.521-4.771c1.949,2.832,3.787,5.7,2.688,9.406
			C319.316,347.526,318.398,348.499,317.111,349.037z"/>
		<path fill-rule="evenodd" clip-rule="evenodd" fill="#202643" d="M351.996,212.979c-0.003,1.989,1.354,2.072,2.815,2.007
			c-2.835,5.341-8.432,8.17-11.824,13.005c-1.941,1.179-2.837,0.028-3.53-1.58C342.03,220.439,346.432,216.167,351.996,212.979z"/>
		<path fill-rule="evenodd" clip-rule="evenodd" fill="#394890" d="M299.967,350.896c1.006,3.249,1.875,6.587,5.337,8.248
			c-1.554,1.914-3.36,3.538-5.492,4.791c-1.837-2.797-3.521-5.677-4.781-8.788C295.115,351.918,297.249,351.067,299.967,350.896z"/>
		<path fill-rule="evenodd" clip-rule="evenodd" fill="#283262" d="M345.857,323.994c-3.352-1.643-3.793-5.045-4.876-8.059
			c0.527-2.745,2.307-3.95,4.983-4.052c1.346,2.966,3.023,5.796,3.699,9.036C349.14,322.866,346.867,322.648,345.857,323.994z"/>
		<path fill-rule="evenodd" clip-rule="evenodd" fill="#2F3B74" d="M329.975,337.988c-1.154,2.02-3.322,2.744-5.088,3.984
			c-3.62-1.385-3.979-5.037-5.491-7.893c0.58-2.821,2.705-3.874,5.181-4.525C328.382,331.075,329.306,334.45,329.975,337.988z"/>
		<path fill-rule="evenodd" clip-rule="evenodd" fill="#29315B" d="M308.801,266.01c-2.171,1.013-3.398,0.258-3.806-2.033
			c0.763-5.037,4.989-6.876,8.581-9.303c1.622,0.672,3.598,1.104,2.55,3.648C314.246,261.42,311.555,263.745,308.801,266.01z"/>
		<path fill-rule="evenodd" clip-rule="evenodd" fill="#2E3970" d="M329.975,337.988c-1.672-2.706-3.344-5.411-5.015-8.117
			c0.192-3.089,1.696-4.646,4.911-4.207c0.891,3.154,1.968,6.211,4.492,8.503C333.139,335.714,331.73,337.051,329.975,337.988z"/>
		<path fill-rule="evenodd" clip-rule="evenodd" fill="#313D79" d="M319.979,333.93c2.354,2.242,2.865,5.61,4.907,8.043
			c-0.646,2.482-3.469,2.659-4.741,4.479c-0.632-3.383-2.804-6.251-3.239-9.699C316.956,334.75,317.814,333.628,319.979,333.93z"/>
		<path fill-rule="evenodd" clip-rule="evenodd" fill="#242A4A" d="M340.011,226.023c0.546,1.331,1.522,2.011,2.977,1.968
			c-1.281,4.246-6.007,5.417-8.032,8.999c-1.403-0.576-1.99-1.673-2.003-3.137C333.833,229.916,336.277,227.389,340.011,226.023z"/>
		<path fill-rule="evenodd" clip-rule="evenodd" fill="#282F56" d="M316.126,258.322c0.646-2.03-2.682-1.58-2.192-3.512
			c0.809-3.354,2.048-6.328,6.05-6.869c0.564,1.337,1.575,2.263,2.78,3.007C320.213,253.101,318.218,255.755,316.126,258.322z"/>
		<path fill-rule="evenodd" clip-rule="evenodd" fill="#030303" d="M157.998,508.851c5.315,0.102,9.774,4.634,9.726,9.887
			c-0.064,6.945-6.405,13.745-12.611,13.522c-5.25-0.188-9.903-4.88-9.833-9.913C145.377,515.507,151.762,508.731,157.998,508.851z"
			/>
		<path fill-rule="evenodd" clip-rule="evenodd" fill="#030303" d="M346.92,557.177c0.018-6.38,2.889-10.313,7.729-11.23
			c5.404-1.026,9.49,1.282,11.817,6.674c3.058,7.087,0.792,14.338-5.121,16.387c-6.847,2.372-13.058-1.736-14.305-9.498
			C346.884,558.533,346.936,557.524,346.92,557.177z"/>
		<path fill-rule="evenodd" clip-rule="evenodd" fill="#0B0B0B" d="M422.428,531.104c-1.621-2.908-3.131-5.617-4.625-8.298
			c4.182-3.633,6.896-3.797,9.099-0.647C429.237,525.499,428.287,527.558,422.428,531.104z"/>
		<path fill-rule="evenodd" clip-rule="evenodd" fill="#0A0B0B" d="M264.455,558.389c0.358-3.344,0.686-6.404,1.008-9.411
			c6.146-0.007,8.032,1.383,7.71,5.366C272.858,558.227,270.563,559.395,264.455,558.389z"/>
		<path fill-rule="evenodd" clip-rule="evenodd" fill="#0B0B0B" d="M125.134,492.602c2.345-2.547,4.449-4.833,6.611-7.183
			c2.916,1.541,5.026,3.674,5.047,6.834c0.015,2.255-1.799,4.12-3.984,4.525C129.517,497.388,127.379,495.09,125.134,492.602z"/>
		<path fill-rule="evenodd" clip-rule="evenodd" fill="#0A0A0A" d="M473.734,108.563c3.011-0.126,5.851,2.46,5.979,5.447
			c0.125,2.915-2.499,5.848-5.426,6.064c-3.126,0.231-6.293-2.637-6.287-5.695C468.006,111.54,470.819,108.686,473.734,108.563z"/>
		<path fill-rule="evenodd" clip-rule="evenodd" fill="#101010" d="M145.997,103.857c0.032,2.736-2.998,5.796-5.8,5.858
			c-2.78,0.063-5.775-2.821-5.916-5.696c-0.155-3.181,2.77-6.142,5.951-6.022C143.115,98.106,145.964,101.002,145.997,103.857z"/>
		<path fill-rule="evenodd" clip-rule="evenodd" fill="#242525" d="M309.488,42.417c4.111-4.405,6.667-4.126,8.859,0.506
			C315.549,43.068,312.842,43.36,309.488,42.417z"/>
		<path fill-rule="evenodd" clip-rule="evenodd" fill="#FFFFFF" d="M319.983,247.94c-2.477,1.885-4.341,4.309-6.05,6.869
			c-2.979,3.056-5.959,6.111-8.938,9.167c-2.892,2.749-6.41,4.918-8.308,8.635c1.341,1.172,2.61,0.843,3.879,0.507
			c6.27,0.828,12.471,0.049,18.732-0.408c8.088-0.591,16.243-0.071,24.368-0.204c3.227-0.369,6.381-0.229,9.333,1.326
			c8.668,0.02,17.336,0.04,26.004,0.06c2.919,0,5.839,0,9.142,0c-0.718,3.478-3.924,3.92-5.155,6.069
			c-3.014,2.629-6.027,5.258-9.041,7.888c-2.832,2.128-5.688,4.232-8.03,6.928c-2.179,1.477-4.305,3.018-5.952,5.114
			c-2.477,1.822-5.065,3.512-7.022,5.947c-2.467,1.854-5.01,3.619-6.979,6.046c-1.831,1.142-3.498,2.485-4.983,4.052
			c-1.979,1.752-3.96,3.503-5.939,5.255c-2.026,1.142-3.702,2.688-5.171,4.474c-1.888,1.109-3.617,2.404-4.911,4.207
			c-1.693,1.313-3.936,1.952-4.98,4.059c-1.163,0.79-2.334,1.571-3.073,2.822c-2.227,1.409-4.27,3.035-5.971,5.063
			c-1.903,1.161-3.362,2.822-4.924,4.369c-2.015,1.57-4.029,3.141-6.045,4.712c-1.645,1.417-3.291,2.834-4.936,4.251
			c-2.556,1.658-5.177,3.235-7.083,5.7c-1.514,0.908-2.791,2.089-3.931,3.426c-0.636-0.104-1.271-0.207-1.907-0.312
			c1.172-1.99,2.344-3.981,3.515-5.973c1.305-1.892,2.593-3.793,3.324-6.002c1.338-1.837,2.952-3.531,3.098-5.985
			c2.193-2.331,3.807-5.018,4.926-8.01c1.723-2.102,3.055-4.426,3.955-6.993c1.982-2.687,4.94-4.639,6.021-8.003
			c3.051-3.581,6.102-7.161,9.152-10.741c2.097-4.172-1.056-4.48-3.701-4.707c-4.442-0.382-8.931,0.311-13.377-0.374
			c-2.001-0.012-4.003-0.023-6.005-0.035c-3.018,2.313-6.498,1.188-9.808,1.322c-2.986,0.165-5.97,0.21-8.933-0.305
			c-5.917-1.334-11.876-0.808-17.833-0.385c-0.573,0.09-1.146,0.089-1.719,0.021c-3.817-1.146-7.8-1.139-11.708-1.66
			c-2.181-0.746-4.682,0.572-6.729-1.04c0.905-0.997,2.306-1.58,2.594-3.096c1.536-1.25,3.561-1.923,4.535-3.837
			c1.005-1.852,3.622-2.024,4.345-4.17c1.19-1.526,3.704-1.682,4.134-3.995c2.564-2.473,6.046-3.893,8.047-7.013
			c2.248-1.751,4.699-3.298,6.012-5.989c4.11-2.82,8.012-5.868,10.922-9.998c2.441-1.657,4.81-3.395,6.552-5.837
			c3.16-3.702,7.891-5.798,10.396-10.169c1.488-3.244,5.9-3.502,7.142-6.997c2.092-2.189,5.379-3.032,6.771-6.01
			c4.021-5.083,10.298-7.564,14.431-12.518c2.878-4.597,7.858-5.986,12.357-8.123c2.192-1.041,4.551-1.769,6.469-3.342
			c3.867-2.265,8.606-2.752,12.032-5.913c0.813,0,1.625,0,2.883,0c-1.45,1.813-2.682,3.354-3.914,4.894
			c-4.017,4.329-8.349,8.367-11.985,13.044c-2.354,2.61-4.706,5.219-7.059,7.829C328.375,238.314,324.111,243.065,319.983,247.94z"
			/>
		<path fill-rule="evenodd" clip-rule="evenodd" fill="#364385" d="M255.366,306.882l0.189-0.022
			c3.536-0.737,7.115-0.164,10.661-0.352c4.423-0.151,7.724,2.375,11.063,4.748c0.842,0.598,1.195,1.564,0.703,2.638
			c-3.998,0.018-7.996,0.036-11.994,0.055c-0.375-0.944-1.038-1.597-1.992-1.95c-3.581-1.71-7.882-1.655-11.14-4.222
			C253.463,306.084,254.456,306.64,255.366,306.882z"/>
		<path fill-rule="evenodd" clip-rule="evenodd" fill="#344081" d="M277.983,313.894c-0.921-0.577-0.218-3.156-2.878-1.79
			c-1.906,0.978,0.19-1.612-1.073-2.09c-2.068-0.782-4.013-1.892-6.01-2.862c2.056-1.171,4.181-0.695,6.303-0.262
			c2.901-0.421,5.791-0.235,8.677,0.156c1.822,2.154,5.568,2.9,4.988,6.813C284.654,313.871,281.319,313.882,277.983,313.894z"/>
		<path fill-rule="evenodd" clip-rule="evenodd" fill="#313C7A" d="M287.99,313.859c-0.647-3.015-4.9-3.39-4.988-6.813
			c3.342-0.32,6.679-0.208,10.015,0.093c0.566,1.512,2.145,1.798,3.248,2.656c1.477,1.148,1.961,2.424,0.79,4.057
			C294.033,313.854,291.012,313.856,287.99,313.859z"/>
		<path fill-rule="evenodd" clip-rule="evenodd" fill="#384588" d="M255.366,306.882c-0.469,0.113-0.938,0.226-1.518,0.365
			c1.51,1.483,3.46,1.363,5.157,1.963c1.766,0.624,4.131,0.458,4.993,2.788c-4.481,2.042-7.673-1.617-11.279-2.887
			c-2.797-0.984-5.173-2.758-8.356-1.695c-0.275,0.092-0.888-0.832-1.345-1.284C247.155,306.038,251.307,305.689,255.366,306.882z"
			/>
		<path fill-rule="evenodd" clip-rule="evenodd" fill="#343E76" d="M299.022,307.174c6.76-0.178,13.505-0.036,20.5,0.568
			c-0.779,2.152-1.983,3.421-3.422,4.513c-0.43-3.24-2.451-4.167-5.505-4.305C306.738,307.776,302.77,308.959,299.022,307.174z"/>
		<path fill-rule="evenodd" clip-rule="evenodd" fill="#293057" d="M353,273.833c-3.004-0.009-6.007-0.019-9.011-0.028
			c-0.639-0.243-1.26-0.513-1.723-1.048c-0.646-2.789-4.795-1.676-5.231-4.692c2.729,0.044,5.457,0.088,8.186,0.133
			C348.426,269.23,351.221,270.83,353,273.833z"/>
		<path fill-rule="evenodd" clip-rule="evenodd" fill="#29315B" d="M337.035,268.064c0.595,0.983,1.576,0.957,2.53,0.934
			c2.781-0.068,3.583,1.544,3.433,3.987c-9.326,0.711-18.649,1.038-27.963-0.173c-1.078-1.754-1.644-3.973-4.083-4.748
			C319.646,268.064,328.341,268.064,337.035,268.064z"/>
		<path fill-rule="evenodd" clip-rule="evenodd" fill="#353D6A" d="M315.035,272.812c9.32,0.058,18.642,0.116,27.963,0.173
			c0.33,0.273,0.661,0.546,0.991,0.819c-13.843-0.065-27.686-0.124-41.528-0.215c-0.632-0.004-1.263-0.308-1.894-0.472
			C305.39,273.016,310.212,272.914,315.035,272.812z"/>
		<path fill-rule="evenodd" clip-rule="evenodd" fill="#384588" d="M274.325,306.89c-2.101,0.087-4.202,0.174-6.303,0.262
			c-4.155-0.098-8.311-0.194-12.466-0.292C261.814,305.292,268.069,306.243,274.325,306.89z"/>
	</g>
</g>
</svg>
