<?xml version="1.0" encoding="utf-8"?>
<!-- Generator: Adobe Illustrator 16.0.0, SVG Export Plug-In . SVG Version: 6.00 Build 0)  -->
<!DOCTYPE svg PUBLIC "-//W3C//DTD SVG 1.1//EN" "http://www.w3.org/Graphics/SVG/1.1/DTD/svg11.dtd">
<svg version="1.1" id="Layer_1" xmlns="http://www.w3.org/2000/svg" xmlns:xlink="http://www.w3.org/1999/xlink" x="0px" y="0px"
	 width="600px" height="600px" viewBox="0 0 600 600" enable-background="new 0 0 600 600" xml:space="preserve">
<g>
	<g>
		<path fill-rule="evenodd" clip-rule="evenodd" fill="#010101" d="M601,287c0,9.333,0,18.667,0,28
			c-0.654,0.599-0.473,1.396-0.512,2.142c0,0.574,0,1.148,0,1.723c0.037,0.743-0.141,1.539,0.512,2.136c0,1.333,0,2.667,0,4
			c-1.177,12.88-2.369,25.73-5.104,38.432c-10.547,48.997-31.759,92.73-63.949,131.151c-27.903,33.303-61.44,59.374-100.579,78.176
			c-29.047,13.953-59.546,23.177-91.583,27.035c-5.561,0.67-11.228,0.246-16.785,1.206c-0.667,0-1.333,0-2,0
			c-0.64-0.686-1.484-0.46-2.268-0.513c-0.609,0.001-1.22,0.001-1.829,0c-0.977,0.121-2.055-0.333-2.903,0.513
			c-8.667,0-17.333,0-26,0c-0.85-0.847-1.93-0.39-2.907-0.512c-0.609,0-1.219,0-1.828,0c-0.782,0.052-1.626-0.174-2.266,0.512
			c-1.333,0-2.667,0-4,0c-10.002-1.407-20.124-1.511-30.107-3.398c-51.655-9.764-97.842-31.12-138.343-64.664
			c-34.4-28.491-61.062-63.056-80.207-103.349c-13.61-28.646-22.382-58.786-26.19-90.3C1.541,334.229,1.978,329.055,1,324
			c0-1.667,0-3.333,0-5c0.614-0.554,0.487-1.297,0.512-2.001C1.488,316.295,1.613,315.554,1,315c0-9.667,0-19.333,0-29
			c0.614-0.553,0.487-1.296,0.512-2c-0.023-0.705,0.101-1.446-0.512-2c0-1.333,0-2.667,0-4c1.136-13.552,2.383-27.061,5.305-40.411
			C16.907,189.144,38,145.888,69.725,107.793c27.698-33.259,61.125-59.235,100.001-78.13C199.012,15.43,229.84,6.128,262.214,2.206
			C267.118,1.611,272.129,2.132,277,1c1.333,0,2.667,0,4,0c0.639,0.685,1.485,0.46,2.268,0.512c0.61,0,1.219,0,1.829,0
			C286.074,1.391,287.151,1.846,288,1c8.667,0,17.333,0,26,0c0.85,0.846,1.93,0.39,2.906,0.512c0.609-0.001,1.22,0,1.828,0
			C319.517,1.46,320.361,1.686,321,1c0.667,0,1.333,0,2,0c10.689,1.236,21.465,1.38,32.106,3.395
			c51.649,9.776,97.836,31.13,138.346,64.667c34.41,28.487,61.047,63.074,80.209,103.348c13.624,28.635,22.385,58.786,26.187,90.302
			c0.61,5.06,0.174,10.234,1.152,15.289c0,1,0,2,0,3c-0.654,0.598-0.473,1.396-0.512,2.142c0,0.574,0,1.148,0,1.722
			C600.525,285.608,600.348,286.403,601,287z"/>
		<path fill-rule="evenodd" clip-rule="evenodd" fill="#FFFFFF" d="M277,1c-2.448,2.145-5.602,1.444-8.368,1.742
			c-51.342,5.54-98.254,23.016-140.227,52.988C65.256,100.824,24.975,161.354,7.883,237.178
			c-2.889,12.819-4.726,25.786-5.874,38.862C1.939,276.835,2.097,277.737,1,278C1,185.75,1,93.5,1,1C93,1,185,1,277,1z"/>
		<path fill-rule="evenodd" clip-rule="evenodd" fill="#FFFFFF" d="M601,278c-2.019-2.845-1.407-6.271-1.732-9.374
			c-3.274-31.248-11.001-61.359-24.289-89.775C533.389,89.903,464.955,33.101,369.643,8.975
			c-14.834-3.755-29.936-5.983-45.212-6.978C323.725,1.951,323.148,1.805,323,1c92.583,0,185.167,0,278,0
			C601,93.333,601,185.667,601,278z"/>
		<path fill-rule="evenodd" clip-rule="evenodd" fill="#FFFFFF" d="M1,324c2.01,2.857,1.4,6.29,1.739,9.405
			c5.574,51.335,23.063,98.23,53.008,140.227c43.973,61.67,102.934,101.503,176.608,119.438c13.903,3.385,28.022,5.354,42.219,6.894
			c0.893,0.097,2.074-0.371,2.426,1.036c-91.917,0-183.834,0-276,0C1,508.667,1,416.333,1,324z"/>
		<path fill-rule="evenodd" clip-rule="evenodd" fill="#FFFFFF" d="M323,601c3.392-1.94,7.262-1.399,10.871-1.783
			c29.895-3.18,58.748-10.474,86.102-22.837c88.44-39.974,145.612-106.956,171.604-200.449c4.362-15.691,6.688-31.809,8.367-48.006
			c0.105-1.013-0.599-2.431,1.057-2.925c0,91.917,0,183.834,0,276C508.334,601,415.667,601,323,601z"/>
		<path fill-rule="evenodd" clip-rule="evenodd" fill="#5D5D5D" d="M317.07,1.857C315.935,1.974,314.73,2.334,314,1c1,0,2,0,3,0
			c0.314,0.166,0.43,0.348,0.346,0.547C317.259,1.754,317.168,1.857,317.07,1.857z"/>
		<path fill-rule="evenodd" clip-rule="evenodd" fill="#5D5D5D" d="M288,1c-0.722,1.333-1.932,0.967-3.062,0.878
			c-0.292-0.217-0.38-0.419-0.265-0.607C284.784,1.09,284.893,1,285,1C286,1,287,1,288,1z"/>
		<path fill-rule="evenodd" clip-rule="evenodd" fill="#5C5C5C" d="M284.938,600.118c1.129-0.083,2.339-0.446,3.062,0.882
			c-1,0-2,0-3,0c-0.32-0.175-0.436-0.363-0.348-0.566C284.744,600.223,284.838,600.118,284.938,600.118z"/>
		<path fill-rule="evenodd" clip-rule="evenodd" fill="#5C5C5C" d="M314,601c0.731-1.328,1.936-0.973,3.07-0.861
			c0.284,0.216,0.367,0.415,0.253,0.599c-0.11,0.175-0.218,0.263-0.323,0.263C316,601,315,601,314,601z"/>
		<path fill-rule="evenodd" clip-rule="evenodd" fill="#9E9E9E" d="M282.951,1.845C282.132,1.952,281.221,2.272,281,1
			c0.667,0,1.333,0,2,0c0.346,0.208,0.454,0.403,0.324,0.584C283.201,1.757,283.077,1.845,282.951,1.845z"/>
		<path fill-rule="evenodd" clip-rule="evenodd" fill="#9D9C9C" d="M600.157,282.947c-0.108-0.818-0.429-1.727,0.843-1.947
			c0,0.667,0,1.333,0,2C600.688,283.479,600.407,283.461,600.157,282.947z"/>
		<path fill-rule="evenodd" clip-rule="evenodd" fill="#9C9C9C" d="M601,321c-1.267-0.223-0.953-1.129-0.842-1.947
			c0.25-0.51,0.53-0.527,0.842-0.053C601,319.667,601,320.333,601,321z"/>
		<path fill-rule="evenodd" clip-rule="evenodd" fill="#606161" d="M601,287c-1.008-0.389-1.011-1.192-0.85-2.063
			c0.314-0.398,0.598-0.377,0.85,0.063C601,285.667,601,286.333,601,287z"/>
		<path fill-rule="evenodd" clip-rule="evenodd" fill="#7C7C7D" d="M601,319c-0.279,0.037-0.561,0.055-0.842,0.053
			c0.001-0.662,0.002-1.323,0.003-1.984c0.238-0.527,0.519-0.551,0.839-0.068C601,317.667,601,318.333,601,319z"/>
		<path fill-rule="evenodd" clip-rule="evenodd" fill="#7C7C7D" d="M1.84,317.066c0.104,0.811,0.318,1.67-0.84,1.934
			c0-0.667,0-1.333,0-2C1.318,316.532,1.6,316.53,1.84,317.066z"/>
		<path fill-rule="evenodd" clip-rule="evenodd" fill="#7F7E7F" d="M317.07,1.857C317.023,1.574,316.999,1.288,317,1
			c0.667,0,1.333,0,2,0c0.32,0.169,0.434,0.351,0.342,0.544c-0.094,0.199-0.191,0.299-0.293,0.299
			C318.39,1.848,317.73,1.853,317.07,1.857z"/>
		<path fill-rule="evenodd" clip-rule="evenodd" fill="#8D8D8D" d="M1,282c1.237,0.22,0.946,1.122,0.863,1.932
			C1.615,284.458,1.328,284.481,1,284C1,283.333,1,282.667,1,282z"/>
		<path fill-rule="evenodd" clip-rule="evenodd" fill="#7C7C7D" d="M601,285c-0.284-0.015-0.568-0.036-0.851-0.063
			c0.003-0.664,0.006-1.327,0.008-1.99c0.282,0.009,0.563,0.026,0.843,0.053C601,283.667,601,284.333,601,285z"/>
		<path fill-rule="evenodd" clip-rule="evenodd" fill="#606161" d="M601,317c-0.279,0.028-0.559,0.052-0.839,0.068
			c-0.182-0.877-0.171-1.675,0.839-2.068C601,315.667,601,316.333,601,317z"/>
		<path fill-rule="evenodd" clip-rule="evenodd" fill="#686868" d="M1,284c0.288-0.02,0.575-0.042,0.863-0.068
			C2.053,284.82,2.061,285.633,1,286C1,285.333,1,284.667,1,284z"/>
		<path fill-rule="evenodd" clip-rule="evenodd" fill="#616161" d="M1.84,317.066C1.56,317.051,1.279,317.028,1,317
			c0-0.667,0-1.333,0-2C2.005,315.394,2.024,316.188,1.84,317.066z"/>
		<path fill-rule="evenodd" clip-rule="evenodd" fill="#9D9D9D" d="M281,601c0.222-1.27,1.132-0.952,1.951-0.846
			c0.368,0.167,0.498,0.348,0.39,0.543C283.23,600.898,283.117,601,283,601C282.333,601,281.667,601,281,601z"/>
		<path fill-rule="evenodd" clip-rule="evenodd" fill="#7E7E7E" d="M283,601c0.006-0.283-0.01-0.565-0.049-0.846
			c0.663-0.013,1.326-0.026,1.988-0.038c0.052,0.294,0.072,0.588,0.061,0.884C284.333,601,283.667,601,283,601z"/>
		<path fill-rule="evenodd" clip-rule="evenodd" fill="#9E9E9E" d="M319.049,1.844C319.013,1.563,318.996,1.282,319,1
			c0.667,0,1.333,0,2,0C320.784,2.286,319.872,1.962,319.049,1.844z"/>
		<path fill-rule="evenodd" clip-rule="evenodd" fill="#7F7E7F" d="M282.951,1.845C282.988,1.564,283.005,1.283,283,1
			c0.667,0,1.333,0,2,0c0.01,0.296-0.01,0.589-0.062,0.879C284.275,1.867,283.613,1.855,282.951,1.845z"/>
		<path fill-rule="evenodd" clip-rule="evenodd" fill="#7E7E7E" d="M317,601c-0.004-0.289,0.02-0.576,0.07-0.861
			c0.659,0.006,1.319,0.011,1.979,0.017c0.299,0.206,0.391,0.399,0.277,0.581C319.217,600.912,319.108,601,319,601
			C318.333,601,317.667,601,317,601z"/>
		<path fill-rule="evenodd" clip-rule="evenodd" fill="#9D9D9D" d="M319,601c-0.005-0.283,0.011-0.564,0.049-0.845
			c0.823-0.118,1.734-0.438,1.951,0.845C320.333,601,319.667,601,319,601z"/>
		<path fill-rule="evenodd" clip-rule="evenodd" fill="#FFFFFF" d="M526,301.038C525.988,425.371,425.224,526.047,300.84,526
			C176.543,525.953,75.908,425.117,76,300.712C76.091,176.451,176.997,75.86,301.415,76C425.46,76.139,526.012,176.894,526,301.038z
			"/>
		<path fill-rule="evenodd" clip-rule="evenodd" fill="#FEFEFE" d="M86.438,417.687c2.357-0.23,3.166,1.446,4.119,2.971
			c4.398,7.028,8.812,14.047,13.428,21.4c-2.201,1.906-4.677,3.367-7.375,4.636c-1.685-2.608-3.298-5.107-5.142-7.964
			c-9.304,5.838-18.512,11.615-27.884,17.496c-1.75-2.761-3.338-5.266-5.272-8.316c9.289-5.901,18.445-11.718,27.568-17.515
			c-0.974-3.226-3.808-5.225-4.315-8.384c-0.069-0.43,0.668-0.99,1.118-1.607c-1.498-0.913-3.245,0.044-4.826-0.737
			c-1.182-1.524-0.426-3.438-0.639-5.196c-0.207-1.71-0.74-3.245-1.737-4.587c-0.92-1.237-2.124-2.326-3.808-1.706
			c-1.381,0.509-1.846,1.832-1.867,3.243c-0.045,2.996,0.025,5.996-0.088,8.99c-0.271,7.175-3.043,11.019-8.849,12.867
			c-5.343,1.701-9.572-0.225-12.907-4.117c-5.272-6.154-6.891-13.377-5.402-21.452c3.16-1.168,5.998,0.771,8.969,0.18
			c0.965,2.302,0.071,4.442,0.169,6.544c0.11,2.368,0.372,4.65,1.785,6.621c1.022,1.426,2.338,2.434,4.237,1.909
			c1.688-0.466,2.284-1.782,2.373-3.404c0.063-1.162,0.146-2.324,0.167-3.487c0.029-1.666-0.079-3.337,0.026-4.996
			c0.428-6.764,3.735-11.154,9.043-12.111c6.337-1.143,11.806,1.642,14.722,7.629c0.79,1.621,1.439,3.36,1.823,5.117
			C86.261,413.479,86.236,415.337,86.438,417.687z"/>
		<path fill-rule="evenodd" clip-rule="evenodd" fill="#FEFEFE" d="M559.355,420.39c-1.774,3.126-3.236,5.703-4.808,8.473
			c-6.57-2.332-12.4-6.12-18.9-8.184c-0.206,0.282-0.412,0.564-0.618,0.847c4.684,5.407,9.366,10.814,14.147,16.334
			c-0.967,1.694-1.852,3.244-2.907,5.093c-7.932-1.38-15.848-2.757-24.672-4.292c7.095,4.788,13.337,9.002,19.66,13.269
			c-1.378,3.208-2.874,5.897-4.938,8.583c-11.429-7.887-22.748-15.699-34.117-23.546c1.533-3.26,3.116-6.098,5.168-9.056
			c7.702,1.1,15.493,2.212,24.389,3.482c-5.658-6.92-10.574-12.933-15.714-19.219c1.572-2.791,3.179-5.643,5.085-9.027
			C533.765,408.846,546.308,414.504,559.355,420.39z"/>
		<path fill-rule="evenodd" clip-rule="evenodd" fill="#FEFEFE" d="M278.713,542.935c4.054,0,7.178,0,10.508,0
			c2.746,7.371,5.45,14.631,8.411,22.579c4.094-7.428,6.016-15.274,9.574-22.256c3.432,0,6.712,0,10.307,0
			c1.064,13.763,2.112,27.296,3.173,41.01c-3.108,1.357-6.17,0.356-9.278,0.572c-2.14-7.366-0.469-14.831-2.701-22.622
			c-2.842,7.746-5.394,14.7-7.923,21.593c-2.14,0.68-4.077,0.645-6.231,0.052c-2.567-6.542-4.133-13.552-7.537-19.952
			c-1.531,6.666-1.999,13.331-2.484,19.948c-3.392,0.747-6.325,0.254-9.969,0.441C275.969,570.266,277.334,556.673,278.713,542.935z
			"/>
		<path fill-rule="evenodd" clip-rule="evenodd" fill="#FEFEFE" d="M462.775,480.948c2.515-2.116,4.775-4.019,7.451-6.27
			c8.944,10.608,17.789,21.098,26.698,31.662c-1.982,2.625-4.71,4.24-7.164,6.448c-9.182-2.242-18.016-5.955-28.165-8.185
			c5.493,6.526,10.381,12.334,15.561,18.489c-2.112,2.522-4.811,4.31-7.576,6.404c-8.959-10.644-17.814-21.162-26.459-31.431
			c4.133-6.144,9.018-7.052,15.503-4.195c5.794,2.551,12.109,3.916,19.381,6.173C473.242,492.814,467.575,487.545,462.775,480.948z"
			/>
		<path fill-rule="evenodd" clip-rule="evenodd" fill="#FEFEFE" d="M209.05,569.381c-7.428-0.771-10.336-4.909-10.978-11.701
			c-0.62-6.558-2.125-13.032-3.375-20.33c-4.109,7.564-6.237,15.239-9.965,22.482c-2.936-1.205-5.752-2.36-8.953-3.674
			c5.327-12.878,10.546-25.496,15.727-38.021c0.779,0,1.292-0.094,1.758,0.015c5.797,1.352,8.58,4.644,8.994,10.961
			c0.439,6.702,2.341,13.308,4.368,20.022c2.978-7.07,5.955-14.142,8.96-21.279c3.297,0.593,5.854,2.142,9.172,3.501
			C219.449,544.206,214.189,556.939,209.05,569.381z"/>
		<path fill-rule="evenodd" clip-rule="evenodd" fill="#FEFEFE" d="M100.351,448.077c11.264,0.174,20.612,9.649,20.565,20.845
			c-0.049,11.794-10.867,22.288-22.675,21.997c-11.292-0.277-20.761-10.232-20.477-21.528
			C78.06,457.64,88.39,447.892,100.351,448.077z"/>
		<path fill-rule="evenodd" clip-rule="evenodd" fill="#FEFEFE" d="M239.596,553.647c6.709,1.647,12.76,3.133,18.799,4.615
			c-0.737,8.653-3.697,15.501-12.119,18.605c-14.311,5.276-28.208-5.967-27.233-21.948c0.546-8.955,6.996-17.061,15.448-19.413
			c8.405-2.34,17.575,1.093,22.765,8.545c0.368,0.528,0.597,1.153,1.069,2.088c-2.158,2.079-4.729,3.469-7.133,4.992
			c-1.653-0.501-1.734-2.05-2.503-3.039c-4.446-5.712-11.956-5.327-16.403,0.864c-3.626,5.049-3.47,13.222,0.329,17.175
			c4.51,4.692,11.085,3.578,14.274-2.62c-2.857-0.758-5.674-1.504-8.638-2.29C238.119,558.744,239.313,556.689,239.596,553.647z"/>
		<path fill-rule="evenodd" clip-rule="evenodd" fill="#FEFEFE" d="M382.005,533.001c-0.009-0.994-1.189-1.652-0.628-3.213
			c2.505-1.094,5.314-2.32,8.429-3.68c2.194,5.023,4.302,9.849,6.575,15.054c3.813-1.624,7.524-3.205,11.617-4.949
			c-2.084-5.009-4.085-9.818-6.151-14.784c2.65-2.02,5.717-2.737,8.934-4.134c2.756,6.454,5.474,12.817,8.188,19.183
			c2.657,6.229,5.311,12.458,8.056,18.897c-2.719,1.679-5.64,2.668-8.954,4.002c-2.156-4.896-4.257-9.669-6.497-14.757
			c-4.005,1.034-7.6,2.925-11.708,4.722c2.09,5.027,4.145,9.972,6.28,15.108c-2.896,1.275-5.595,2.465-8.968,3.95
			c-4.811-11.46-10.107-22.571-14.245-34.194C382.599,533.823,382.052,533.604,382.005,533.001z"/>
		<path fill-rule="evenodd" clip-rule="evenodd" fill="#FEFEFE" d="M78.714,124.838c2.281-2.579,4.324-4.891,6.543-7.399
			c5.129,4.563,9.938,8.869,14.78,13.134c1.865,1.643,3.705,3.344,5.74,4.754c3.472,2.407,5.588,2.095,8.223-0.864
			c2.646-2.973,2.907-5.347-0.068-8.292c-5.304-5.25-10.96-10.144-16.475-15.181c-1.091-0.997-2.206-1.969-3.542-3.159
			c2.146-2.424,4.183-4.727,6.544-7.395c7.672,7.001,15.7,13.164,22.56,20.557c4.313,4.647,4.36,10.621,1.106,16.129
			c-1.799,3.046-4.123,5.625-7.051,7.614c-5.028,3.416-10.899,3.635-15.757-0.065C93.407,138.644,86.374,131.591,78.714,124.838z"/>
		<path fill-rule="evenodd" clip-rule="evenodd" fill="#FEFEFE" d="M423.098,509.943c2.567-1.603,5.06-3.157,7.708-4.81
			c11.923,8.842,23.766,17.623,35.667,26.448c-7.188,6.285-7.188,6.285-15.695,0.693c-1.974,1.186-4.08,2.433-6.168,3.711
			c-2.12,1.297-4.221,2.624-6.561,4.082c0.439,2.723,0.881,5.455,1.363,8.44c-2.572,2.173-5.572,3.78-8.901,5.625
			C427.997,539.151,425.564,524.646,423.098,509.943z"/>
		<path fill-rule="evenodd" clip-rule="evenodd" fill="#FEFEFE" d="M359.184,42.965c1.123-0.557,2.229-1.314,3.452-1.68
			c6.99-2.093,15.063,2.312,13.389,10.69c-1.1,5.501-2.188,11.005-3.321,16.709c-3.193,0.897-5.729-1.463-8.771-0.802
			c-0.21-4.372,1.109-7.803,1.756-11.335c0.297-1.628,0.897-3.26,0.855-4.878c-0.057-2.17-1.238-3.785-3.618-4.039
			c-2.052-0.218-3.588,0.517-4.088,2.678c-1.148,4.965-2.261,9.938-3.407,14.996c-3.187-0.065-6.016-0.769-8.986-1.851
			c0.746-3.639,1.5-7.181,2.186-10.736c0.282-1.462,0.479-2.948,0.603-4.433c0.198-2.358-0.975-3.848-3.246-4.257
			c-2.355-0.424-3.836,0.756-4.355,3.044c-1.094,4.82-2.133,9.653-3.227,14.625c-3.175,0.433-5.796-1.248-9.185-1.245
			c1.812-8.782,3.499-16.963,5.223-25.319c3.296-0.165,6.229,0.085,8.64,2.368c0.689,0.653,1.467,0.534,2.314,0.409
			C352.875,36.803,354.25,37.31,359.184,42.965z"/>
		<path fill-rule="evenodd" clip-rule="evenodd" fill="#FEFEFE" d="M101.476,503.204c9.584-10.697,18.673-20.844,27.942-31.19
			c4.324,3.884,8.676,7.459,12.635,11.427c5.591,5.604,5.687,12.736,0.619,18.262c-4.969,5.417-12.2,5.889-18.359,1.146
			c-1.691-1.302-3.278-2.739-4.97-4.162c-2.342,1.408-3.569,3.646-5.269,5.406c-1.609,1.665-3.146,3.399-4.876,5.279
			C106.157,507.936,104.349,505.304,101.476,503.204z"/>
		<path fill-rule="evenodd" clip-rule="evenodd" fill="#FEFEFE" d="M392.607,32.7c7.655,2.995,14.974,5.858,22.381,8.757
			c-1.13,2.83-1.699,5.419-3.401,7.935c-4.216-1.568-8.471-3.15-12.905-4.8c-0.985,2.474-1.83,4.594-2.773,6.961
			c4.03,1.618,7.976,3.201,12.075,4.846c0.073,3.034-1.626,5.318-2.688,8.192c-4.175-1.564-8.149-3.053-12.247-4.588
			c-1.71,2-1.859,4.526-3.254,6.896c4.58,1.856,8.821,3.576,13.313,5.396c-1.229,2.632-1.668,5.244-3.51,7.907
			c-7.235-2.809-14.525-5.64-22.126-8.59C382.581,58.479,387.531,45.75,392.607,32.7z"/>
		<path fill-rule="evenodd" clip-rule="evenodd" fill="#FEFEFE" d="M452.876,98.553c0.291,3.25-0.064,6.148-0.952,8.956
			c-11.61,0.221-21.563-8.394-23.545-20.206c-1.665-9.919,4.423-19.507,14.528-22.594c12.717-3.885,24.518,3.437,28.57,13.087
			c-0.586,1.747-2.434,2.014-3.733,2.916c-1.196,0.83-2.544,1.441-3.797,2.134c-5.529-7.954-11.794-10.842-17.96-8.435
			c-4.792,1.872-7.587,6.475-7.196,11.854C439.252,92.604,444.218,97.059,452.876,98.553z"/>
		<path fill-rule="evenodd" clip-rule="evenodd" fill="#FEFEFE" d="M382.005,533.001c0.539,0.225,0.845,0.63,0.928,1.205
			c-1.547,0.141-1.781,1.352-1.866,2.502c-0.135,1.834-0.554,3.551-1.286,5.144c-10.113-0.696-15.485,1.792-17.898,8.173
			c-1.727,4.567-0.193,9.989,3.65,12.906c5.052,3.834,11.795,3.081,19.264-2.226c2.39,1.793,4.087,4.238,5.881,6.576
			c-6.43,8.714-23.904,12.097-34.503,1.197c-10.719-11.023-5.136-30.476,10.163-35.302
			C371.518,531.542,376.765,531.494,382.005,533.001z"/>
		<path fill-rule="evenodd" clip-rule="evenodd" fill="#FEFEFE" d="M250.083,25.292c-0.668,2.971-1.276,5.678-1.952,8.68
			c-4.847-0.994-9.394-1.006-13.48,1.825c-2.241,1.552-3.929,3.483-4.84,6.129c-1.612,4.682-0.116,9.837,3.879,12.861
			c5.172,3.916,11.847,3.12,19.023-2.307c2.229,1.986,4.078,4.306,5.777,6.732c-6.048,8.104-20.721,10.715-30.594,4.098
			c-8.887-5.957-11.696-17.111-7.017-26.782C225.408,27.168,237.983,20.855,250.083,25.292z"/>
		<path fill-rule="evenodd" clip-rule="evenodd" fill="#FEFEFE" d="M507.104,477.138c1.336-1.396,3.135-1.31,4.591-2.013
			c1.967-0.949,3.968-1.862,5.229-3.658c1.172-1.667,2.998-3.353,1.298-5.746c-1.685-2.371-3.757-1.504-5.754-0.632
			c-2.275,0.993-4.452,2.214-6.741,3.169c-6.073,2.53-10.98,1.622-14.467-2.563c-3.414-4.099-3.798-10.335-0.785-15.329
			c2.769-4.591,6.994-7.381,12.037-9.276c1.792,2.256,2.661,4.901,3.832,7.674c-2.432,1.588-5.164,2.57-6.97,4.768
			c-1.307,1.589-2.408,3.423-1.001,5.411c1.388,1.96,3.207,1.082,4.896,0.25c2.52-1.242,4.999-2.578,7.576-3.689
			c5.973-2.577,11.017-1.824,14.671,2.048c3.977,4.213,4.526,9.22,1.545,15.146c-3.4,6.759-8.862,10.962-16.3,12.946
			C508.797,483.048,508.233,479.973,507.104,477.138z"/>
		<path fill-rule="evenodd" clip-rule="evenodd" fill="#FEFEFE" d="M344.553,539.077c1.22,2.832,1.454,5.441,1.412,8.286
			c-4.257,1.948-9.139,0.921-13.673,2.676c0.309,2.318,0.604,4.541,0.922,6.938c4.503,0.403,8.658-1.496,13.213-0.987
			c1.004,2.349,0.386,5.064,1.722,7.568c-4.642,2.112-9.418,0.945-13.637,2.89c0.235,2.191,0.475,4.427,0.724,6.76
			c4.86,0.54,9.342-1.3,14.021-1.064c1.021,2.664,0.627,5.336,1.02,8.384c-7.812,1.037-15.449,2.052-23.584,3.132
			c-1.826-13.776-3.61-27.23-5.443-41.057C328.841,540.807,336.635,540.63,344.553,539.077z"/>
		<path fill-rule="evenodd" clip-rule="evenodd" fill="#FEFEFE" d="M128.911,526.832c7.954-11.535,15.662-22.715,23.583-34.203
			c5.472,3.48,10.853,6.697,15.454,10.934c4.921,4.531,5.524,10.372,2.119,15.754c-3.795,5.998-9.413,7.986-15.81,5.771
			c-3.035-1.051-5.348-3.247-8.525-4.974c-2.804,3.968-5.613,7.943-8.573,12.131C134.167,530.875,131.801,528.854,128.911,526.832z"
			/>
		<path fill-rule="evenodd" clip-rule="evenodd" fill="#FEFEFE" d="M291.687,58.77c-3.11,1.438-6.037,1.208-9.249,1.058
			c-0.464-4.394-0.927-8.643-1.357-12.895c-0.362-3.582-2.442-6.208-4.848-5.732c-2.375,0.47-4.691,2.694-4.507,6.224
			c0.231,4.439,1.56,8.814,1.118,13.34c-2.927,0.823-5.66,1.251-9.073,1.038c-1.359-14.127-2.717-28.242-4.092-42.542
			c2.915-1.382,5.738-1.083,8.701-1.253c2.063,5.988,0.923,12.463,2.774,18.794c2.549-1.932,5.11-3.18,8.219-3.103
			c6.855,0.17,9.936,2.95,10.653,9.803C290.542,48.448,291.1,53.389,291.687,58.77z"/>
		<path fill-rule="evenodd" clip-rule="evenodd" fill="#FEFEFE" d="M474.513,132.629c-2.209-2.893-6.239-3.759-6.182-8.053
			c-8.172-1.99-12.511-7.75-11.182-15.034c1.381-7.568,8.824-12.788,16.527-11.639c3.118,0.465,5.901,1.865,7.35,4.517
			c1.779,3.258,4.746,5.048,7.296,7.381c1.214,1.111,2.405,2.247,3.858,3.606C486.29,119.817,480.518,126.097,474.513,132.629z"/>
		<path fill-rule="evenodd" clip-rule="evenodd" fill="#FEFEFD" d="M172.864,58.321c-3.125,1.53-5.763,2.823-8.522,4.174
			c-1.741-2.303-2.682-4.75-4.083-7.65c8.694-4.434,17.308-8.826,25.9-13.208c2.151,2.244,2.656,4.917,4.233,7.198
			c-2.499,2.442-5.752,3.009-8.473,5.163c4.759,9.469,9.555,19.013,14.453,28.759c-2.297,2.283-5.513,2.812-8.379,5.196
			C182.817,77.817,177.89,68.165,172.864,58.321z"/>
		<path fill-rule="evenodd" clip-rule="evenodd" fill="#FDFDFD" d="M136.693,119.924c-7.224,0.003-13.449-6.145-13.407-13.242
			c0.048-8.155,8.737-16.513,17.065-16.415c7.271,0.086,13.355,6.161,13.381,13.362C153.763,111.782,145.252,119.92,136.693,119.924
			z"/>
		<path fill-rule="evenodd" clip-rule="evenodd" fill="#FDFDFD" d="M325.305,48.657c-6.24,0.432-12.136-1.163-18.146-0.475
			c2.25,5.793,5.397,6.427,11.36,2.374c1.096,0.551,2.333,1.032,3.405,1.756c0.937,0.631,2.291,0.688,2.797,1.933
			c-4.724,6.521-13.106,8.365-20.143,4.433c-6.038-3.375-8.728-10.821-6.18-17.107c2.678-6.607,10.563-10.173,17.848-8.071
			C323.106,35.478,326.443,40.895,325.305,48.657z"/>
		<path fill-rule="evenodd" clip-rule="evenodd" fill="#FDFDFD" d="M155.53,85.444c-1.146,0.475-2.176,0.902-3.172,1.314
			c-1.702-1.528-2.441-3.579-4.151-5.895c1.167-0.591,2.214-1.121,3.089-1.564c-8.376-14.967-6.342-22.069,6.356-23.093
			c0.589,2.174,1.109,4.387,1.13,6.547c-0.805,1.638-3.094,0.938-3.516,3.029c0.678,3.241,0.678,3.241,4.196,7.911
			c1.503-0.881,3.022-1.771,4.794-2.811c1.246,1.845,2.425,3.592,3.63,5.376c-0.642,1.974-2.852,2.141-4.195,3.814
			c2.569,5.406,6.559,10.088,9.54,15.563c-2.046,2.324-4.832,3.414-7.509,5.285C162.239,95.632,158.899,90.559,155.53,85.444z"/>
		<path fill-rule="evenodd" clip-rule="evenodd" fill="#FDFDFC" d="M472.791,471.347c2.336-2.509,4.358-4.682,6.759-7.26
			c9.991,9.517,19.885,18.94,29.881,28.462c-1.358,3.17-4.165,4.816-6.385,7.613C492.941,490.538,483.039,481.106,472.791,471.347z"
			/>
		<path fill-rule="evenodd" clip-rule="evenodd" fill="#FDFDFD" d="M168.288,551.698c-3.103-1.69-5.67-3.088-8.699-4.737
			c6.703-12.162,13.279-24.095,19.944-36.188c3.19,0.912,5.76,2.604,8.824,4.533C181.717,527.349,175.145,539.267,168.288,551.698z"
			/>
		<path fill-rule="evenodd" clip-rule="evenodd" fill="#FCFCFC" d="M485.938,145.49c-2.418-2.298-4.178-4.49-6.017-7.097
			c6.453-5.44,12.899-10.876,19.714-16.622c1.809,2.978,6.384,4.056,4.92,8.893c6.035,1.703,7.089,2.684,9.21,8.746
			c-1.22,0.89-2.635,1.263-4.097,1.554c-1.288,0.256-2.56,0.596-3.972,0.93c-0.529-1.076-0.943-2.145-1.543-3.097
			c-2.226-3.532-4.927-4.086-8.307-1.493C492.563,139.822,489.453,142.569,485.938,145.49z"/>
		<path fill-rule="evenodd" clip-rule="evenodd" fill="#3A499E" d="M201.993,247.266c2.839,1.276,5.615,2.664,8.037,4.661
			c6.551,10.156,12.729,20.508,20.7,29.752c8.325,9.654,17.976,17.59,28.135,25.083c1.656,1.222,4.639,1.96,3.134,5.211
			c-1.485,1.276-3.13,2.272-5.004,2.868c-8.124-6.25-17.192-11.599-24.029-19.118c-9.973-10.968-20.646-21.656-26.553-35.738
			c-1.094-2.607-2.464-5.08-3.629-7.649C202.065,250.752,200.681,249.196,201.993,247.266z"/>
		<path fill-rule="evenodd" clip-rule="evenodd" fill="#242B60" d="M223.067,334.167c-1.441,1.394-3.125,2.366-5.049,2.926
			c-6.294-6.824-13.984-12.128-20.311-18.957c-12.98-14.01-23.342-29.678-31.065-47.121c-0.409-0.924-0.578-1.899-0.728-2.884
			c0.08,1.641,0.521,3.252,0.407,4.913c-0.041,1.263-0.105,2.521-0.801,3.638c-0.35,0.475-0.79,0.578-1.316,0.313
			c-0.293-4.013-0.276-8.026,0-12.039c0.692-3.707,0.113-7.45,0.319-11.167c2.454-2.434,3.011,0.256,3.628,1.564
			c1.491,3.156,2.359,6.57,3.717,9.799c7.29,17.336,17.271,32.928,29.589,47.145c5.615,6.479,12.421,11.514,18.684,17.205
			C221.552,330.784,223.747,331.574,223.067,334.167z"/>
		<path fill-rule="evenodd" clip-rule="evenodd" fill="#2E3C88" d="M182.031,235.899c1.899,0.595,3.605,1.525,5.041,2.92
			c3.531,2.753,4.134,7.054,5.617,10.848c6.222,15.921,15.197,30.044,26.642,42.756c8.143,9.044,16.997,17.179,26.851,24.277
			c1.026,0.739,2.216,1.587,1.797,3.225c-1.07,1.147-2.378,1.877-3.903,2.227c-1.875-0.321-3.276-1.506-4.748-2.579
			c-10.74-7.835-20.491-16.72-28.854-27.085c-4.038-5.544-8.104-11.071-11.929-16.774c-0.293-0.385-0.541-0.794-0.775-1.216
			c-6.348-10.713-11.593-21.917-15.11-33.887C182.21,239.081,181.041,237.628,182.031,235.899z"/>
		<path fill-rule="evenodd" clip-rule="evenodd" fill="#344396" d="M254.993,315.941c-1.182,0.969-2.266,2.132-3.999,2.002
			c-7.755-2.818-13.381-8.683-19.25-14.005c-16.65-15.099-29.31-33.141-37.992-53.889c-1.071-2.559-3.587-5.063-1.646-8.309
			c2.217,0.66,4.144,1.836,5.899,3.319c4.736,7.47,7.761,15.853,12.421,23.357c5.192,8.363,11.198,16.084,18.065,23.176
			c7.556,7.803,15.636,14.951,24.475,21.258C253.986,313.579,255.354,314.236,254.993,315.941z"/>
		<path fill-rule="evenodd" clip-rule="evenodd" fill="#8094CB" d="M436.14,225.938c2.236,0.445,4.282,1.064,3.704,4.07
			c-7.369,5.084-15.997,6.183-24.494,7.308c-5.899,0.781-11.933,0.32-17.903,0.128c-2.167-0.07-4.338-0.379-5.707-2.438
			c-0.241-2.397-0.582-4.798,0.188-7.169c-0.096-1.372,0.515-2.036,1.913-1.91C407.939,227.252,422.04,224.955,436.14,225.938z"/>
		<path fill-rule="evenodd" clip-rule="evenodd" fill="#2A3476" d="M236.062,326.142c-0.306,1.714-1.58,1.964-3.004,1.986
			c-9.915-5.402-17.993-13.087-25.413-21.365c-18.526-20.668-31.419-44.412-37.691-71.576c-0.462-2.001-1.721-4.124,0.045-6.157
			c1.217,0.25,2.269,0.787,3.063,1.77c1.994,1.553,2.423,3.872,3.03,6.12c9.31,34.451,28.069,62.601,56.254,84.502
			C233.9,322.628,236.377,323.36,236.062,326.142z"/>
		<path fill-rule="evenodd" clip-rule="evenodd" fill="#313F90" d="M192.106,241.741c1.345,6.374,4.499,12.067,7.334,17.777
			c4.327,8.716,9.559,16.993,15.666,24.61c6.519,8.13,13.653,15.658,21.635,22.458c4.64,3.953,9.889,7.096,14.252,11.356
			c-1.162,0.422-1.487,2.118-3.016,1.981c-4.243-3.275-8.661-6.351-12.684-9.877c-4.936-4.326-9.964-8.674-14.162-13.676
			c-3.646-4.346-7.744-8.28-11.143-12.945c-3.276-4.497-5.655-9.46-8.854-13.957c-3.573-5.023-6.594-10.454-8.574-16.414
			c-1.602-4.821-3.644-9.497-5.49-14.237C188.987,239.386,190.673,240.345,192.106,241.741z"/>
		<path fill-rule="evenodd" clip-rule="evenodd" fill="#293371" d="M169.998,229.029c4.043,21.486,12.48,41.129,24.751,59.178
			c6.647,9.778,14.194,18.804,22.871,26.821c3.878,3.582,8.186,6.707,12.386,9.926c1.206,0.924,2.43,1.731,3.051,3.174
			c-0.237,1.131-1.128,0.916-1.909,0.929c-2.073,1.258-3.404-0.26-4.866-1.299c-6.137-4.358-10.931-10.164-16.396-15.246
			c-6.454-6.002-12.542-12.39-17.256-19.854c-5.728-9.068-11.43-18.064-15.724-28.088c-3.941-9.2-6.852-18.582-9.537-28.107
			c-0.831-2.949-1.691-6.085-0.376-9.209C168.178,227.536,169.192,228.107,169.998,229.029z"/>
		<path fill-rule="evenodd" clip-rule="evenodd" fill="#2B397E" d="M239.031,325.075c-0.454,0.809-1.095,1.16-2.017,0.83
			c-5.942-5.794-12.763-10.544-18.687-16.423c-20.072-19.918-33.852-43.437-41.726-70.494c-0.616-2.116-1.967-4.314-0.605-6.672
			c1.522,0.552,2.973,1.223,4.098,2.441c4.22,8.684,6.215,18.25,10.764,26.827c1.71,3.223,3.544,6.399,5.069,9.723
			c4.693,10.633,12.038,19.435,19.714,27.93c6.686,7.398,14.123,14.042,22.112,20.054
			C239.662,320.728,242.331,322.335,239.031,325.075z"/>
		<path fill-rule="evenodd" clip-rule="evenodd" fill="#7C90C8" d="M392.054,235.019c10.225,1.71,20.404,1.423,30.614-0.333
			c5.897-1.014,11.272-3.787,17.176-4.678c-0.001,1.679-0.002,3.358-0.002,5.037c-0.94,2.16-2.835,3.176-4.869,3.977
			c-12.917,5.082-26.36,6.271-40.079,5.354c-1.168-0.078-2.29-0.398-3.12-1.335C391.48,240.353,391.07,237.662,392.054,235.019z"/>
		<path fill-rule="evenodd" clip-rule="evenodd" fill="#273069" d="M228.978,330.889c-0.838,0.426-1.913,0.391-2.509,1.287
			c-0.671,0.23-1.296,0.119-1.889-0.247c-1.236-1.173-2.327-2.543-4.086-3.014c-3.286-1.197-5.425-3.874-7.917-6.101
			c-0.919-0.961-1.854-1.908-2.737-2.903c-0.295-0.326-0.554-0.683-0.8-1.045c-1.379-2.263-3.142-4.093-5.685-5.053
			c-2.521-1.463-3.965-3.821-5.264-6.304c-0.96-2.725-3.305-4.315-5.177-6.296c-13.456-17.503-23.016-36.896-28.308-58.358
			c-0.162-2.655-0.138-5.31-0.017-7.964c0.015-0.323,0.215-0.602,0.61-0.982c2.111,0.484,2.353,2.333,2.777,4.048
			c5.021,20.269,13.772,38.821,25.723,55.902c8.795,12.573,19.9,22.925,31.507,32.797
			C226.657,327.891,228.678,328.627,228.978,330.889z"/>
		<path fill-rule="evenodd" clip-rule="evenodd" fill="#5160AB" d="M309.109,305.991c-0.003-0.327-0.005-0.654-0.007-0.98
			c0.878-1.042-0.244-2.951,1.559-3.597c1.713-0.406,3.309,0.137,4.874,0.681c11.543,4.015,23.469,6.151,35.592,7.38
			c5.956,0.604,6.6,1.666,5.114,7.771c-1.07,0.907-2.379,1.21-3.705,1.18c-14.459-0.321-28.608-2.375-42.165-7.674
			C308.851,309.459,310.044,307.444,309.109,305.991z"/>
		<path fill-rule="evenodd" clip-rule="evenodd" fill="#212959" d="M165.011,273.009c0.008-1.832-0.001-3.664,0.044-5.495
			c0.007-0.26,0.284-0.513,0.442-0.78c1.076,0.072,1.16,0.944,1.507,1.691c5.864,12.625,12.094,24.913,20.98,35.915
			c6.018,7.452,12.404,14.436,19.082,21.227c2.862,2.912,6.184,5.257,9.599,7.431c1.756,1.118,2.139,2.32,1.353,4.096
			c-0.44,0.726-1.089,1.092-1.933,1.121c-9.034-4.992-16.046-12.398-22.866-19.865c-9.689-10.606-17.843-22.377-24.572-35.118
			C166.922,279.965,165.827,276.556,165.011,273.009z"/>
		<path fill-rule="evenodd" clip-rule="evenodd" fill="#7588C3" d="M439.834,239.044c-0.005,1.661-0.01,3.322-0.015,4.984
			c-0.295,0.795-0.714,1.521-1.226,2.197c-9.188,4.952-19.088,7.72-29.359,9.072c-3.941,0.519-7.896,1.31-11.914,1.153
			c-1.966-0.077-4.05,0.201-5.593-1.495c-0.35-2.292-0.324-4.583-0.017-6.876c1.826-1.962,4.271-1.602,6.523-1.548
			c12.277,0.295,23.982-2.354,35.409-6.587C435.624,239.209,437.587,238.067,439.834,239.044z"/>
		<path fill-rule="evenodd" clip-rule="evenodd" fill="#28316D" d="M228.978,330.889c-33.062-24.12-53.055-56.882-62.988-96.296
			c-0.327,0.098-0.653,0.196-0.98,0.293c0,2.708,0,5.415,0,8.123c0.788,1.127,0.464,2.388,0.433,3.615
			c-0.294,0.512-0.706,0.637-1.234,0.373c-0.056-6.471-0.117-12.941-0.153-19.412c-0.002-0.45,0.184-0.9,0.27-1.297
			c1.302-0.561,1.926,0.354,2.668,0.966c1.441,4.566,1.229,9.444,2.859,14.011c2.029,5.688,2.903,11.91,5.641,17.194
			c3.722,7.183,6.322,14.833,10.766,21.798c5.128,8.039,10.416,15.841,16.402,23.239c2.414,2.982,5.524,5.146,8.166,7.857
			c5.739,5.893,11.243,12.095,18.006,16.922c0.716,0.511,1.479,0.713,2.315,0.782C230.784,330.094,230.168,330.831,228.978,330.889z
			"/>
		<path fill-rule="evenodd" clip-rule="evenodd" fill="#7C8EC7" d="M310.786,225.886c1.413-1.269,3.153-0.855,4.777-0.859
			c11.327-0.03,22.654-0.034,33.981-0.004c6.809,0.018,7.518,0.793,7.628,7.311c0.717,42.295,0.69,84.595,0.743,126.894
			c0.002,1.923,0.705,3.999-0.689,5.782c-2.317-2.052-1.74-4.765-1.688-7.359c0.082-1.318,0.076-2.639,0.075-3.96
			c0-1.638-0.008-3.273-0.021-4.911c-0.002-1.712-0.007-3.422-0.017-5.134c0.011-3.567,0.005-7.133-0.01-10.7
			c0.018-3.359,0.009-6.717-0.001-10.077c-0.191-4.618,2.268-9.22,0.067-13.847c-0.135-6.927-0.026-13.854-0.075-20.78
			c-0.278-9.457,0.842-18.965-1.017-28.365c0.058-1.177-0.001-2.359,0.035-3.537c0.002-0.852,0.008-1.706,0-2.558
			c-0.092-2.204-0.097-4.41-0.005-6.614c1.271-6.799-1.658-11.069-7.988-13.324c-0.619-0.22,0.033,0.211-0.424-0.241
			c-6.978-6.892-15.698-6.706-24.533-6.082c-3.169-0.058-6.358,0.295-9.483-0.527C311.577,226.762,311.127,226.391,310.786,225.886z
			"/>
		<path fill-rule="evenodd" clip-rule="evenodd" fill="#37459A" d="M254.993,315.941c-6.128-4.715-12.976-8.752-18.204-14.313
			c-6.619-7.041-13.807-13.528-19.841-21.228c-7.625-9.73-12.124-21.071-18.393-31.467c-0.746-1.238-0.486-2.567-0.55-3.874
			c1.553,0.331,2.798,1.218,3.988,2.206c4.06,9.033,7.668,18.326,13.81,26.235c2.91,3.746,5.492,7.783,9.121,10.956
			c2.125,1.858,4.051,3.9,5.16,6.61c0.359,0.878,1.139,1.62,1.829,2.323c3.441,3.504,7.635,6.104,11.19,9.584
			c2.832,2.772,6.794,5.022,10.374,7.327c1.631,1.051,3.353,2.252,3.519,4.54C256.419,315.374,255.89,315.993,254.993,315.941z"/>
		<path fill-rule="evenodd" clip-rule="evenodd" fill="#2A377B" d="M175.996,232.316c3.265,14.304,9.063,27.612,15.927,40.5
			c5.076,9.531,11.268,18.285,18.633,26.172c2.041,2.185,3.574,4.73,5.701,6.866c6.201,6.229,12.461,12.368,19.647,17.474
			c0.945,0.672,2.09,1.133,1.11,2.578c-0.312,0.104-0.629,0.182-0.953,0.236c-9.42-7.104-18.066-15.076-26.083-23.706
			c-11.502-12.38-20.255-26.548-27.037-42.01c-4.206-9.59-7.163-19.56-9.88-29.626C174.252,230.893,175.124,231.605,175.996,232.316
			z"/>
		<path fill-rule="evenodd" clip-rule="evenodd" fill="#262D65" d="M164.993,246.999c0.006-1.33,0.012-2.66,0.018-3.99
			c1.784,2.077,2.138,4.771,2.874,7.231c5.551,18.557,14.859,35.154,26.116,50.76c1.233,2.361,3.583,3.791,5,6
			c1.636,2.025,2.38,4.794,5,6c2.346,1.654,4.352,3.648,6,6c0.723,1.277,1.744,2.257,3.001,2.999
			c2.91,1.675,4.543,5.053,7.999,6.001c1.386,0.929,2.585,2.108,4,3c0.3,0.629,0.816,0.989,1.47,1.176
			c-0.662,1.471-2.612,0.74-3.402,1.991c-1.476-3.208-4.713-4.69-7.239-6.618c-17.757-13.553-29.712-31.666-40.229-50.827
			c-3.225-5.875-5.895-12.192-7.792-18.748c-0.51-1.763-0.477-4.111-2.795-4.971C164.22,251.004,164.244,249.003,164.993,246.999z"
			/>
		<path fill-rule="evenodd" clip-rule="evenodd" fill="#424FA2" d="M213.004,254.043c3.796,0.265,6.096,3.191,8.992,5.059
			c6.229,8.629,12.422,17.242,20.061,24.784c7.26,7.167,15.039,13.605,23.379,19.428c1.811,1.264,4.464,2.283,2.549,5.38
			c-0.618,0.118-1.235,0.236-1.853,0.354c-1.587,1.081-2.825,0.128-4.081-0.704c-17.859-11.833-32.686-26.69-44.171-44.779
			C215.99,260.586,213.087,257.996,213.004,254.043z"/>
		<path fill-rule="evenodd" clip-rule="evenodd" fill="#4D5BA9" d="M310.055,310.01c4.968,0.236,9.522,2.303,14.302,3.38
			c10.454,2.356,20.947,3.687,31.641,3.613c0.816,1.708,0.624,3.44,0.126,5.181c-4.503,2.569-9.45,1.482-14.112,1.229
			c-10.746-0.583-21.448-1.864-31.503-6.191c-0.611-0.654-1.032-1.43-1.402-2.236c-0.002-0.99-0.004-1.98-0.006-2.971
			C309.676,311.469,309.263,310.452,310.055,310.01z"/>
		<path fill-rule="evenodd" clip-rule="evenodd" fill="#1F2655" d="M165.011,273.009c6.092,12.659,13.071,24.753,21.851,35.796
			c7.755,9.754,16.385,18.578,26.233,26.201c1.198,0.928,2.408,1.749,2.99,3.208c-0.813,0.973-1.816,1.614-3.094,1.778
			c-6.797-4.226-12.938-9.276-18.377-15.125c-10.686-11.49-19.897-24.067-27.433-37.853c-1.124-2.055-2.114-4.148-2.635-6.443
			c0.103-1.198-0.424-2.473,0.445-3.574C164.998,275.667,165.005,274.338,165.011,273.009z"/>
		<path fill-rule="evenodd" clip-rule="evenodd" fill="#4E5DA9" d="M250.055,274.829c10.925,5.573,21.346,12.044,32.043,18.022
			c2.014,1.125,3.988,2.323,6.372,3.716c-3.074,2.444-5.941,4.452-9.475,5.353c-9.374-5.942-18.355-12.418-26.388-20.098
			C250.756,280.053,247.772,278.285,250.055,274.829z"/>
		<path fill-rule="evenodd" clip-rule="evenodd" fill="#4A58A7" d="M250.055,274.829c-0.128,4.786,3.977,6.48,6.762,9.045
			c6.408,5.901,13.446,10.991,20.883,15.529c0.922,0.563,1.275,1.466,1.295,2.517c-1.593,1.162-2.825,2.888-4.976,3.176
			c-6.025-6.25-13.885-10.202-20.183-16.114c-5.906-5.544-12.406-10.52-16.785-17.519c-0.824-1.317-2.425-2.518-1.054-4.39
			C241.159,268.797,245.57,271.879,250.055,274.829z"/>
		<path fill-rule="evenodd" clip-rule="evenodd" fill="#3F4DA0" d="M213.004,254.043c3.928,4.515,6.292,10.055,9.862,14.838
			c10.382,13.91,22.141,26.375,36.647,36.029c2.15,1.432,3.725,3.883,6.619,4.138c-0.745,1.869-2.462,2.365-4.134,2.925
			c0.131-2.386-1.976-2.854-3.387-3.855c-8.371-5.937-16.579-12.124-23.553-19.662c-9.214-9.96-17.74-20.498-23.743-32.815
			c-0.573-1.177-1.395-2.291-1.286-3.713C211.021,252.632,212.013,253.338,213.004,254.043z"/>
		<path fill-rule="evenodd" clip-rule="evenodd" fill="#131734" d="M194.98,349.925c-1.58,1.132-2.674,3.079-4.99,2.976
			c-9.045-6.727-16.725-14.817-23.827-23.813c0.095,2.72,0.185,5.282,0.222,7.853c0.061,2.45,0.214,4.892,0.092,7.341
			c-0.527,2.965,1.517,6.61-2.299,8.701c-0.291-9.674-0.258-19.349,0.014-29.022c0.729-1.581-0.041-3.33,0.556-4.927
			c2.5-0.83,3.581,1.125,4.759,2.587c6.961,8.642,14.403,16.802,23.034,23.835C193.882,346.548,195.537,347.694,194.98,349.925z"/>
		<path fill-rule="evenodd" clip-rule="evenodd" fill="#4553A4" d="M267.985,308.693c0.186-1.898-0.772-2.882-2.359-3.922
			c-16.832-11.03-31.034-24.748-42.144-41.602c-0.853-1.293-1.676-2.458-1.486-4.068c2.466,0.134,4.109,1.856,5.997,3.106
			c11.544,15.386,24.853,28.942,40.951,39.631c1.425,0.946,3.421,1.666,3.038,4.055
			C270.637,306.809,269.807,308.458,267.985,308.693z"/>
		<path fill-rule="evenodd" clip-rule="evenodd" fill="#4C5BA8" d="M391.112,313.977c0.003-0.324,0.007-0.647,0.01-0.972
			c1.116-1.179,2.644-1.283,4.103-1.601c12.293-2.671,23.663-7.74,34.853-13.318c2.879-1.435,5.434-4.009,9.13-3.143
			c0.459,1.273,0.281,2.576,0.176,3.875c-3.889,5.094-9.817,7.206-15.225,9.82c-9.22,4.456-18.695,8.442-28.827,10.505
			c-1.135,0.23-2.259,0.571-3.405,0.075C390.95,317.582,392.073,315.617,391.112,313.977z"/>
		<path fill-rule="evenodd" clip-rule="evenodd" fill="#1D2451" d="M165.011,281.003c4.938,7.733,9.145,15.907,14.582,23.349
			c8.513,11.654,17.417,22.876,29.382,31.281c1.596,1.121,3.1,2.519,4.016,4.359c-1.047,1.204-2.414,1.855-3.922,2.262
			c-1.059-2.198-3.104-3.407-4.89-4.877c-14.831-12.201-26.627-26.944-36.387-43.4c-1.452-2.448-2.809-4.918-3.271-7.778
			C164.721,284.468,164.021,282.656,165.011,281.003z"/>
		<path fill-rule="evenodd" clip-rule="evenodd" fill="#4756A5" d="M271.981,305.894c-5.205-4.838-11.495-8.231-16.914-12.811
			c-10.011-8.46-18.85-17.979-26.655-28.477c-0.433-0.582-0.293-1.589-0.42-2.398c3.154,0.822,5.24,3.403,8.005,4.865
			c2.652,4.511,5.115,9.026,9.522,12.347c4.299,3.24,7.753,7.493,12.034,10.904c4.667,3.718,9.419,7.265,14.343,10.607
			c1.507,1.023,3.403,1.759,2.123,4.165C273.541,305.873,272.896,306.229,271.981,305.894z"/>
		<path fill-rule="evenodd" clip-rule="evenodd" fill="#505FAB" d="M438.81,295.018c-13.212,7.118-26.635,13.705-41.32,17.357
			c-2.158,0.537-4.239,0.503-6.367,0.63c-0.01-0.328-0.019-0.657-0.028-0.985c0.945-1.341-0.133-3.108,0.934-4.426
			c1.823-1.31,4.011-1.633,6.106-2.033c12.566-2.403,24.112-7.443,35.353-13.35c1.771-0.931,3.524-2.882,5.855-1.036
			C439.369,292.484,440.007,293.878,438.81,295.018z"/>
		<path fill-rule="evenodd" clip-rule="evenodd" fill="#798BC6" d="M439.834,239.044c-15.196,6.813-31.093,9.901-47.744,8.974
			c-0.901-1.664-0.883-3.33-0.012-4.998c4.975-0.007,9.95,0.037,14.924-0.03c11.544-0.155,22.518-2.716,32.84-7.945
			C439.839,236.378,439.836,237.711,439.834,239.044z"/>
		<path fill-rule="evenodd" clip-rule="evenodd" fill="#192048" d="M165.003,319c-0.271,1.653,0.64,3.5-0.811,4.96
			c-0.294-8.667-0.27-17.334,0.005-26c0.719-1.305-0.125-2.879,0.716-4.164c2.544-0.259,3.37,1.841,4.386,3.421
			c6.097,9.473,12.814,18.457,20.292,26.893c4.639,5.231,10.206,9.405,15.347,14.063c1.801,1.633,4.388,3.218,1.065,5.829
			c-0.395,0.829-1.149,1.037-1.967,1.137c-2.505-3.354-5.817-5.921-8.961-8.563c-11.835-9.943-20.802-22.206-29.038-34.554
			c0.275,1.266,0.297,3.05,0.33,4.84c0.025,1.856,0.207,3.705,0.082,5.562C166.224,314.675,166.954,317.134,165.003,319z"/>
		<path fill-rule="evenodd" clip-rule="evenodd" fill="#12141F" d="M164.178,352.982c1.732-2.858,0.386-6.001,0.827-8.979
			c1.306-0.605,2.258,0.183,3.066,0.953c3.331,3.174,6.703,6.29,10.249,9.23c2.342,1.941,2.731,4.051-0.285,5.863
			c-4.223,3.045-8.827,5.404-13.804,8.017C163.875,362.726,163.932,357.856,164.178,352.982z"/>
		<path fill-rule="evenodd" clip-rule="evenodd" fill="#161C3F" d="M165.009,312.006c0-2,0-4.001,0-6.001
			c2.434-1.338,3.192,0.852,4.232,2.133c4.164,5.131,7.816,10.63,12.192,15.646c4.605,5.277,9.733,9.89,14.83,14.604
			c2.323,2.149,5.715,3.585,5.721,7.53c-0.52,0.413-1.039,0.827-1.559,1.241c-1.625,0.397-3.295,0.88-4.693-0.499
			c-6.326-6.24-13.778-11.184-18.988-18.773C173.045,322.5,168.153,317.886,165.009,312.006z"/>
		<path fill-rule="evenodd" clip-rule="evenodd" fill="#1B224D" d="M206.003,344.002c1.119-1.67,0.842-3.033-0.79-4.238
			c-15.244-11.251-26.688-25.848-36.799-41.648c-0.932-1.456-1.468-3.427-3.412-4.118c-0.764-2.333-0.779-4.665,0.008-6.996
			c5.636,9.139,11.061,18.411,17.868,26.777c7.232,8.889,14.923,17.309,24.149,24.185c1.544,1.15,3.113,2.018,2.041,4.29
			C208.259,343.208,207.262,343.834,206.003,344.002z"/>
		<path fill-rule="evenodd" clip-rule="evenodd" fill="#4351A3" d="M309.121,327.005c-0.303-1.654-0.259-3.311-0.017-4.967
			c0.405-0.386,0.862-0.693,1.369-0.93c5.912-0.458,11.308,2.234,17.093,2.781c7.725,0.731,15.375,2.21,23.142,2.667
			c1.957,0.114,4.044-0.2,5.578,1.51c0.227,1.163,0.457,2.323-0.413,3.353c-5.112,2.155-10.467,1.107-15.701,1.007
			c-8.631-0.165-17.169-1.442-25.633-3.133C312.595,328.905,310.615,328.504,309.121,327.005z"/>
		<path fill-rule="evenodd" clip-rule="evenodd" fill="#181E45" d="M201.983,345.918c-4.521-6.051-11.151-9.886-16.233-15.373
			c-1.082-1.169-2.298-2.228-3.373-3.483c-5.565-6.498-10.819-13.222-15.598-20.317c-0.408-0.605-1.102-0.679-1.771-0.739
			c0-2.089,0-4.178,0-6.267c4.298,4.473,7.344,9.5,10.877,14.176c7.711,10.205,16.35,19.45,26.499,27.25
			c1.367,1.051,2.796,1.941,1.653,3.975C203.578,345.993,202.911,346.301,201.983,345.918z"/>
		<path fill-rule="evenodd" clip-rule="evenodd" fill="#14193A" d="M165.009,312.006c3.389,2.811,6.063,6.196,8.124,10.077
			c0.155,0.291,0.244,0.68,0.486,0.854c5.829,4.195,8.588,11.183,14.276,15.56c3.055,2.352,6.909,3.794,8.84,7.58
			c0.638,1.251,2.392,0.897,3.689,1.083c-1.904,0.746-3.074,2.937-5.444,2.766c-4.285-5.083-9.823-8.842-14.357-13.693
			c-4.301-4.602-8.547-9.215-12.297-14.282c-0.876-1.185-1.893-2.331-3.323-2.949C165.005,316.669,165.007,314.338,165.009,312.006z
			"/>
		<path fill-rule="evenodd" clip-rule="evenodd" fill="#2C3A82" d="M239.031,325.075c0.882-1.646,0.952-2.824-0.948-4.108
			c-9.103-6.158-16.972-13.784-24.341-21.848c-6.906-7.557-13.042-15.774-18.024-24.775c-0.387-0.7-0.485-1.559-0.718-2.344
			c2.535-0.603,2.753,1.886,4,3h0c3.229,6.211,7.68,11.56,12,17c3.724,2.121,5.55,6.036,8.449,8.934
			c7.006,7.006,14.566,13.364,22.657,19.083c0.835,0.59,1.599,1.157,1.969,2.134C242.647,323.563,240.937,324.487,239.031,325.075z"
			/>
		<path fill-rule="evenodd" clip-rule="evenodd" fill="#12162E" d="M165.006,336.004c0-2.646,0-5.293,0-8.321
			c1.869,0.353,3.104,1.178,4.029,2.514c5.231,7.552,11.924,13.67,18.991,19.426c1.042,0.85,2.012,1.765,1.963,3.278
			c-1.598,1.143-2.867,2.812-4.986,3.123C178.161,349.526,170.221,344.126,165.006,336.004z"/>
		<path fill-rule="evenodd" clip-rule="evenodd" fill="#181F48" d="M392.862,367.412c-2.361-1.341-2.062-3.49-1.716-5.653
			c0.385-0.311,0.793-0.585,1.227-0.824c5.189-1.711,9.998-4.152,14.866-6.674c9.98-5.17,20.07-10.098,29.564-16.151
			c0.706-0.45,1.538-0.591,2.37-0.226c0.45,0.935,0.309,1.916,0.229,2.893c-0.534,1.695-1.854,2.686-3.225,3.656
			C422.725,353.949,408.484,361.982,392.862,367.412z"/>
		<path fill-rule="evenodd" clip-rule="evenodd" fill="#6F81BF" d="M355.999,254c0,0.667,0,1.333,0,2
			c-2.211,1.536-4.151,0.051-6.063-0.674c-13.165-4.996-24.677-12.717-35.484-21.609c-0.768-0.631-2.358-3.79-3.058,0.226
			c0.033,2.082,0.15,4.147,0.063,6.219c-0.048,1.953,0.171,3.904-0.014,5.854c0.024,2.286,0.19,4.571,0.002,6.855
			c-0.038,1.73,0.196,3.459,0.048,5.19c-0.153,2.042,0.164,4.087-0.044,6.128c0.113,2.977,0.229,5.953,0.017,8.929
			c0.159,4.234,0.25,8.468,0.012,12.702c0.129,2.731,0.198,5.462-0.01,8.193c-0.029,2.744,0.602,5.605-1.409,7.999
			c-0.141,1.057,0.229,2.276-0.957,3c-0.012-22.785-0.023-45.569-0.034-68.353c-0.001-2.329-0.018-4.658,0.023-6.986
			c0.026-1.483-0.091-3.072,1.694-3.785c0.402,0.081,0.804,0.162,1.205,0.243c4.057,1.817,6.671,5.438,10.07,8.084
			c9.121,7.102,18.87,13.075,29.66,17.295C353.268,252.113,354.832,252.726,355.999,254z"/>
		<path fill-rule="evenodd" clip-rule="evenodd" fill="#3F4DA1" d="M309.121,327.005c5.201-0.365,10.135,1.495,15.143,2.294
			c10.582,1.688,21.132,1.647,31.733,1.703c0.646,0.743,0.463,1.628,0.424,2.488c-0.188,0.58-0.548,1.018-1.076,1.319
			c-8.324,3.199-16.811,0.655-25.173,0.381c-6.563-0.215-13.24-1.15-19.571-3.385c-1.572-0.854-0.71-2.655-1.484-3.823
			C309.117,327.656,309.119,327.331,309.121,327.005z"/>
		<path fill-rule="evenodd" clip-rule="evenodd" fill="#141B3E" d="M392.862,367.412c1.59-3.512,5.481-3.486,8.249-4.684
			c5.639-2.44,10.916-5.422,16.354-8.182c7.643-3.878,14.266-9.143,21.479-13.566c0.95,1.112,0.418,2.425,0.493,3.654
			c-4.366,5.413-10.416,8.658-16.329,11.808c-7.849,4.181-15.322,9.248-24.082,11.564
			C396.926,368.283,394.808,368.736,392.862,367.412z"/>
		<path fill-rule="evenodd" clip-rule="evenodd" fill="#121528" d="M165.006,336.004c1.445-0.094,1.8,1.177,2.604,1.964
			c4.142,4.056,7.846,8.541,12.628,11.979c2.022,1.454,4.498,3.03,4.765,6.076c-2.061,1.796-4.42,3.075-6.969,4.027
			c0.491-0.831,0.981-1.662,1.679-2.844c-4.865-4.366-9.787-8.784-14.71-13.203C165.005,341.337,165.006,338.67,165.006,336.004z"/>
		<path fill-rule="evenodd" clip-rule="evenodd" fill="#252B61" d="M356.021,367.032c-1.155,1.75-2.988,1.188-4.551,1.194
			c-12.327,0.058-24.654,0.058-36.981-0.005c-1.546-0.008-3.42,0.588-4.448-1.34c-0.669-0.878-0.588-1.679,0.242-2.406
			c1.469-0.962,3.168-1.168,4.787-0.917c12.901,1.998,25.646-0.507,38.448-1.255c0.851-0.05,1.642-0.018,2.4,0.38
			C356.8,364.112,356.689,365.565,356.021,367.032z"/>
		<path fill-rule="evenodd" clip-rule="evenodd" fill="#334296" d="M391.128,335.003c-0.008-0.655-0.016-1.312-0.023-1.967
			c0.335-0.688,0.655-1.387,1.378-1.774c11.204-3.437,21.911-8.041,32.393-13.287c4.608-2.307,8.687-6.037,14.273-6.117
			c0.393,0.727,0.355,1.478,0.138,2.241c-2.19,4.196-6.71,5.45-10.356,7.395c-10.062,5.365-20.526,9.975-31.227,13.986
			C395.462,336.32,393.199,336.817,391.128,335.003z"/>
		<path fill-rule="evenodd" clip-rule="evenodd" fill="#27316C" d="M356.021,367.032c-0.009-1.343-0.019-2.686-0.028-4.028
			c-1.291-1.276-2.871-0.674-4.269-0.477c-6.907,0.972-13.898,0.813-20.812,1.646c-3.812,0.459-7.56,0.332-11.382-0.305
			c-3.135-0.523-6.581-1.545-9.43,1.146c-0.021,0.622-0.04,1.244-0.061,1.866c-1.873-2.125-0.7-4.645-0.903-6.985
			c0.374-0.787,0.856-1.459,1.759-1.698c14.829,1.581,29.609,0.569,44.383-0.892c0.575,0.058,1.08,0.279,1.515,0.658
			c-0.576,2.393,0.438,4.688,0.434,7.044C356.975,365.773,357.123,366.775,356.021,367.032z"/>
		<path fill-rule="evenodd" clip-rule="evenodd" fill="#313F90" d="M391.128,335.003c5.831,0.923,10.242-3.133,15.439-4.496
			c7.762-2.036,14.476-6.718,21.739-10.039c3.59-1.642,7.378-3.722,10.52-6.468c0.799,0.521,0.648,1.27,0.488,2.021
			c-2.235,4.592-7.02,6.245-10.998,8.014c-6.972,3.101-13.263,7.486-20.403,10.175c-4.174,1.571-8.514,2.663-12.615,4.46
			c-1.395,0.61-2.942,0.558-4.171-0.669C391.127,337.002,391.127,336.003,391.128,335.003z"/>
		<path fill-rule="evenodd" clip-rule="evenodd" fill="#131835" d="M399.025,368.007c0.268-0.412,0.444-1.058,0.816-1.203
			c5.536-2.172,10.498-5.563,15.872-7.9c7.056-3.069,12.99-7.706,19.438-11.616c1.271-0.771,2.542-1.538,3.813-2.307
			c0.615,0.593,0.532,1.298,0.324,2.021c-3.473,5.712-9.378,8.354-14.835,11.437c-5.765,3.256-11.145,7.24-17.433,9.543
			C404.357,368.444,401.692,368.396,399.025,368.007z"/>
		<path fill-rule="evenodd" clip-rule="evenodd" fill="#2E3C88" d="M391.127,338.001c5.884-0.243,10.879-3.401,16.326-5.071
			c7.196-2.206,13.128-7.137,20.257-9.825c3.817-1.439,7.916-3.949,11.12-7.11c0.795,0.534,0.646,1.287,0.479,2.045
			c-1.44,3.859-5.313,4.966-8.334,6.629c-10.851,5.977-21.781,11.889-33.746,15.476c-1.57,0.471-3.126,1.159-4.838,0.688
			c-0.479-0.198-0.902-0.479-1.273-0.841C391.12,339.328,391.123,338.664,391.127,338.001z"/>
		<path fill-rule="evenodd" clip-rule="evenodd" fill="#798BC6" d="M438.837,318.029c-0.002-0.679-0.004-1.356-0.007-2.035
			c-0.001-0.665-0.003-1.329-0.004-1.994c0-0.65,0-1.3,0-1.95c-0.867-0.776-1.029-1.824-1.127-2.899
			c-0.096-1.049-0.067-2.101-0.066-3.153c-0.042-1.051-0.007-2.1,0.027-3.151c-0.058-1.392,0.624-2.558,1.148-3.772
			c0-1.352,0.001-2.704,0.001-4.056c-0.002-1.331-0.004-2.661-0.006-3.992c-1.187-1.467-1.25-3.21-1.229-4.975
			c-0.181-1.996-0.041-3.992-0.011-5.988c-0.119-1.973-0.104-3.946-0.002-5.918c-0.104-1.954-0.015-3.907,0.008-5.86
			c-0.092-1.107,0.073-2.215-0.028-3.322c-0.119-1.657,0.121-3.312,0.002-4.968c-0.142-1.666,0.114-3.33-0.006-4.997
			c-0.135-1.692,0.046-3.38,0.048-5.072c-0.18-1.814,0.45-3.399,1.382-4.899c0.284-0.333,0.568-0.665,0.853-0.998
			c0.073,32.284,0.15,64.568,0.214,96.851c0.004,1.993-0.099,3.986-0.151,5.979c-0.193-0.01-0.387-0.021-0.579-0.03
			c-0.113-0.615-0.226-1.231-0.338-1.848c0.296-1.335,0.266-2.668-0.021-4c-0.003-0.997-0.007-1.994-0.01-2.991
			c-1.134-0.97-1.175-2.317-1.276-3.646c-0.095-1.021-0.021-2.043-0.007-3.064c0.004-0.979,0.019-1.961,0.031-2.941
			c-0.011-0.713,0.004-1.428,0.022-2.141c-0.01-0.7,0.007-1.401,0.023-2.101c-0.014-0.695,0.004-1.39,0.028-2.085
			c-0.001-0.701,0.097-1.389,0.287-2.062C438.267,319.293,438.529,318.651,438.837,318.029z"/>
		<path fill-rule="evenodd" clip-rule="evenodd" fill="#12152E" d="M439.303,346.828c0.191,0.039,0.385,0.049,0.579,0.03
			c-0.513,1.047-0.791,2.099-0.052,3.167c-3.544,5.499-9.614,7.81-14.609,11.454c-3.723,2.716-8.038,4.489-12.193,6.487
			c-2.001,0.377-4.003,0.342-6.006,0.015c4.754-4.328,10.468-7.255,16.032-10.234C428.879,354.628,434.101,350.784,439.303,346.828z
			"/>
		<path fill-rule="evenodd" clip-rule="evenodd" fill="#2C3B83" d="M199,275c-1.333-1-2.667-2-4-3
			c-5.892-10.472-10.664-21.421-14.125-32.939c-0.427-1.419-1.072-2.767-0.782-4.304c0.776,0.16,1.569,0.291,1.938,1.142
			c4.201,10.446,7.411,21.292,12.931,31.211C196.39,269.675,198.773,271.809,199,275z"/>
		<path fill-rule="evenodd" clip-rule="evenodd" fill="#10121C" d="M427.016,367.968c-2.664,0.394-5.327,0.36-7.991-0.002
			c-0.312-0.657-0.318-1.449,0.207-1.831c6.598-4.793,13.037-9.841,20.601-13.119c0,1.67,0,3.339,0,5.009
			C436.434,362.465,431.561,365.004,427.016,367.968z"/>
		<path fill-rule="evenodd" clip-rule="evenodd" fill="#111426" d="M439.832,353.016c-5.598,4.727-11.832,8.505-18.132,12.184
			c-1.163,0.679-2.117,1.521-2.676,2.767c-1.999,0.375-3.998,0.357-5.997,0.001c1.704-3.997,6.104-4.39,9.195-6.191
			c6.138-3.576,11.563-8.111,17.607-11.75C439.831,351.022,439.831,352.02,439.832,353.016z"/>
		<path fill-rule="evenodd" clip-rule="evenodd" fill="#879BCF" d="M436.14,225.938c-7.462-0.128-14.835,0.289-22.179,1.978
			c-6.816,1.568-13.301-2.331-20.121-1.987c0.865-1.014,2.048-0.944,3.211-0.943c11.952,0.018,23.905,0.036,35.857,0.053
			C434.069,225.04,435.255,224.949,436.14,225.938z"/>
		<path fill-rule="evenodd" clip-rule="evenodd" fill="#0B0C12" d="M427.016,367.968c3.375-4.471,8.189-7.087,12.816-9.943
			c0.524,8.418,1.694,10.365-9.855,10.127C428.988,368.131,428.003,368.03,427.016,367.968z"/>
		<path fill-rule="evenodd" clip-rule="evenodd" fill="#879BCF" d="M392.078,243.02c0.004,1.666,0.008,3.332,0.012,4.998
			c0,2.333-0.001,4.666-0.001,6.999c1.471,1.721,1.423,3.792,1.355,5.866c0.093,2.009,0.125,4.021,0.003,6.031
			c0.077,1.981,0.119,3.963-0.006,5.944c0.052,1.959,0.113,3.919-0.014,5.878c0.021,1.11,0.061,2.221,0.001,3.332
			c0.074,1.938,0.08,3.876-0.007,5.814c-0.001,1.969,0.167,3.966-0.889,5.773c-0.389,0.525-0.878,0.642-1.464,0.352
			c-0.019-20.976-0.038-41.952-0.052-62.928c-0.001-1.159-0.087-2.355,0.909-3.24c0.042,2.394,0.085,4.787,0.127,7.181
			C392.062,237.686,392.07,240.353,392.078,243.02z"/>
		<path fill-rule="evenodd" clip-rule="evenodd" fill="#212959" d="M165.011,287.002c-0.003,2.332-0.005,4.664-0.008,6.996
			c-0.187,1.337,0.492,2.851-0.806,3.962c-0.295-6.989-0.274-13.977,0.007-20.965c0.263,0.003,0.525,0.004,0.788,0.002
			c0.006,1.335,0.013,2.67,0.02,4.006C165.011,283.002,165.011,285.002,165.011,287.002z"/>
		<path fill-rule="evenodd" clip-rule="evenodd" fill="#5767B0" d="M309.93,358.982c-0.265,0.305-0.528,0.609-0.793,0.914
			c-0.562-6.298-0.238-12.597-0.033-18.895c0.453-0.142,0.859-0.057,1.22,0.255c0.431,0.547,0.641,1.181,0.743,1.859
			c0.104,0.667,0.132,1.339,0.141,2.013c0.035,0.67,0.034,1.34,0.034,2.01c0.027,0.672,0.022,1.343,0.017,2.014
			c0.011,0.897,0.002,1.794,0,2.691c0.021,0.676,0.008,1.352-0.008,2.027c0.013,0.682-0.01,1.361-0.048,2.043
			c-0.023,0.694-0.138,1.372-0.386,2.023C310.581,358.335,310.286,358.686,309.93,358.982z"/>
		<path fill-rule="evenodd" clip-rule="evenodd" fill="#273069" d="M164.993,246.999c0.006,2.001,0.013,4.002,0.019,6.004
			c-0.418,3.974,0.834,8.061-0.808,11.953c-0.297-5.986-0.285-11.973,0.005-17.958C164.47,246.999,164.731,247,164.993,246.999z"/>
		<path fill-rule="evenodd" clip-rule="evenodd" fill="#5A6AB1" d="M309.878,340.97c-0.258,0.016-0.516,0.026-0.774,0.032
			c-0.305-2.332-0.272-4.664-0.001-6.997c0.463-0.263,0.895-0.23,1.291,0.141c0.598,0.841,0.761,1.806,0.816,2.805
			c0.026,1.246-0.047,2.474-0.743,3.571C310.272,340.672,310.075,340.82,309.878,340.97z"/>
		<path fill-rule="evenodd" clip-rule="evenodd" fill="#7284C1" d="M391.112,313.977c1.641,1.417,0.533,3.364,0.968,5.015
			c0.542,0.582,0.544,1.226,0.22,1.907c-0.373,0.351-0.774,0.387-1.203,0.106C390.815,318.661,390.83,316.318,391.112,313.977z"/>
		<path fill-rule="evenodd" clip-rule="evenodd" fill="#7C90C8" d="M391.089,306.004c0-2.334,0-4.667-0.001-7
			c0.499-0.313,0.942-0.25,1.335,0.19c0.75,1.125,0.838,2.396,0.83,3.692c-0.025,1.044-0.216,2.043-0.819,2.925
			C392.04,306.247,391.591,306.312,391.089,306.004z"/>
		<path fill-rule="evenodd" clip-rule="evenodd" fill="#6677B9" d="M309.949,321.976c-0.281,0.016-0.563,0.037-0.845,0.063
			c-0.303-2.352-0.277-4.702,0.001-7.054c0.318,0.349,0.637,0.697,0.955,1.046C311.258,318.035,311.714,320.025,309.949,321.976z"/>
		<path fill-rule="evenodd" clip-rule="evenodd" fill="#6879BB" d="M392.118,332.012c-0.338,0.341-0.676,0.683-1.014,1.024
			c-0.305-2.344-0.264-4.687,0.002-7.029c0.207-0.104,0.415-0.208,0.623-0.312c0.438,0.2,0.766,0.513,0.992,0.938
			c0.369,0.893,0.454,1.827,0.425,2.782C393.135,330.411,392.723,331.25,392.118,332.012z"/>
		<path fill-rule="evenodd" clip-rule="evenodd" fill="#5E6EB4" d="M391.117,339.991c0.258,0.015,0.517,0.028,0.774,0.04
			c0.558,0.402,0.918,0.937,1.078,1.606c0.134,0.654,0.159,1.315,0.124,1.98c-0.033,0.666-0.167,1.311-0.436,1.924
			c-0.125,0.179-0.257,0.355-0.385,0.533c-0.402,0.249-0.791,0.238-1.161-0.072C390.81,343.999,390.833,341.995,391.117,339.991z"/>
		<path fill-rule="evenodd" clip-rule="evenodd" fill="#5F6FB5" d="M309.917,333.986c-0.271,0.007-0.543,0.014-0.814,0.019
			c-0.299-2.008-0.281-4.016,0.014-6.022c1.188,0.734,0.783,1.976,0.963,3.031C310.772,332.045,310.877,333.045,309.917,333.986z"/>
		<path fill-rule="evenodd" clip-rule="evenodd" fill="#6B7DBD" d="M310.055,310.01c-0.072,0.785-0.126,1.579-0.955,2.004
			c-0.281-2.008-0.27-4.016,0.01-6.022C310.556,307.064,309.771,308.663,310.055,310.01z"/>
		<path fill-rule="evenodd" clip-rule="evenodd" fill="#798BC6" d="M391.089,306.004c0.274-0.004,0.55-0.008,0.825-0.013
			c0.61,0.624,0.691,1.295,0.183,2.021c-0.331,1.336,0.465,2.955-1.003,4.008C391.092,310.014,391.091,308.009,391.089,306.004z"/>
		<path fill-rule="evenodd" clip-rule="evenodd" fill="#5666AF" d="M391.129,357.004c-0.333-2-0.29-4.001-0.008-6.002
			c0.488-0.106,0.911,0.014,1.272,0.361c0.584,0.818,0.73,1.755,0.758,2.728c-0.006,0.984-0.168,1.929-0.748,2.758
			C392.017,357.208,391.591,357.259,391.129,357.004z"/>
		<path fill-rule="evenodd" clip-rule="evenodd" fill="#5363AD" d="M391.129,357.004l0.404,0.002c0.6,0.129,1.014,0.477,1.247,1.044
			c0.424,1.484,0.36,2.831-1.084,3.779l-0.283,0.028l-0.267-0.099C390.777,360.175,390.854,358.59,391.129,357.004z"/>
		<path fill-rule="evenodd" clip-rule="evenodd" fill="#5B6BB2" d="M391.628,350.995l-0.253,0.01l-0.254-0.003
			c-0.312-1.666-0.28-3.332-0.009-4.999c0.201,0.001,0.402-0.004,0.604-0.015c0.432,0.118,0.758,0.369,0.963,0.771
			c0.25,0.606,0.347,1.241,0.353,1.894c-0.004,0.647-0.117,1.273-0.38,1.868C392.425,350.923,392.077,351.069,391.628,350.995z"/>
		<path fill-rule="evenodd" clip-rule="evenodd" fill="#8094CB" d="M391.921,298.992c-0.277,0.005-0.555,0.009-0.833,0.012
			c-0.006-1.666-0.013-3.332-0.019-4.998c0.277-0.005,0.555-0.012,0.832-0.021c0.722,0.507,1.03,1.242,1.155,2.082
			C393.107,297.207,392.914,298.255,391.921,298.992z"/>
		<path fill-rule="evenodd" clip-rule="evenodd" fill="#6D7FBE" d="M391.873,326.029c-0.255-0.013-0.511-0.02-0.767-0.022
			c-0.003-1.667-0.007-3.335-0.01-5.002c0.267-0.004,0.533-0.01,0.801-0.018c0.466,0.326,0.792,0.757,0.983,1.293
			C393.195,323.704,393.179,325.04,391.873,326.029z"/>
		<path fill-rule="evenodd" clip-rule="evenodd" fill="#020202" d="M100.849,458.001c5.127-0.112,9.992,4.449,10.194,9.559
			c0.239,6.046-6.671,13.05-13.19,13.368c-4.808,0.235-9.895-4.676-10.109-9.759C87.483,464.958,94.264,458.146,100.849,458.001z"/>
		<path fill-rule="evenodd" clip-rule="evenodd" fill="#121313" d="M436.301,530.73c-0.726-3.418-1.357-6.396-2.063-9.723
			c4.114,0.178,6.187,3.225,9.029,5.509C440.924,527.935,438.827,529.202,436.301,530.73z"/>
		<path fill-rule="evenodd" clip-rule="evenodd" fill="#050505" d="M124.646,492.187c2.379-2.602,4.489-4.908,6.585-7.2
			c5.116,3.744,6.234,6.623,3.814,9.55C132.641,497.443,129.394,496.788,124.646,492.187z"/>
		<path fill-rule="evenodd" clip-rule="evenodd" fill="#0A0A0A" d="M150.432,513.234c1.995-2.931,3.75-5.51,5.488-8.063
			c5.669,2.82,7.192,5.496,5.147,8.783C158.971,517.326,156.064,517.202,150.432,513.234z"/>
		<path fill-rule="evenodd" clip-rule="evenodd" fill="#070807" d="M478.077,113.068c-0.096,2.997-2.887,5.876-5.674,5.851
			c-3.011-0.027-5.873-3.252-5.653-6.372c0.21-2.985,3.121-5.682,5.958-5.519C475.756,107.206,478.177,109.929,478.077,113.068z"/>
		<path fill-rule="evenodd" clip-rule="evenodd" fill="#0B0C0C" d="M144.231,105.085c0.042,2.97-2.585,5.787-5.516,5.914
			c-3.129,0.136-5.91-2.737-5.865-6.059c0.042-3.113,2.658-5.689,5.728-5.641C141.625,99.347,144.188,101.97,144.231,105.085z"/>
		<path fill-rule="evenodd" clip-rule="evenodd" fill="#242525" d="M316.589,42.773c-3.112,0.432-5.733,0.37-8.456-0.269
			c-0.287-2.571,1.791-3.147,3.384-3.399C313.824,38.739,315.631,39.896,316.589,42.773z"/>
		<path fill-rule="evenodd" clip-rule="evenodd" fill="#2C3B83" d="M211,292c-5.096-4.894-10.063-9.877-12-17
			C203.463,280.339,207.603,285.908,211,292z"/>
		<path fill-rule="evenodd" clip-rule="evenodd" fill="#272E67" d="M199,307c-2.253-1.511-4.862-2.726-5-6
			C196.14,302.605,198.54,303.995,199,307z"/>
		<path fill-rule="evenodd" clip-rule="evenodd" fill="#272E67" d="M210,319c-2.4-1.6-4.4-3.6-6-6
			C207.169,313.831,209.169,315.831,210,319z"/>
		<path fill-rule="evenodd" clip-rule="evenodd" fill="#272E67" d="M225,331c-2.05-0.044-3.124-1.391-4-3
			C223.05,328.044,224.124,329.39,225,331z"/>
		<path fill-rule="evenodd" clip-rule="evenodd" fill="#272E67" d="M213.001,321.999c-1.943-0.056-2.943-1.057-3.001-2.999
			C211.36,319.64,212.359,320.641,213.001,321.999z"/>
		<path fill-rule="evenodd" clip-rule="evenodd" fill="#5464AE" d="M310.06,302.011c0.002-2.666,0.004-5.332,0.005-7.997
			c1.55-1.244,3.2-0.633,4.726-0.088c12.851,4.589,25.954,8.022,39.628,8.965c0.494,0.034,0.926,0.343,1.357,0.589
			c1.455,1.628,0.17,3.764,1.014,5.508c-0.004,4.683-0.009,9.366-0.013,14.05c-0.36,0.242-0.704,0.21-1.034-0.062
			c-0.188-0.396-0.103-0.721,0.256-0.974c0-1.666-0.001-3.333-0.001-4.999c-0.141-1.781,0.36-3.621-0.669-5.801
			C339.896,310.613,324.826,307.026,310.06,302.011z"/>
		<path fill-rule="evenodd" clip-rule="evenodd" fill="#7284C1" d="M392.098,261.022c-0.003-2.002-0.006-4.004-0.009-6.006
			c16.396,0.283,31.951-3.38,46.878-9.991c-0.035,1.675-0.07,3.349-0.105,5.024c-0.921,1.206-2.02,2.2-3.431,2.801
			c-13.274,5.658-27.043,9.035-41.551,8.973C393.199,261.82,392.624,261.439,392.098,261.022z"/>
		<path fill-rule="evenodd" clip-rule="evenodd" fill="#7183C1" d="M355.999,254c-7.301-1.33-13.574-5.138-19.913-8.616
			c-8.717-4.783-16.329-11.152-23.61-17.891c-0.313-0.291-0.33-0.902-0.484-1.364c3.337-0.011,6.674-0.021,10.011-0.032
			c7.047,3.374,12.433,9.185,19.234,12.992c4.876,2.729,10.394,4.258,14.756,7.916C355.994,249.336,355.997,251.668,355.999,254z"/>
		<path fill-rule="evenodd" clip-rule="evenodd" fill="#7587C3" d="M355.992,247.004c-13.078-4.126-24.114-11.574-33.99-20.907
			c2.477-0.026,4.953-0.055,7.43-0.077c5.171-0.046,10.242-0.649,14.313,4.174c2.108,2.497,5.582,4.198,8.77,5.323
			c3.065,1.082,3.673,2.796,3.505,5.542C355.899,243.034,355.994,245.022,355.992,247.004z"/>
		<path fill-rule="evenodd" clip-rule="evenodd" fill="#6B7DBD" d="M310.066,240.041c-0.003-2.334-0.007-4.669-0.01-7.003
			c2.086-0.855,3.496,0.479,4.832,1.647c10.831,9.462,23.255,16.214,36.521,21.532c1.703,0.683,3.383,1.323,4.593,2.783
			c1.51,9.665,0.935,19.385,0.786,29.095c-0.276,0.021-0.553,0.042-0.83,0.065c-0.189-0.203-0.378-0.406-0.571-0.607
			c-1.032-2.073-0.767-4.304-0.794-6.5c-0.057-1.348-0.063-2.697-0.006-4.044c-0.045-1.587-0.075-3.174,0.011-4.759
			c0-1.272-0.058-2.546,0.008-3.816c0.221-3.073-1.99-3.808-4.286-4.586c-12.032-4.078-23.243-9.754-33.438-17.371
			C314.363,244.595,311.647,242.916,310.066,240.041z"/>
		<path fill-rule="evenodd" clip-rule="evenodd" fill="#6E80BF" d="M356.002,258.999c-15.458-5.021-29.542-12.516-41.769-23.312
			c-1.277-1.128-2.682-1.929-4.177-2.65c0.037-1.259-0.382-2.615,0.937-4.065c13.473,11.705,27.699,21.981,45.006,27.028
			C356,257,356.001,258,356.002,258.999z"/>
		<path fill-rule="evenodd" clip-rule="evenodd" fill="#313F90" d="M310.083,342.999c-0.068-0.677-0.137-1.354-0.205-2.029
			l0.203,0.051c1.252-1.11,2.754-1.034,4.253-0.849c13.035,1.613,26.069,3.21,39.235,1.563c0.491-0.062,0.976,0.174,1.458,0.305
			c0.9,0.364,1.48,1.018,1.749,1.948c-0.014,1.64-0.026,3.279-0.04,4.919c-0.791,0.166-1.27-0.313-1.74-0.827
			c-0.314-0.351-0.659-0.661-1.063-0.906c-9.074-0.858-18.192,0.819-27.238-0.623C321.095,345.658,315.042,346.883,310.083,342.999z
			"/>
		<path fill-rule="evenodd" clip-rule="evenodd" fill="#2A3577" d="M309.958,355.981c0.013-0.665,0.024-1.33,0.037-1.996
			c0.935-0.766,2.002-1.179,3.211-1.024c10.368,1.327,20.788,0.164,31.166,0.673c3.665,0.181,7.153-1.39,10.81-0.687
			c0.608,0.207,1.128,0.55,1.562,1.023c0.017,1.331,0.033,2.663,0.05,3.994c-0.262,0.023-0.525,0.033-0.788,0.029
			c-0.516-0.299-1.069-0.474-1.666-0.52c-12.006,1.281-24.051,0.922-36.087,0.951C315.229,358.433,312.284,358.285,309.958,355.981z
			"/>
		<path fill-rule="evenodd" clip-rule="evenodd" fill="#2C3A83" d="M356.743,353.971l-0.369,0.021l-0.37-0.002
			c-0.547-0.609-1.122-1.189-1.778-1.686c-9.256-0.176-18.499,0.3-27.749,0.179c-4.34-0.057-8.536-1.164-12.856-1.186
			c-1.602-0.008-2.841-0.822-3.578-2.298c0.006-0.664,0.012-1.328,0.017-1.993c4.981-1.427,9.838,0.549,14.761,0.54
			c9.452-0.018,18.907,0.256,28.355-0.17c1.025-0.047,1.98-0.049,2.82,0.621c0.247,0.304,0.494,0.606,0.741,0.91
			C356.985,350.595,357.032,352.282,356.743,353.971z"/>
		<path fill-rule="evenodd" clip-rule="evenodd" fill="#5F6FB5" d="M356.003,287.996c0.267-0.002,0.528,0.03,0.785,0.098
			c0,6.964,0.001,13.929,0.001,20.894c-1.402-1.481-0.544-3.321-0.791-4.986c-1.628-1.781-1.529-3.973-1.467-6.156
			C354.619,294.502,353.529,290.981,356.003,287.996z"/>
		<path fill-rule="evenodd" clip-rule="evenodd" fill="#4351A3" d="M356.776,343.988c-0.256-0.332-0.512-0.664-0.768-0.996
			c-1.036-1.151-1.443-2.519-1.4-4.044c-0.128-1.81,0.108-3.521,1.38-4.939c0.007-0.34,0.013-0.68,0.02-1.02
			c0.29-0.456,0.552-0.464,0.779,0.051C356.783,336.689,356.779,340.339,356.776,343.988z"/>
		<path fill-rule="evenodd" clip-rule="evenodd" fill="#4D5BA9" d="M356.787,333.04c-0.259-0.027-0.519-0.045-0.779-0.051
			c-0.004-0.662-0.007-1.325-0.011-1.987c0-1,0-1.999,0-2.999c-1.27-1.669-1.536-3.338,0.004-5.005c0.259,0,0.518,0.014,0.775,0.039
			C356.78,326.371,356.783,329.705,356.787,333.04z"/>
		<path fill-rule="evenodd" clip-rule="evenodd" fill="#4856A6" d="M356.001,322.998c-0.001,1.668-0.003,3.337-0.004,5.005
			c-6.092-0.05-12.16-1.089-18.122-1.417c-5.813-0.32-11.334-2.752-17.145-1.926c-2.077,0.295-2.997-1.763-4.971-1.787
			c-1.914-0.022-3.775-1.134-5.811-0.897c0.037-1.982,0.074-3.964,0.111-5.945c7.551,2.405,15.291,3.825,23.115,5.091
			c7.625,1.234,15.219,0.598,22.822,0.881C356,322.334,356.001,322.666,356.001,322.998z"/>
		<path fill-rule="evenodd" clip-rule="evenodd" fill="#4755A5" d="M392.104,322.013c-0.069-0.342-0.139-0.684-0.207-1.025
			c0.061-0.665,0.121-1.33,0.183-1.996c3.966-2.099,8.501-2.312,12.658-3.891c7.005-2.66,13.945-5.372,20.711-8.646
			c4.61-2.231,8.674-5.354,13.359-7.38c0.002,1.315,0.005,2.631,0.007,3.947c-5.233,5.056-11.974,7.49-18.381,10.468
			c-7.493,3.481-15.072,6.78-23.162,8.694C395.532,322.595,393.781,323.466,392.104,322.013z"/>
		<path fill-rule="evenodd" clip-rule="evenodd" fill="#5363AD" d="M392.097,308.012c-0.061-0.674-0.122-1.347-0.183-2.021
			c0.058-0.993,0.116-1.987,0.175-2.981c1.481-1.539,3.509-1.819,5.43-2.314c12.775-3.29,25.189-7.508,36.71-14.077
			c1.394-0.794,2.86-1.903,4.577-0.592c-0.001,1.667-0.001,3.333-0.002,4.999c-8.413,4.231-16.674,8.797-25.613,11.887
			C406.326,305.285,399.311,307.067,392.097,308.012z"/>
		<path fill-rule="evenodd" clip-rule="evenodd" fill="#1E2552" d="M391.696,361.829c0.092-1.29,0.184-2.581,0.275-3.871
			c2.803-2.816,6.612-3.869,10.097-5.244c11.329-4.472,21.518-10.955,31.846-17.223c1.521-0.924,2.956-2.276,5.005-1.501
			c0.255,1.332,0.296,2.664,0.015,3.999c-6.09,4.53-12.54,8.776-19.416,11.653c-7.658,3.203-14.244,8.336-22.056,11.039
			C395.63,361.316,393.806,362.415,391.696,361.829z"/>
		<path fill-rule="evenodd" clip-rule="evenodd" fill="#5A6AB1" d="M356.003,287.996c-0.002,3.335-0.005,6.67-0.007,10.006
			c-0.948,0.836-2.075,0.971-3.274,0.846c-14.035-1.463-27.419-5.311-40.295-11.016c-0.934-0.414-1.63-1.139-2.356-1.822
			c0.002-4.328,0.004-8.656,0.007-12.984c2.066-1.472,3.827-0.095,5.509,0.756c11.135,5.635,22.807,9.638,35.099,11.819
			C352.661,285.951,354.563,286.461,356.003,287.996L356.003,287.996z"/>
		<path fill-rule="evenodd" clip-rule="evenodd" fill="#5F6FB5" d="M356.004,287.997c-14.134-2.171-27.698-6.136-40.457-12.708
			c-1.743-0.898-3.38-2.161-5.47-2.264c0.002-3.004,0.005-6.009,0.007-9.013c1.521-1.199,2.865-0.241,4.104,0.476
			c12.279,7.102,25.335,12.172,39.209,15.134c0.993,0.212,1.856,0.684,2.599,1.378C355.998,283.333,356.001,285.665,356.004,287.997
			z"/>
		<path fill-rule="evenodd" clip-rule="evenodd" fill="#5767B0" d="M310.07,286.01c6.492,1.238,12.257,4.574,18.564,6.402
			c7.256,2.103,14.538,3.916,22.068,4.569c1.818,0.158,3.404,1.35,5.293,1.021c0.001,2,0.001,3.999,0.002,5.999
			c-13.025,0.284-25.301-3.287-37.498-7.276c-2.807-0.918-5.623-1.809-8.436-2.711C310.066,291.346,310.068,288.678,310.07,286.01z"
			/>
		<path fill-rule="evenodd" clip-rule="evenodd" fill="#6374B7" d="M355.988,272.006c0.001,1.666,0.002,3.331,0.003,4.997
			c-1.957,1.727-4.1,0.871-6.16,0.36c-12.526-3.105-24.171-8.33-35.31-14.764c-1.914-1.105-3.529-2.483-4.437-4.56
			c-0.002-1.672-0.003-3.345-0.005-5.018c1.681-1.321,3.178-0.312,4.545,0.516c12.616,7.64,25.651,14.303,40.169,17.604
			C355.253,271.246,355.614,271.681,355.988,272.006z"/>
		<path fill-rule="evenodd" clip-rule="evenodd" fill="#6677B9" d="M355.988,272.006c-8.001-0.162-15.104-3.444-22.154-6.664
			c-7.084-3.234-14.066-6.719-20.52-11.157c-0.924-0.635-1.989-1.245-3.234-1.164c-0.001-2.333-0.002-4.667-0.003-7
			c1.59-1.257,2.856-0.146,4.011,0.694c12.05,8.761,25.05,15.594,39.441,19.648c0.986,0.278,1.732,0.957,2.461,1.642
			C355.99,269.339,355.989,270.672,355.988,272.006z"/>
		<path fill-rule="evenodd" clip-rule="evenodd" fill="#697ABB" d="M355.99,268.006c-12.307-2.421-23.354-7.775-33.946-14.313
			c-4.036-2.491-7.506-5.858-11.967-7.671c-0.004-1.994-0.007-3.988-0.011-5.981c4.15,1.821,7.251,5.163,10.911,7.693
			c9.762,6.75,20.197,11.951,31.558,15.261C355.317,263.805,356.363,265.282,355.99,268.006z"/>
		<path fill-rule="evenodd" clip-rule="evenodd" fill="#6171B6" d="M310.085,258.04c13.136,8.945,27.571,14.928,42.927,18.797
			c0.947,0.239,1.984,0.119,2.979,0.167c0.002,1.333,0.003,2.666,0.005,3.998c-8.026-0.377-15.38-3.325-22.837-5.917
			c-8.115-2.821-15.411-7.325-23.075-11.072C310.085,262.021,310.085,260.031,310.085,258.04z"/>
		<path fill-rule="evenodd" clip-rule="evenodd" fill="#3A489D" d="M355.988,334.009c0.003,1.665,0.006,3.329,0.008,4.993
			c-5.085,3.184-10.812,2.814-16.353,2.502c-8.066-0.455-16.157-0.91-24.144-2.304c-1.955-0.341-3.924-0.691-5.42-2.189
			c-0.055-1.008-0.109-2.017-0.163-3.024c0.054-0.991,0.108-1.982,0.162-2.973c5.937,0.065,11.636,1.862,17.514,2.438
			c1.772,0.174,3.561,0.49,5.366,0.55c3.937,0.131,7.851-0.189,11.79,0.865C348.46,335.859,352.153,333.371,355.988,334.009z"/>
		<path fill-rule="evenodd" clip-rule="evenodd" fill="#272E66" d="M310.101,365.016c-0.432-2.587,0.999-2.96,3.187-3.064
			c5.157-0.245,10.136,1.661,15.307,1.058c6.865-0.801,13.793-0.818,20.662-1.76c2.145-0.294,5.387-2.098,6.736,1.755
			c-3.918,1.557-8.202,1.499-12.206,1.741c-6.275,0.38-12.548,1.155-18.836,1.198C319.996,365.979,315.11,364.438,310.101,365.016z"
			/>
		<path fill-rule="evenodd" clip-rule="evenodd" fill="#39479C" d="M392.118,332.012c-0.002-1-0.004-1.999-0.006-2.998
			c2.495-2.405,5.821-3.13,8.932-4.079c11.308-3.448,21.744-8.743,31.988-14.502c1.773-0.997,3.37-2.949,5.785-1.414
			c0.003,1.011,0.006,2.021,0.009,3.031c-8.319,4.335-16.348,9.43-25.051,12.764C406.723,327.516,400.151,332.142,392.118,332.012z"
			/>
		<path fill-rule="evenodd" clip-rule="evenodd" fill="#28326F" d="M355.989,357.001c0.007,0.331,0.012,0.662,0.016,0.993
			c-4.725,1.563-9.696,1.468-14.554,1.893c-4.326,0.379-8.82,0.058-13.091,0.378c-6.314,0.475-12.32-0.468-18.431-1.282
			c0.003-0.334,0.006-0.667,0.009-1.001c2.485-1.583,5.197-0.515,7.712-0.373c11.868,0.668,23.691,0.734,35.479-1.046
			C354.088,356.418,355.113,356.358,355.989,357.001z"/>
		<path fill-rule="evenodd" clip-rule="evenodd" fill="#2C3A83" d="M392.098,341.99c-0.068-0.652-0.137-1.306-0.206-1.959
			c5.482-0.755,10.571-2.831,15.533-5.075c8.613-3.897,17.264-7.738,25.235-12.944c2.042-1.334,4.298-2.366,6.177-3.982
			c0.005,0.666,0.009,1.332,0.013,1.999c-2.949,5.414-8.775,6.903-13.627,9.482c-4.084,2.172-8.293,4.149-12.293,6.518
			c-4.832,1.69-9.522,3.74-14.294,5.581C396.575,342.404,394.382,343.796,392.098,341.99z"/>
		<path fill-rule="evenodd" clip-rule="evenodd" fill="#5B6BB2" d="M392.092,296.012c-0.063-0.675-0.127-1.351-0.19-2.027
			c0.064-1.992,0.128-3.983,0.192-5.976c4.136-2.881,9.169-2.464,13.76-3.636c9.341-2.383,18.171-6.03,26.959-9.862
			c1.896-0.827,3.845-2.231,5.994-0.489c-0.003,2.003-0.005,4.006-0.007,6.009c-3.853,4.176-9.242,5.769-14.139,8.034
			c-8.587,3.973-17.639,6.743-26.922,8.676C395.776,297.15,393.802,297.586,392.092,296.012z"/>
		<path fill-rule="evenodd" clip-rule="evenodd" fill="#5666AF" d="M392.092,296.012c8.147-0.672,15.79-3.314,23.514-5.773
			c8.117-2.585,15.251-7.294,23.194-10.208c0.002,1.999,0.004,3.997,0.006,5.995c-6.087,2.538-11.604,6.24-17.83,8.528
			c-9.446,3.472-18.81,7.166-28.887,8.455c-0.057-1.339-0.112-2.679-0.168-4.018C391.978,297.999,392.034,297.005,392.092,296.012z"
			/>
		<path fill-rule="evenodd" clip-rule="evenodd" fill="#6D7FBE" d="M392.098,261.022c8.88-1.542,18.001-1.204,26.759-3.923
			c6.769-2.102,13.4-4.519,20.005-7.049c-0.006,1.681-0.012,3.362-0.019,5.043c-0.894,1.979-2.647,2.909-4.512,3.709
			c-11.396,4.896-23.19,8.312-35.574,9.487c-2.304,0.219-4.691,0.494-6.651-1.268C392.104,265.022,392.1,263.022,392.098,261.022z"
			/>
		<path fill-rule="evenodd" clip-rule="evenodd" fill="#6879BB" d="M392.105,267.021c16.575-0.075,31.944-4.875,46.737-11.929
			c-0.005,1.665-0.01,3.33-0.016,4.995c-1.127,2.522-3.534,3.409-5.795,4.386c-10.849,4.688-22.062,8.137-33.82,9.633
			c-2.453,0.312-4.973,0.785-7.108-1.091C392.104,271.018,392.105,269.02,392.105,267.021z"/>
		<path fill-rule="evenodd" clip-rule="evenodd" fill="#5E6EB4" d="M438.807,274.022c-6.546,1.382-12.188,5.048-18.403,7.275
			c-9.191,3.294-18.507,6.018-28.31,6.712c0.003-1.999,0.006-3.999,0.009-5.998c0.863-0.859,1.943-1.216,3.12-1.376
			c13.241-1.794,25.79-5.894,37.946-11.334c1.763-0.789,3.506-2.014,5.643-1.221C438.81,270.061,438.809,272.042,438.807,274.022z"
			/>
		<path fill-rule="evenodd" clip-rule="evenodd" fill="#6475B8" d="M392.104,273.016c16.654-0.406,31.965-5.672,46.724-12.928
			c-0.001,1.662-0.002,3.324-0.003,4.986c-0.56,1.297-1.611,2.006-2.858,2.582c-12.51,5.764-25.342,10.459-39.147,11.981
			c-1.625,0.179-3.293,0.653-4.725-0.629C392.097,277.011,392.1,275.014,392.104,273.016z"/>
		<path fill-rule="evenodd" clip-rule="evenodd" fill="#242A5E" d="M438.919,333.99c-5.872,3.624-11.69,7.337-17.631,10.845
			c-4.909,2.898-10.042,5.393-15.277,7.661c-3.588,1.555-7.21,3.041-10.725,4.746c-1.113,0.54-2.147,0.765-3.314,0.716
			c-0.146-0.317-0.292-0.635-0.438-0.952c0.161-1.012,0.321-2.024,0.482-3.036c5.076-3.479,11.056-5.062,16.492-7.82
			c7.933-4.025,16.006-7.713,23.361-12.819c1.966-1.365,3.978-3.77,7.037-2.35C438.911,331.983,438.915,332.986,438.919,333.99z"/>
		<path fill-rule="evenodd" clip-rule="evenodd" fill="#6172B6" d="M392.094,279.008c16.467-1.66,31.782-7.182,46.73-13.934
			c-0.004,1.002-0.008,2.003-0.013,3.005c-13.07,6.608-26.801,11.266-41.228,13.802c-1.779,0.313-3.651,0.099-5.481,0.129
			C392.1,281.01,392.097,280.009,392.094,279.008z"/>
		<path fill-rule="evenodd" clip-rule="evenodd" fill="#4351A3" d="M392.104,322.013c9.266-1.718,17.825-5.471,26.473-9.024
			c6.981-2.87,13.246-7.148,20.238-9.968c0,1-0.001,2-0.001,3.001c-1.354,2.019-3.505,3.084-5.505,4.166
			c-11.693,6.322-23.612,12.157-36.479,15.771c-1.544,0.434-3.136,1.347-4.703,0.007l-0.254,0.063
			C391.95,324.69,392.027,323.352,392.104,322.013z"/>
		<path fill-rule="evenodd" clip-rule="evenodd" fill="#3E4CA0" d="M392.127,325.966c15.351-4.257,29.827-10.531,43.474-18.747
			c0.966-0.581,1.978-1.248,3.214-1.197c0.001,0.999,0.002,1.998,0.003,2.997c-4.799,1.718-8.892,4.773-13.37,7.104
			c-10.648,5.539-21.708,9.926-33.335,12.892C392.117,327.997,392.122,326.981,392.127,325.966z"/>
		<path fill-rule="evenodd" clip-rule="evenodd" fill="#272D65" d="M438.906,330.98c-2.883,1.191-5.533,2.787-8.097,4.556
			c-10.434,7.198-22.163,11.896-33.563,17.215c-1.559,0.727-3.318,1.56-5.231,1.219c-0.129-0.991-0.259-1.983-0.388-2.975
			l0.411-0.017c5.182-3.683,11.45-4.973,17.094-7.688c9.104-4.381,17.682-9.652,26.562-14.398c1.017-0.543,1.912-1.356,3.191-0.881
			C438.893,329,438.899,329.99,438.906,330.98z"/>
		<path fill-rule="evenodd" clip-rule="evenodd" fill="#293371" d="M392.051,348.979c0.005-0.666,0.01-1.333,0.015-1.999
			c5.495-3.783,12.013-5.358,17.967-8.163c8.685-4.091,17.009-8.746,25.257-13.592c1.119-0.657,2.072-1.719,3.574-1.21
			c0.006,0.666,0.012,1.331,0.017,1.996c-3.599,5.104-9.488,7.03-14.529,9.936c-8.84,5.095-18.078,9.532-27.763,12.927
			C395.019,349.425,393.606,350.465,392.051,348.979z"/>
		<path fill-rule="evenodd" clip-rule="evenodd" fill="#28316C" d="M392.051,348.979c6.688-0.818,12.446-4.257,18.438-6.874
			c9.991-4.364,19.51-9.702,28.392-16.094c0.002,0.666,0.004,1.332,0.006,1.999c-5.103,3.555-10.462,6.679-15.973,9.553
			c-4.962,2.589-9.778,5.515-14.905,7.717c-5.18,2.226-10.173,5.142-15.969,5.698C392.043,350.313,392.047,349.646,392.051,348.979z
			"/>
		<path fill-rule="evenodd" clip-rule="evenodd" fill="#2A3476" d="M438.863,324.016c-7.995,5.911-16.71,10.589-25.674,14.806
			c-4.916,2.313-9.931,4.421-14.949,6.504c-1.964,0.815-3.932,1.801-6.175,1.655c-0.116-0.331-0.233-0.661-0.35-0.992l0.345-0.001
			c1.578-2.354,4.056-3.168,6.58-4.043c6.041-2.093,11.993-4.419,17.46-7.807c7.493-4.215,15.12-8.178,22.758-12.124
			C438.86,322.682,438.862,323.349,438.863,324.016z"/>
		<path fill-rule="evenodd" clip-rule="evenodd" fill="#2B387F" d="M438.858,322.014c-6.058,4.847-13.041,8.094-19.915,11.531
			c-0.729,0.364-1.55,0.63-1.944,1.453c-0.817,0.642-1.824,0.542-2.765,0.708c-0.485-0.108-0.9-0.339-1.236-0.707
			c2.479-2.509,5.613-3.998,8.776-5.319c6.087-2.543,11.678-5.914,17.075-9.651C438.853,320.69,438.855,321.352,438.858,322.014z"/>
		<path fill-rule="evenodd" clip-rule="evenodd" fill="#2B397F" d="M310.042,348.999c4.542,1.665,9.386,1.532,14.063,1.858
			c7.576,0.528,15.217,0.105,22.83,0.168c1.856,0.016,3.561-0.487,5.332-0.861c1.513-0.319,3.481-0.767,3.723,1.839
			c-8.414,3.433-17.324,2.432-25.979,2.229c-5.872-0.137-11.964,0.874-17.758-1.228c-0.781-0.283-1.576-0.477-2.23-1.017
			C310.028,350.992,310.035,349.996,310.042,348.999z"/>
		<path fill-rule="evenodd" clip-rule="evenodd" fill="#2E3C88" d="M355.995,347.997c-2.542,0.871-5.151,1.056-7.832,1.029
			c-7.822-0.075-15.663,0.294-23.462-0.145c-4.881-0.274-9.883-0.337-14.643-1.876c0.003-0.67,0.006-1.341,0.009-2.011
			c6.733-0.968,13.281,1.138,19.998,1.258c7.885,0.142,15.763-0.294,23.64-0.012c0.871,0.031,1.605,0.26,2.288,0.756
			C355.994,347.33,355.994,347.664,355.995,347.997z"/>
		<path fill-rule="evenodd" clip-rule="evenodd" fill="#2A377B" d="M310.021,351.988c6.872,2.027,14.032,1.067,21.03,1.695
			c8.224,0.739,16.663-0.438,24.938-1.681c0.005,0.662,0.01,1.324,0.015,1.986c-9.537,1.476-19.146,0.965-28.731,1
			c-5.776,0.021-11.575,0.312-17.277-1.004C310.004,353.32,310.013,352.654,310.021,351.988z"/>
		<path fill-rule="evenodd" clip-rule="evenodd" fill="#2F3D8C" d="M355.993,346.997c-10.273,0.001-20.549,0.106-30.821-0.042
			c-5.083-0.073-10.131-0.837-15.104-1.96c0.005-0.666,0.01-1.331,0.016-1.996c6.115,0.92,12.16,2.661,18.424,1.966
			c2.736-0.304,5.136,1.174,7.802,1.041c5.815-0.291,11.636-0.482,17.446-0.845C355.28,345.066,355.917,345.566,355.993,346.997z"/>
		<path fill-rule="evenodd" clip-rule="evenodd" fill="#293373" d="M355.989,357.001c-10.198,1.2-20.396,2.33-30.7,2.021
			c-5.134-0.153-10.17-1.655-15.351-1.041c0.006-0.667,0.013-1.334,0.02-2c12.32,2.069,24.734,0.69,37.102,0.906
			C350.028,356.939,353.02,354.773,355.989,357.001z"/>
		<path fill-rule="evenodd" clip-rule="evenodd" fill="#334295" d="M310.08,337.011c8.267,0.942,16.519,2.065,24.806,2.759
			c5.056,0.423,10.204,0.869,15.226-0.368c1.979-0.487,3.925-0.279,5.885-0.399c0.004,1.33,0.009,2.66,0.013,3.99
			c-3.986-0.547-7.746,1.098-11.731,1.087c-11.502-0.029-22.866-1.272-34.196-3.059C310.081,339.684,310.08,338.348,310.08,337.011z
			"/>
		<path fill-rule="evenodd" clip-rule="evenodd" fill="#2A367A" d="M414.001,335.001c0.999-0.001,1.999-0.002,2.998-0.003
			c-5.142,3.552-10.992,5.706-16.763,7.815c-2.744,1.004-5.318,2.477-8.176,3.174c0.008-0.667,0.017-1.334,0.024-2.001
			C399.179,340.476,406.687,337.975,414.001,335.001z"/>
		<path fill-rule="evenodd" clip-rule="evenodd" fill="#2A387F" d="M414.001,335.001c-6.896,3.991-14.293,6.765-21.916,8.985
			c0.004-0.665,0.009-1.33,0.013-1.996c5.084-0.251,9.323-3.08,13.899-4.795c2.317-0.868,4.7-1.373,7.001-2.196
			C413.332,335,413.667,335,414.001,335.001z"/>
	</g>
</g>
</svg>
